<svg id="tablet" xmlns="http://www.w3.org/2000/svg" xmlns:xlink="http://www.w3.org/1999/xlink" width="1234.41" height="365.743" viewBox="0 0 1234.41 365.743">
  <defs>
    <clipPath id="clip-path">
      <rect id="rectangle_43" data-name="rectangle 43" width="1234.41" height="365.743" fill="none"/>
    </clipPath>
  </defs>
  <g id="group_68" data-name="group 68">
    <g id="group_67" data-name="group 67" clip-path="url(#clip-path)">
      <path id="Path_923" data-name="Path 923" d="M63.632,1.619h-.955c-.316.544,1.271.544.955,0" fill="#fefefe"/>
    </g>
  </g>
  <g id="group_70" data-name="group 70">
    <g id="group_69" data-name="group 69" clip-path="url(#clip-path)">
      <path id="Path_924" data-name="Path 924" d="M39.346,360.336c-3.319,1.856-7.246-.363-10.982-.369l-.1-3.317-2.578,2.211c-.319-.245-.637-.492-.955-.737H1.624l-.477-1.2q-.1-37.509-.191-75.016-.286-3.27-.573-6.543v80.269l.573,2.212c3.45,7.562,13.148,5.911,19.959,7.833,6.782-.2,15.68,1.561,18.431-5.345" fill="#cacbcb"/>
      <path id="Path_925" data-name="Path 925" d="M39.346,360.336l1184.846-.184c2.976-.6,6.528-2.081,7.735-4.977l-10.218-1.474c-.191-.245-.382-.492-.573-.738q-29.318-.09-58.636-.184c-2.676-.429-4.555.9-6.207,2.4v.553l-.287.922c-1.314-2.63-1.631-5.827-2.2-8.663-.3,2.085-.2,3.36-2.006,4.976q-31.321-.09-62.646-.184l-3.725,2.4v.737c.168.773-.55.773-.382,0-.063-.123-.128-.245-.191-.368-1.171-2.623-1.36-5.981-1.91-8.847-.366,2.079.285,4.455-1.814,6.082h-63.029l-3.533,2.58c-.1.246-.191.493-.287.738-1.434-3.336-1.623-7.288-2.2-10.875-.453,2.54.79,5.511-1.624,7.557h-63.22l-3.151,1.843c-.252-.086-.539,2.686-.764.737-1.486-3.73-1.635-8.4-2.1-12.533-.839,3.285,1.595,7.378-1.624,9.953H876.388l-3.152,1.843c-.063.245-.128.492-.191.737.048,1.307-.376.7-.573,0v-.737c-1.348-2.923-1.3-6.91-1.91-10.137-.605,2.842,1.163,6.034-1.623,8.294H805.91c-1.536.269-2.275,1.244-3.533,2.028-.063.307-.128.613-.191.921h-.191c-.063-.308-.128-.614-.191-.921q-.765-2.766-1.528-5.53c-.514,1.167-.659,2.568-2.006,3.5H735.241c-1.5.16-2.593,1.174-3.724,2.212-.063.184-.128.368-.191.553l-.191-.185c-.063-.245-.128-.492-.191-.737q-.667-2.578-1.337-5.161c-.93.94-.691,3.383-2.961,3.318H663.618l-2.77,2.212c-.1.184-.191.368-.286.553q-.909-3.132-1.815-6.267c-.607,1.366-.764,3.471-2.96,3.5l-60.546-.184c-2.231.175-3.849.4-5.252,2.4.154.52-.537.52-.382,0v-.553q-.765-2.488-1.528-4.977c-.921,1.285-.81,3.4-3.152,3.318L524,352.6a5.858,5.858,0,0,0-4.87,2.4v.368h-.191c-.063-.307-.128-.613-.191-.921-.063-.124-.128-.245-.191-.369v-.553l-1.146-4.423c-.877,1.1-.707,3.705-3.152,3.686l-61.5-.184c-1.685.223-3.213.606-4.3,2.212l-.382-.185-.191-.184V353.7q-.668-2.3-1.337-4.608c-.611,1.382-.727,3.66-2.96,3.686l-62.265-.184c-1.264.372-2.832.693-3.629,2.212-.158-.308-.319-.614-.477-.922-.063-.184-.128-.369-.191-.553q-.765-3.227-1.528-6.451c-.191,2.053.613,5.4-2.579,5.9l-62.456-.184a6.027,6.027,0,0,0-3.629,2.027l-.477-.737-1.719-8.11c-.579,2.363,1.352,6.283-2.387,7l-62.647-.184a5.755,5.755,0,0,0-3.438,1.843l-.478-.553c-.063-.184-.128-.369-.191-.553l-1.719-8.663c-.685,2.57,1.712,7.045-2.2,8.11l-62.838-.184a5.755,5.755,0,0,0-3.438,1.843l-.477-.553q-.954-5.253-1.91-10.506c-.9,2.936,1.782,6.993-1.242,9.216H97.886c-1.1.359-2.286.464-3.247,1.659-.158-.185-.319-.369-.477-.553-.063-.245-.128-.492-.191-.738q-.954-5.9-1.91-11.8c-1.369,3.476,2.531,9.708-1.623,11.428l-58.063-.185c-1.912.822-2.633,2.12-3.916,3.5-.063.246-.127.493-.191.738l.1,3.317c3.736.006,7.663,2.225,10.982.369"/>
      <path id="Path_926" data-name="Path 926" d="M28.268,356.649c.064-.245.127-.492.191-.737l-.573-9.308Q27.7,182.426,27.5,18.247q.383-3.041.764-6.082c-.151-.856.284-3.171,1.337-3.5l4.584.553.573.184h.764l.382.184h.955l.382.185,2.483.184c-.286-2.455.59-5.635-.478-7.741L25.021.184c.316.544-1.271.544-.955,0L2.388,0C1.884.608-.033-.413,0,.737Q.382,90.914.765,181.089L.192,259.7v2.581q.094,2.949.191,5.9v7.188q.287,3.271.573,6.543.095,37.509.191,75.016l.477,1.2H24.735c.318.245.636.492.955.737Z" fill="#fff"/>
      <path id="Path_927" data-name="Path 927" d="M1156.293,355.728q-.381-.876-.764-1.751-.479-4.977-.955-9.953V321.538q.954-146.439,1.91-292.877l1.146-6.451-.764.093c-.063.307-.128.614-.191.921-.128.369-.254.737-.382,1.106q-.381,4.839-.764,9.677l-1.719,313.98c.565,2.836.882,6.032,2.2,8.663.1-.308.19-.614.286-.922" fill="#585858"/>
      <path id="Path_928" data-name="Path 928" d="M1085.433,355.912h-.382c-.168.772.55.772.382,0" fill="#585858"/>
      <path id="Path_929" data-name="Path 929" d="M873.045,355.359h-.573c.2.7.621,1.307.573,0" fill="#585858"/>
      <path id="Path_930" data-name="Path 930" d="M1014.573,355.359q-.765-5.482-1.528-10.967v-31.7l1.719-266.335q.095-9.492.191-18.984.43-2.626.859-5.253l-.859,1.106v.553c-.063.123-.128.245-.191.368q-.381,5.853-.764,11.7-.954,154.686-1.91,309.373c.573,3.586.762,7.538,2.2,10.874.1-.245.19-.492.286-.737" fill="#585858"/>
      <path id="Path_931" data-name="Path 931" d="M92.061,341.167q.192-21.012.382-42.024c-.7.275-.325-1.428,0-1.106v-28.2q.094-3.132.191-6.267V240.347q.094-4.056.191-8.11V211.962q.095-3.132.191-6.266V190.582c.063-.677.128-1.351.191-2.028q.094-6.358.191-12.717-.095-7.742-.191-15.483.094-2.211.191-4.423.094-2.488.191-4.977-.094-12.073-.191-24.145.094-2.121.191-4.239V93.448q.095-2.212.191-4.424V59.9q.095-2.119.191-4.24.192-13.086.382-26.172V26.91c.063-.184.128-.368.191-.553a26.413,26.413,0,0,1,1.91-10.69l.573-3.133v-.185l-1.624.738-63.028-.369-.287.369c-.386,1.452,1.458.277,2.006.921l55.58-.368c1.417,1.307,5.027-1.369,4.3,1.751-.575,1.243-1.049,2.446-2.769,2.488l-59.4-.184a6.754,6.754,0,0,1-2.865,3.133L27.5,18.248q.192,164.176.382,328.356l.573,9.308c1.283-1.382,2-2.68,3.916-3.5l58.063.185c4.154-1.72.254-7.952,1.623-11.428" fill="#232f34"/>
      <path id="Path_932" data-name="Path 932" d="M802.185,355.728h0Z" fill="#585858"/>
      <path id="Path_933" data-name="Path 933" d="M944.1,354.622q.668-8.247,1.337-16.5l1.719-278.684c-.443-12.643,1.064-26.137-1.146-38.061l-.573-3.133q-.478,2.027-.955,4.054l.764-.276L944.1,27.74q-.954,147.36-1.91,294.719V343.1q.573,6.131,1.146,12.257c.225,1.948.512-.824.764-.737" fill="#979797"/>
      <path id="Path_934" data-name="Path 934" d="M1085.433,355.912v-.737q.765-6.682,1.528-13.363L1088.68,63.5c-.483-13.913,1.129-28.749-1.146-41.932l-.573-2.765q-.479,1.844-.955,3.687l.764-.277-1.146,7.373q-.954,151.138-1.91,302.276c-.416,7.876.653,16.271,1.146,23.684.063.124.128.246.191.369Z" fill="#979797"/>
      <path id="Path_935" data-name="Path 935" d="M802.376,354.806q.765-6.406,1.528-12.81l1.719-286.609c-.395-11.375.989-23.522-1.146-34.191l-.573-3.317L802.758,22.3c.319-.153.636-.307.955-.461l-1.146,4.24q-.954,133.72-1.91,267.44V346.6c-.057,2.991,1.436,5.568,1.146,8.2.063.308.128.614.191.922h.191c.063-.308.128-.614.191-.922" fill="#979797"/>
      <path id="Path_936" data-name="Path 936" d="M1156.293,355.728v-.553c1.761-8.346,1.11-17.576,1.528-26.449l1.719-278.684c-.231-9.58.772-19.649-1.337-28.477l-.573-2.211q-.381,1.473-.764,2.949l.764-.093-1.146,6.451q-.954,146.439-1.91,292.877v22.486q.478,4.977.955,9.953.381.876.764,1.751" fill="#979797"/>
      <path id="Path_937" data-name="Path 937" d="M519.129,355.359h0Z" fill="#585858"/>
      <path id="Path_938" data-name="Path 938" d="M660.848,354.99c-.063-.184-.128-.369-.191-.553q-.668-5.207-1.337-10.414V316.56q.765-145.239,1.528-290.48l1.146-4.239-.764.277-1.146,7.1q-.094,22.809-.191,45.618c-.063.737-.128,1.474-.191,2.211v31.15q-.095,1.2-.191,2.4v31.149q-.094,1.2-.191,2.4v30.78q-.094,1.383-.191,2.765v29.306c-.063.369-.128.737-.191,1.106q-.286,53.5-.573,106.995.192,17.094.382,34.19.907,3.133,1.815,6.267c.095-.184.19-.369.286-.553" fill="#585858"/>
      <path id="Path_939" data-name="Path 939" d="M731.135,355.359l.191.184-.191-.184" fill="#585858"/>
      <path id="Path_940" data-name="Path 940" d="M731.517,354.99c1.543-7.306,1.5-15.118,1.719-22.947l1.719-294.167a78.8,78.8,0,0,0-1.146-16.5q-.381-1.75-.764-3.5-.478,2.12-.955,4.24l.764-.277-1.146,4.424q-.765,109.206-1.528,218.413-.094,49.764-.191,99.53.478,5.205.955,10.413c.063.246.128.492.191.738l.191.184c.063-.184.128-.369.191-.553" fill="#979797"/>
      <path id="Path_941" data-name="Path 941" d="M1086.006,22.487c-.063.307-.128.614-.191.922-.063.183-.128.368-.191.553-1.463,8.656-.3,18.391-.955,27.37L1082.95,346.7c.55,2.866.739,6.224,1.91,8.847-.493-7.413-1.562-15.81-1.146-23.685q.954-151.139,1.91-302.276l1.146-7.372-.764.276" fill="#585858"/>
      <path id="Path_942" data-name="Path 942" d="M519.129,354.991,520.848,342q.859-147.36,1.718-294.72c-.171-8.755.568-17.866-.955-26.08q-.381-2.12-.763-4.24c-.721,2.653-1.708,5.727-1.528,8.479L517.6,331.859v9.4q.478,6.131.955,12.257v.553c.063.124.128.245.191.369.063.308.127.614.191.921h.191Zm1.05-333.057c-.523-.785,1.029-.134,0,0" fill="#979797"/>
      <path id="Path_943" data-name="Path 943" d="M589.988,354.99h-.382c-.155.52.537.52.382,0" fill="#232f34"/>
      <path id="Path_944" data-name="Path 944" d="M873.045,355.359c.063-.245.128-.492.191-.737q.668-5.76,1.337-11.52.954-150.586,1.91-301.17c.009-7.162.256-14.4-1.337-20.92l-.573-2.58q-.478,1.935-.955,3.87l.764-.276-1.146,6.451q-.954,151.6-1.91,303.2c-.441,7.932.735,15.707,1.146,22.947v.737Z" fill="#979797"/>
      <path id="Path_945" data-name="Path 945" d="M944.478,22.3c-.128.553-.254,1.106-.382,1.659-.063.123-.128.246-.191.368q-.381,8.433-.764,16.865-.954,150.816-1.91,301.631c.466,4.138.615,8.8,2.1,12.534L942.186,343.1V322.459q.954-147.36,1.91-294.72l1.146-5.713-.764.276" fill="#585858"/>
      <path id="Path_946" data-name="Path 946" d="M1014.573,355.359c2.185-9.614,1.205-20.417,1.719-30.688l1.719-278.684c-.122-8.338.56-16.978-1.337-24.606l-.573-2.4-1.146,4.239.859-1.106q-.429,2.626-.859,5.253-.094,9.492-.191,18.984l-1.719,266.335v31.7q.765,5.482,1.528,10.967" fill="#979797"/>
      <path id="Path_947" data-name="Path 947" d="M1082.95,346.7l1.719-295.364c.659-8.979-.508-18.713.955-27.371.063-.184.128-.368.191-.553.063-.307.128-.614.191-.921q.478-1.844.955-3.687.381-2.672.764-5.345v-.184H1018.2c.224.307.446.614.669.922l60.737-.185,5.921.185c.032.215.063.43.095.645A5.243,5.243,0,0,1,1084,18.063h-64.366c-.768,1.167-.848,5.969-2.96,3.318,1.9,7.629,1.214,16.269,1.337,24.606l-1.719,278.684c-.514,10.272.466,21.074-1.719,30.688l3.533-2.58h63.029c2.1-1.628,1.448-4,1.814-6.083m-38.581-151.322-2.674-1.475c-4.1-2.9-4.874-9.149-2.865-13.27,2.244-5.511,9.584-7.594,14.993-4.608s6.378,10.449,3.534,15.114l-2.483,2.764-2.483,1.291c-2.059,1.117-5.751.956-8.022.184" fill="#232f34"/>
      <path id="Path_948" data-name="Path 948" d="M1153.81,347.986q.859-156.988,1.719-313.98.381-4.839.764-9.677c.128-.368.254-.737.382-1.106.063-.307.128-.614.191-.921q.381-1.474.764-2.949.381-2.949.764-5.9l-69.332-.185c.174,1.588,1.826.518,2.77,1.106l58.254-.368,6.3.184c.033.153.063.307.1.461-.38,1.292-.485,2.723-1.623,3.41H1090.3c-.552,1.076-.846,5.78-2.77,3.5,2.275,13.182.663,28.019,1.146,41.931l-1.719,278.315q-.765,6.682-1.528,13.363l3.725-2.4,62.647.185c1.806-1.617,1.7-2.892,2.005-4.977" fill="#232f34"/>
      <path id="Path_949" data-name="Path 949" d="M1231.927,355.175q.667-1.612,1.337-3.226.573-163.487,1.146-326.974a13.482,13.482,0,0,0-6.493-10.6l-8.309-1.106H1159.54c.626,1.629,2.3.495,3.533,1.106l56.344-.184q1.2,1.888,2.388,3.778l-60.833.092c-.46,1.177-.787,5.883-2.769,3.5,2.108,8.827,1.106,18.9,1.337,28.477l-1.719,278.684c-.419,8.873.233,18.1-1.528,26.449,1.652-1.493,3.531-2.826,6.207-2.4l58.636.184.573.737,10.218,1.475m-5.921-6.635c-.062-.185-.127-.369-.19-.553v-1.475q-.1-1.383-.191-2.765V331.214q.094-8.571.191-17.141V300.618q.094-9.309.19-18.616V269.1q.1-9.585.192-19.169V237.766q.094-10.044.19-20.09V206.433q.1-10.6.191-21.2v-9.769q.1-11.336.192-22.671v-8.663q.094-11.888.19-23.776v-8.479q.1-11.98.191-23.961V80.546q.094-12.441.192-24.883V49.028q.094-8.571.19-17.141.192-3.365.383-6.728c.676-.518-.041-1.5,1.05-1.566,1.171,1.5.689,4.411,1.241,6.358V69.21q-.859,137.592-1.718,275.182-.623,4.194-1.242,8.387c-1.664-.15-1.146-2.9-1.242-4.239M1188.38,195.005l-2.674-1.474c-4.207-2.752-5-9.067-3.056-13.271,2.271-5.4,9.355-7.529,14.8-4.792,5.632,2.831,6.74,10.6,3.724,15.3l-2.292,2.58-2.674,1.659a13.014,13.014,0,0,1-7.831,0m35.048-10.137q-.142-60.409-.286-120.818.094-12.165.191-24.33.335-1.337.668-2.672.144,32.761.286,65.523-.19,40.089-.381,80.177l-.478,2.12" fill="#232f34"/>
      <path id="Path_950" data-name="Path 950" d="M448.46,354.806l-.382-.184v-.185h-.191l.191.185.382.184" fill="#585858"/>
      <path id="Path_951" data-name="Path 951" d="M588.078,349.461c-.827-5.922-.516-12.294-.573-18.524q.381-69.995.764-139.987c.063-.553.128-1.106.191-1.659V162.934q.094-1.382.191-2.764V129.389q.094-1.382.191-2.765V95.844q.095-1.2.191-2.4V62.3c.063-.738.128-1.475.191-2.212.332-11.748-.764-24.126.764-35.389q.765-3.686,1.528-7.372.381-2.12.764-4.239V12.9l-68.759.369c-.015,1.337,1.349.345,2.006.921l59.209-.368c1.136,1.184,5.382-1.1,5.061,1.2a5.655,5.655,0,0,1-1.433,2.857H524.572c-.738,1.077-.944,5.675-2.961,3.317,1.522,8.215.783,17.325.955,26.081L520.847,342l-1.719,12.994a5.864,5.864,0,0,1,4.871-2.4l60.928.185c2.341.086,2.23-2.033,3.151-3.318" fill="#232f34"/>
      <path id="Path_952" data-name="Path 952" d="M589.989,354.99q.763-5.575,1.527-11.151.1-4.791.191-9.584.86-150.216,1.719-300.433a74.252,74.252,0,0,0-1.146-12.81q-.381-1.843-.764-3.687L589.989,24.7q-.765,149.524-1.528,299.051c-.069,10.432-.2,20.818,1.145,30.688v.553ZM590.848,22.3c-.18-1.282,1.171-.633,0,0" fill="#979797"/>
      <path id="Path_953" data-name="Path 953" d="M658.747,349.277q-.192-17.094-.382-34.19.287-53.5.573-107c.063-.369.128-.737.191-1.106V177.68q.094-1.383.191-2.765v-30.78q.094-1.2.191-2.4v-31.15q.094-1.2.191-2.4V77.044c.063-.737.128-1.474.191-2.212q.094-22.809.191-45.618l1.146-7.1,1.146-4.976q.381-2.028.764-4.055l-68.95.184c.415.307.827.614,1.242.922l59.782-.369,5.348.184c.032.277.063.553.095.83a4.949,4.949,0,0,1-1.623,3.041H595.241c-.579,1.226-1.018,5.881-2.96,3.133a74.367,74.367,0,0,1,1.145,12.81q-.859,150.216-1.718,300.433-.094,4.791-.191,9.585-.765,5.576-1.528,11.151c1.4-1.993,3.021-2.221,5.252-2.4q30.274.09,60.546.184c2.2-.031,2.353-2.136,2.96-3.5m-39.154-152.8q-1.241-.738-2.483-1.475c-4.345-2.619-4.973-9.16-3.056-13.27,2.332-5.454,9.552-7.539,14.993-4.608s6.473,10.528,3.534,15.114l-2.483,2.764q-1.241.739-2.483,1.475a12.1,12.1,0,0,1-8.022,0" fill="#232f34"/>
      <path id="Path_954" data-name="Path 954" d="M729.607,349.461l-.573-5.437q.286-59.118.573-118.238.094-1.291.191-2.581V192.24q.095-1.29.191-2.58V158.88q.094-1.292.191-2.581.286-62.712.573-125.426.668-4.377,1.337-8.755.478-2.12.955-4.239.381-2.3.764-4.608v-.184l-68.95.184c.224.307.445.614.669.921l59.782-.368,6.207.461c-.338,2.186-.758,3.757-3.342,3.778l-62.265-.184c-.476,1.348-.959,5.95-2.961,3.133,2.025,9.432.82,20.2,1.146,30.32q-.765,132.8-1.528,265.6c-.754,12.464.948,25.882-1.91,37.509.063.184.128.368.191.552l2.77-2.211h63.029c2.269.064,2.03-2.378,2.96-3.318" fill="#232f34"/>
      <path id="Path_955" data-name="Path 955" d="M800.275,349.277q-.095-37.6-.191-75.2.094-1.291.191-2.581V240.531q.094-1.2.191-2.4V206.986c.063-.614.128-1.229.191-1.843q.479-87.872.955-175.744l1.146-7.1,1.146-4.424q.381-2.3.764-4.608v-.184l-69.141.184q.238.461.478.922l66.085-.185q.048.784.095,1.567c-.472,1.385-.848,2.186-2.387,2.488l-63.029-.184c-.72,1.1-.856,5.725-2.961,3.5a78.791,78.791,0,0,1,1.146,16.5l-1.719,294.167c-.214,7.829-.175,15.641-1.719,22.947,1.131-1.038,2.224-2.052,3.725-2.212H798.27c1.346-.935,1.491-2.335,2.005-3.5" fill="#232f34"/>
      <path id="Path_956" data-name="Path 956" d="M446.55,349.092c-1.217-11.767-.277-24.446-.573-36.586q.381-61.055.764-122.109.094-1.105.191-2.212v-21.2q.094-1.567.191-3.133V133.444q.095-1.383.191-2.765V99.9q.095-1.475.191-2.949V66.537q.094-1.382.191-2.764V32.992c.063-.368.128-.737.191-1.106.115-1.859-.3-4.635.573-5.9v-.737c.063-.184.128-.369.191-.553a22.937,22.937,0,0,1,1.528-8.11l.573-3.686-68.759.184q.238.46.478.922l60.928-.185c1.273.892,5.47-1.117,4.679,1.567l-1.433,2.488h-63.6c-.61,1.253-1.035,5.629-2.961,3.134,1.373,6.981.858,14.718.955,22.21l-1.719,296.931q-.668,6.172-1.337,12.349c-.254.461-.51.921-.764,1.382.159.308.319.614.478.922.8-1.519,2.364-1.84,3.629-2.212l62.265.184c2.232-.025,2.349-2.3,2.96-3.686" fill="#232f34"/>
      <path id="Path_957" data-name="Path 957" d="M517.409,349.092l-.573-3.225V305.5q.381-62.16.764-124.32.095-1.383.191-2.765V148.189q.094-1.381.191-2.765v-30.78c.063-.982.128-1.967.191-2.949V81.1q.095-1.2.191-2.4V47.553q.094-1.2.191-2.4V29.214q.381-1.889.764-3.778c-.179-2.752.808-5.826,1.528-8.479q.381-1.935.764-3.871V12.9l-68.759.369c.1.245.191.491.287.737l60.928-.184c.955.948,5.548-1.1,4.87,1.382l-1.432,2.673H453.712c-.437,1.34-1.144,5.933-2.96,2.949,1.957,12.607.508,26.679.955,39.9q-.765,134.457-1.528,268.915c-.4,8.381.254,17.27-2.1,24.79v.185l.382.184c1.084-1.605,2.612-1.989,4.3-2.212l61.5.185c2.445.018,2.275-2.588,3.151-3.687m-38.39-152.428-2.483-1.29c-4.408-2.706-5.077-8.956-3.247-13.271,2.426-5.374,9.548-7.529,14.993-4.608,5.384,2.888,6.487,10.362,3.534,14.93q-1.338,1.473-2.674,2.949l-2.483,1.29a10.122,10.122,0,0,1-7.64,0" fill="#232f34"/>
      <path id="Path_958" data-name="Path 958" d="M802.758,22.3l-1.146,7.1q-.478,87.871-.955,175.744c-.063.614-.128,1.23-.191,1.843v31.15q-.094,1.2-.191,2.4V271.5q-.095,1.29-.191,2.58.094,37.6.191,75.2.765,2.766,1.528,5.53c.29-2.634-1.2-5.211-1.146-8.2V293.521q.954-133.721,1.91-267.441l1.146-4.239-.955.461" fill="#585858"/>
      <path id="Path_959" data-name="Path 959" d="M870.562,344.484V322.367q.094-1.291.191-2.581V288.821q.094-1.382.191-2.764.668-120.219,1.337-240.439c.659-7.14-.515-15.024.955-21.841.063-.123.128-.246.191-.369.063-.369.128-.737.191-1.106q.479-1.935.955-3.87.381-2.581.764-5.161H806.2l.668.921,66.085-.184q.048.691.095,1.382a3.412,3.412,0,0,1-2.005,2.673h-63.6c-.711,1.18-.919,5.912-2.96,3.133,2.135,10.669.75,22.816,1.146,34.191L803.905,342q-.765,6.406-1.528,12.81c1.258-.783,2-1.758,3.533-2.027h63.029c2.786-2.26,1.018-5.453,1.623-8.295m-35.716-69.3-2.483-1.29c-4.148-2.929-4.884-9.3-2.865-13.455,2.334-5.555,9.993-7.507,15.375-4.239,5.039,3.059,5.744,10.29,3.152,14.745q-1.241,1.382-2.483,2.765l-2.674,1.474c-2.093,1.115-5.91.973-8.022,0m.191-158.7-2.674-1.475c-4.2-2.582-4.844-9.262-2.865-13.27,2.172-5.371,9.416-7.4,14.8-4.608,5.459,2.833,6.471,10.442,3.725,15.114l-2.483,2.764-2.674,1.475a10.566,10.566,0,0,1-7.831,0" fill="#232f34"/>
      <path id="Path_960" data-name="Path 960" d="M375.5,346.881q-.192-12.857-.382-25.712l.573-88.011q.094-3.041.191-6.082V207.539q.094-1.475.191-2.949v-18.8q.095-1.567.191-3.133V152.244q.094-1.659.191-3.317V118.7q.094-1.567.191-3.133V85.338q.095-1.474.191-2.949v-30.6q.094-1.567.191-3.134V29.214l.573-2.488v-.737c.063-.246.128-.492.191-.738-.162-2.806.757-5.971,1.528-8.662q.381-1.844.764-3.687v-.184l-68.759.369.478.921,61.119-.184c1.409.886,5.111-1.168,4.3,1.751l-1.432,2.3H312.375c-.674,1.129-1.079,5.524-2.96,3.133,1.533,11.354.429,23.824.763,35.665l-1.527,264.86c-.575,10.691.632,22.155-1.91,31.979l-.382.369.477.737a6.023,6.023,0,0,1,3.629-2.028l62.456.185c3.191-.5,2.387-3.845,2.578-5.9M336.345,197.217l-2.674-1.475c-4.2-2.869-4.834-9.16-2.865-13.27,2.355-5.544,9.756-7.55,15.184-4.424,5.268,3.034,6.114,10.353,3.343,14.93l-2.483,2.764-2.674,1.475a10.776,10.776,0,0,1-7.831,0" fill="#232f34"/>
      <path id="Path_961" data-name="Path 961" d="M732.09,22.118q-.668,4.377-1.337,8.755-.286,62.714-.573,125.426-.094,1.292-.191,2.581v30.78q-.094,1.291-.191,2.581v30.964q-.094,1.291-.191,2.581-.286,59.118-.573,118.238l.573,5.437q.668,2.58,1.337,5.161-.478-5.207-.955-10.414.094-49.766.191-99.53.765-109.206,1.528-218.413l1.146-4.423-.764.276" fill="#585858"/>
      <path id="Path_962" data-name="Path 962" d="M873.618,22.3c-.063.369-.128.737-.191,1.106-.063.123-.128.246-.191.369-1.471,6.817-.3,14.7-.955,21.841q-.668,120.218-1.337,240.438-.094,1.383-.191,2.765v30.965q-.094,1.291-.191,2.58v22.118c.607,3.228.562,7.214,1.91,10.138-.411-7.24-1.587-15.015-1.146-22.948q.954-151.6,1.91-303.2l1.146-6.451-.764.276" fill="#585858"/>
      <path id="Path_963" data-name="Path 963" d="M941.231,342.826q.954-150.816,1.91-301.631.381-8.433.764-16.865c.063-.123.128-.246.191-.369.128-.552.254-1.1.382-1.658q.478-2.028.955-4.055.381-2.488.764-4.977H876.865c.224.307.445.615.669.922l60.928-.185c1.035.851,6.056-.925,5.443,1.2-.382,1.321-.607,2.277-1.815,2.857H878.107c-.543,1.448-1.049,6.072-2.961,2.949,1.593,6.524,1.347,13.758,1.337,20.92q-.954,150.586-1.91,301.17-.668,5.76-1.337,11.52l3.152-1.843h63.22c3.218-2.575.784-6.668,1.623-9.953" fill="#232f34"/>
      <path id="Path_964" data-name="Path 964" d="M1012.09,345.222q.954-154.686,1.91-309.372.381-5.853.764-11.7c.063-.123.128-.246.191-.369v-.553l1.146-4.239q.381-2.858.764-5.714H947.533c.224.307.445.614.669.922l60.737-.185c1.256.85,5.911-.861,5.825,1.014-.435,1.364-.4,2.3-1.815,3.041H948.775c-.375,1.236-.948,5.721-2.77,3.318,2.21,11.924.7,25.418,1.146,38.061l-1.719,278.684q-.668,8.247-1.337,16.5l3.152-1.843h63.22c2.414-2.046,1.17-5.017,1.623-7.557" fill="#232f34"/>
      <path id="Path_965" data-name="Path 965" d="M233.78,344.669V293.8c.063-.246.128-.493.191-.738V264.492q.095-3.871.191-7.742V235.186q.095-3.5.191-7V207.17q.095-3.134.191-6.267V186.711c.063-.492.128-.983.191-1.475V156.3q.095-2.121.191-4.239V122.754q.095-2.028.191-4.055V89.393q.094-2.028.191-4.055V55.847q.095-2.12.191-4.239V29.4l.573-2.857a29.7,29.7,0,0,1,1.91-10.69l.573-3.133v-.185c-.349.185-.7.369-1.05.553L169.8,12.9l.859,1.106,60.355-.369c1.113,1.257,5.4-.962,4.679,1.383a3.82,3.82,0,0,1-2.2,2.856H170.847c-.531,1.015-.972,5.21-2.769,3.318,1.123,10.089.338,20.977.573,31.426q-.765,133.258-1.528,266.519c-.537,11.516.584,23.719-1.91,34.375l-.382.368c.158.185.319.369.477.553a5.755,5.755,0,0,1,3.438-1.843q31.42.092,62.838.184c3.908-1.065,1.511-5.54,2.2-8.109M198.064,197.4l-2.674-1.475c-4.238-2.606-4.645-8.85-3.056-13.086,2.588-5.4,9.548-7.457,14.993-4.608,5.472,2.863,6.487,10.526,3.534,15.114l-2.674,2.765q-1.24.738-2.483,1.474c-2.286.645-5.575.938-7.64-.184" fill="#232f34"/>
      <path id="Path_966" data-name="Path 966" d="M304.64,345.775v-1.29c-.063-.185-.128-.369-.191-.553q.094-32.348.191-64.7c.063-.368.128-.737.191-1.106V249.747q.095-3.5.191-7V221.731q.094-2.856.191-5.714v-14.56c.063-.738.128-1.475.191-2.212v-28.2q.095-1.845.191-3.687V137.5q.094-2.211.191-4.423V103.954q.094-2.028.191-4.055V70.593q.095-1.844.191-3.686V37.048q.094-1.752.191-3.5V27.74l.573-1.935a28.3,28.3,0,0,1,1.719-9.585l.573-3.5-68.759.185c.224.368.445.737.669,1.105l65.32-.184c.033.277.064.553.1.829a4.861,4.861,0,0,1-1.815,3.226H241.516c-.4,1.083-.944,5.191-2.77,3.318.9,5.73.772,11.878.764,17.97q-.859,149.481-1.719,298.959l-.573,8.478c-.876,2.188-.387,5.329-1.528,7.281.159.184.319.368.478.553a5.755,5.755,0,0,1,3.438-1.843q31.321.09,62.647.184c3.739-.721,1.808-4.641,2.387-7" fill="#232f34"/>
      <path id="Path_967" data-name="Path 967" d="M450.752,20.828l-.573-4.239a22.956,22.956,0,0,0-1.528,8.11c-.063.184-.128.368-.191.553v.737q-.765,144.088-1.528,288.176v29.122q.479,5.205.955,10.413v.738h.191c2.355-7.52,1.7-16.41,2.1-24.791q.765-134.456,1.528-268.915c-.447-13.225,1-27.3-.955-39.9" fill="#979797"/>
      <path id="Path_968" data-name="Path 968" d="M518.556,354.069c.063.123.128.245.191.369-.063-.124-.128-.246-.191-.369" fill="#585858"/>
      <path id="Path_969" data-name="Path 969" d="M589.988,24.7c-1.528,11.262-.432,23.64-.764,35.388-.063.738-.128,1.475-.191,2.212V93.447q-.095,1.2-.191,2.4v30.78q-.094,1.383-.191,2.765v30.78q-.094,1.383-.191,2.765v26.357c-.063.553-.128,1.106-.191,1.659q-.381,69.995-.764,139.987c.057,6.23-.254,12.6.573,18.524q.765,2.487,1.528,4.976c-1.347-9.87-1.215-20.256-1.146-30.688q.765-149.524,1.528-299.051" fill="#585858"/>
      <path id="Path_970" data-name="Path 970" d="M662.949,21.012l-.573-3.871-1.146,4.977.764-.277-1.146,4.24q-.765,145.239-1.528,290.48v27.463q.668,5.205,1.337,10.413c2.857-11.626,1.156-25.044,1.91-37.508q.765-132.8,1.528-265.6c-.327-10.118.879-20.888-1.146-30.32" fill="#979797"/>
      <path id="Path_971" data-name="Path 971" d="M162.92,343.379V310.571c.063-.737.128-1.475.191-2.212V280.9q.095-3.961.191-7.925V251.59q.095-3.778.191-7.557V222.469q.095-3.78.191-7.557V195.374q.094-2.4.191-4.792V175.1q.095-2.3.191-4.608V141.554q.095-2.119.191-4.239V108.193q.095-2.12.191-4.239V74.648q.095-1.935.191-3.871V41.1q.094-2.12.191-4.24.192-4.606.382-9.215a32.822,32.822,0,0,1,1.91-11.612l.573-3.319v-.183q-.717.274-1.433.553L99.127,12.9c.159.369.319.737.478,1.107l60.737-.37c1.2,1.244,5.367-1.117,4.488,1.568-.445,1.358-1.007,2.342-2.387,2.672l-61.883-.184c-1.372.564-.906,4.969-3.152,3.686l.573,13.732L96.262,332.044q-.192,6.172-.382,12.349L94.161,353.7c.159.184.319.368.478.553.961-1.2,2.149-1.3,3.247-1.659h63.793c3.023-2.223.341-6.28,1.241-9.216" fill="#232f34"/>
      <path id="Path_972" data-name="Path 972" d="M165.212,353.516q-.765-6.036-1.528-12.073.765-156.9,1.528-313.8-.192,4.608-.382,9.216-.095,2.12-.191,4.239V70.777q-.095,1.935-.191,3.871v29.306q-.095,2.119-.191,4.239v29.122q-.095,2.119-.191,4.239v28.937q-.094,2.3-.191,4.608v15.483q-.095,2.4-.191,4.792v19.537q-.095,3.78-.191,7.557v21.565q-.095,3.78-.191,7.557v21.38q-.095,3.963-.191,7.926v27.463c-.063.737-.128,1.474-.191,2.212v32.808q.954,5.253,1.91,10.506l.382-.369" fill="#585858"/>
      <path id="Path_973" data-name="Path 973" d="M238.746,21.2q-.381-2.673-.764-5.345a29.675,29.675,0,0,0-1.91,10.69q-.86,155.978-1.719,311.953l1.146,14.837c.063.185.128.369.191.553,1.14-1.952.651-5.092,1.528-7.28l.573-8.479L239.51,39.167c.008-6.093.134-12.241-.764-17.971" fill="#979797"/>
      <path id="Path_974" data-name="Path 974" d="M306.741,353.516a102.892,102.892,0,0,1-1.528-20L306.932,25.8l-.573,1.936v5.806q-.095,1.75-.191,3.5V66.907q-.094,1.842-.191,3.686V99.9q-.094,2.026-.191,4.055v29.122q-.095,2.211-.191,4.423v29.859q-.094,1.844-.191,3.686v28.2c-.063.737-.128,1.474-.191,2.211v14.561q-.095,2.856-.191,5.714v21.012q-.094,3.5-.191,7v28.384c-.063.369-.128.738-.191,1.106q-.095,32.348-.191,64.7c.063.184.128.368.191.553v1.29l1.719,8.11.382-.369" fill="#585858"/>
      <path id="Path_975" data-name="Path 975" d="M380.083,21.012q-.381-2.212-.764-4.424c-.772,2.692-1.69,5.857-1.528,8.663-.063.246-.128.492-.191.738v.737q-.765,149.247-1.528,298.5v16.4q.479,5.853.955,11.7c.063.184.128.368.191.552.254-.46.51-.921.764-1.382q.668-6.174,1.337-12.349l1.719-296.931c-.1-7.492.418-15.229-.955-22.21" fill="#979797"/>
      <path id="Path_976" data-name="Path 976" d="M97.409,21.381q-.479-2.858-.955-5.714a26.414,26.414,0,0,0-1.91,10.691c-.063.184-.128.368-.191.552v2.581q-.381,60.732-.764,121.463-.094,2.489-.191,4.977v19.906q-.095,6.358-.191,12.717v2.028c.7,49.577-.118,99.911-.382,149.387l1.146,12.994c.063.245.128.492.191.738l1.719-9.308q.192-6.174.382-12.349.859-148.466,1.719-296.932l-.573-13.731" fill="#979797"/>
      <path id="Path_977" data-name="Path 977" d="M448.46,25.989c-.877,1.262-.458,4.038-.573,5.9-.063.369-.128.737-.191,1.106V63.774q-.095,1.382-.191,2.764V96.95q-.095,1.475-.191,2.949V130.68q-.094,1.382-.191,2.765v30.411q-.094,1.569-.191,3.134v21.2q-.095,1.105-.191,2.212-.381,61.053-.764,122.108c.3,12.141-.644,24.82.573,36.587q.668,2.3,1.337,4.608-.479-5.206-.955-10.414V314.165q.765-144.089,1.528-288.176" fill="#585858"/>
      <path id="Path_978" data-name="Path 978" d="M168.077,21.2q-.479-2.58-.955-5.161a32.826,32.826,0,0,0-1.91,11.612q-.765,156.9-1.528,313.8.765,6.036,1.528,12.073c2.494-10.656,1.373-22.859,1.91-34.375q.765-133.26,1.528-266.519c-.235-10.449.55-21.337-.573-31.426" fill="#979797"/>
      <path id="Path_979" data-name="Path 979" d="M309.415,21.012q-.381-2.4-.764-4.792a28.322,28.322,0,0,0-1.719,9.584l-1.719,307.714a102.892,102.892,0,0,0,1.528,20c2.542-9.824,1.335-21.288,1.91-31.979q.765-132.43,1.528-264.86c-.334-11.841.77-24.311-.764-35.665" fill="#979797"/>
      <path id="Path_980" data-name="Path 980" d="M519.32,25.436q-.381,1.888-.764,3.778V45.158q-.095,1.2-.191,2.4V78.7q-.094,1.2-.191,2.4v30.6q-.094,1.475-.191,2.949v30.781q-.094,1.383-.191,2.765v30.227q-.094,1.383-.191,2.765-.381,62.158-.764,124.32v40.365l.573,3.226,1.146,4.423q-.479-6.129-.955-12.257v-9.4L519.32,25.436" fill="#585858"/>
      <path id="Path_981" data-name="Path 981" d="M236.072,26.541,235.5,29.4v22.21q-.094,2.119-.191,4.239v29.49q-.095,2.028-.191,4.055V118.7q-.095,2.027-.191,4.055v29.306q-.094,2.121-.191,4.24v28.937c-.063.492-.128.982-.191,1.475V200.9q-.095,3.132-.191,6.266v21.012q-.095,3.5-.191,7V256.75q-.095,3.871-.191,7.741V293.06c-.063.245-.128.492-.191.737v50.871q.859,4.334,1.719,8.663l-1.146-14.837q.859-155.977,1.719-311.953" fill="#585858"/>
      <path id="Path_982" data-name="Path 982" d="M377.6,26.726l-.573,2.488V48.659q-.095,1.567-.191,3.134v30.6q-.094,1.475-.191,2.949v30.228q-.094,1.567-.191,3.133v30.228q-.095,1.659-.191,3.317v30.412q-.094,1.567-.191,3.134v18.8q-.094,1.473-.191,2.949v19.537q-.095,3.042-.191,6.083-.287,44.006-.573,88.01.192,12.855.382,25.712.765,3.227,1.528,6.451-.479-5.853-.955-11.7v-16.4q.765-149.248,1.528-298.5" fill="#585858"/>
      <path id="Path_983" data-name="Path 983" d="M93.207,190.582h-.191V205.7q-.094,3.132-.191,6.267v20.274q-.094,4.056-.191,8.11v23.224q-.095,3.132-.191,6.266v29.306q-.192,21.012-.382,42.024.954,5.9,1.91,11.8l-1.146-12.994c.264-49.476,1.081-99.81.382-149.387" fill="#585858"/>
      <path id="Path_984" data-name="Path 984" d="M1227.534,31.887q-.095,8.571-.191,17.141v6.636q-.094,12.441-.191,24.882v7.373q-.094,11.98-.191,23.961v8.478q-.095,11.889-.191,23.777V152.8q-.094,11.334-.191,22.67v9.769q-.094,10.6-.191,21.2v11.243q-.094,10.044-.191,20.091v12.164q-.094,9.586-.191,19.169V282q-.094,9.309-.191,18.616v13.455q-.094,8.571-.191,17.141v12.534q.094,1.382.191,2.764v1.475c.063.184.128.369.191.553.1,1.334-.422,4.09,1.242,4.239q.621-4.194,1.241-8.386l1.719-275.182V29.952c-.552-1.948-.071-4.858-1.242-6.359-1.09.064-.374,1.048-1.05,1.567q-.192,3.363-.382,6.727" fill="#979797"/>
      <path id="Path_985" data-name="Path 985" d="M1226.006,348.539c-.063-.184-.128-.369-.191-.553.063.184.128.369.191.553" fill="#585858"/>
      <path id="Path_986" data-name="Path 986" d="M1225.815,346.512q-.094-1.383-.191-2.765.094,1.383.191,2.765" fill="#585858"/>
      <path id="Path_987" data-name="Path 987" d="M304.64,344.484c-.063-.184-.128-.369-.191-.553.063.184.128.369.191.553"/>
      <path id="Path_988" data-name="Path 988" d="M1225.815,314.073q-.094,8.571-.191,17.141.094-8.569.191-17.141" fill="#585858"/>
      <path id="Path_989" data-name="Path 989" d="M870.753,319.786q-.094,1.291-.191,2.58.094-1.29.191-2.58"/>
      <path id="Path_990" data-name="Path 990" d="M163.111,308.359c-.063.737-.128,1.475-.191,2.212.063-.737.128-1.475.191-2.212"/>
      <path id="Path_991" data-name="Path 991" d="M1226.006,282q-.094,9.309-.191,18.616.095-9.309.191-18.616" fill="#585858"/>
      <path id="Path_992" data-name="Path 992" d="M92.443,299.143v-1.106c-.325-.322-.7,1.381,0,1.106"/>
      <path id="Path_993" data-name="Path 993" d="M233.971,293.061c-.063.245-.128.492-.191.737.063-.245.128-.492.191-.737"/>
      <path id="Path_994" data-name="Path 994" d="M870.944,286.057q-.094,1.383-.191,2.765.094-1.383.191-2.765"/>
      <path id="Path_995" data-name="Path 995" d="M163.3,272.97q-.095,3.961-.191,7.926.095-3.963.191-7.926"/>
      <path id="Path_996" data-name="Path 996" d="M304.831,278.131c-.063.369-.128.737-.191,1.106.063-.369.128-.737.191-1.106"/>
      <path id="Path_997" data-name="Path 997" d="M842.867,275.182h-8.021c2.112.973,5.928,1.115,8.021,0" fill="#f3f3f3"/>
      <path id="Path_998" data-name="Path 998" d="M834.846,275.182h8.022l2.674-1.475q-1.863.369-3.725.738c-3.05-.022-6.226.247-8.785-.922l-.669.369,2.483,1.29" fill="#e0e0e0"/>
      <path id="Path_999" data-name="Path 999" d="M845.541,273.708q1.24-1.383,2.483-2.765l-.478-.368c-1.371,1.15-2.221.612-4.2.737-.128-.308-.255-.614-.382-.922-3.853.868-4.892-2.237-8.213-2.58-2.6-2.169-5.094-4.626-3.534-8.2l-1.719.829c-2.018,4.158-1.283,10.527,2.865,13.455l.669-.368c2.559,1.168,5.735.9,8.786.921l3.724-.737" fill="#cacaca"/>
      <path id="Path_1000" data-name="Path 1000" d="M800.275,271.5q-.095,1.291-.191,2.58.094-1.29.191-2.58"/>
      <path id="Path_1001" data-name="Path 1001" d="M848.024,270.943c2.592-4.455,1.887-11.686-3.151-14.745-5.383-3.268-13.042-1.316-15.376,4.239l1.719-.829c-1.56,3.575.929,6.032,3.534,8.2,3.321.342,4.36,3.448,8.213,2.58l.382.922c1.98-.126,2.83.412,4.2-.738.159.124.319.245.478.369" fill="#a8a8a8"/>
      <path id="Path_1002" data-name="Path 1002" d="M92.634,263.57q-.095,3.132-.191,6.267.094-3.134.191-6.267"/>
      <path id="Path_1003" data-name="Path 1003" d="M1226.2,249.931q-.094,9.585-.191,19.169.094-9.585.191-19.169" fill="#585858"/>
      <path id="Path_1004" data-name="Path 1004" d="M.191,262.28q.1,2.951.191,5.9-.1-2.951-.191-5.9" fill="#cacbcb"/>
      <path id="Path_1005" data-name="Path 1005" d="M234.162,256.751q-.095,3.87-.191,7.741.095-3.87.191-7.741"/>
      <path id="Path_1006" data-name="Path 1006" d="M0,.737Q.1,130.218.191,259.7l.573-78.61Q.382,90.912,0,.737" fill="#cacbcb"/>
      <path id="Path_1007" data-name="Path 1007" d="M163.493,244.033q-.095,3.78-.191,7.557.095-3.78.191-7.557"/>
      <path id="Path_1008" data-name="Path 1008" d="M305.022,242.743q-.094,3.5-.191,7,.095-3.5.191-7"/>
      <path id="Path_1009" data-name="Path 1009" d="M800.466,238.135q-.094,1.2-.191,2.4.094-1.2.191-2.4"/>
      <path id="Path_1010" data-name="Path 1010" d="M92.825,232.237q-.094,4.056-.191,8.11.094-4.056.191-8.11"/>
      <path id="Path_1011" data-name="Path 1011" d="M1226.388,217.676q-.094,10.044-.191,20.09.094-10.044.191-20.09" fill="#585858"/>
      <path id="Path_1012" data-name="Path 1012" d="M234.353,228.182q-.095,3.5-.191,7,.095-3.5.191-7"/>
      <path id="Path_1013" data-name="Path 1013" d="M375.881,227.076q-.095,3.04-.191,6.082.094-3.041.191-6.082"/>
      <path id="Path_1014" data-name="Path 1014" d="M729.8,223.205q-.094,1.291-.191,2.58.094-1.29.191-2.58"/>
      <path id="Path_1015" data-name="Path 1015" d="M163.684,214.911q-.095,3.78-.191,7.557.095-3.78.191-7.557"/>
      <path id="Path_1016" data-name="Path 1016" d="M305.213,216.017q-.095,2.856-.191,5.714.094-2.856.191-5.714"/>
      <path id="Path_1017" data-name="Path 1017" d="M93.016,205.7q-.094,3.132-.191,6.267.095-3.134.191-6.267"/>
      <path id="Path_1018" data-name="Path 1018" d="M659.129,206.986c-.063.369-.128.737-.191,1.106.063-.369.128-.737.191-1.106"/>
      <path id="Path_1019" data-name="Path 1019" d="M376.072,204.59c-.063.982-.128,1.967-.191,2.949.063-.982.128-1.967.191-2.949"/>
      <path id="Path_1020" data-name="Path 1020" d="M234.544,200.9q-.095,3.132-.191,6.267.095-3.134.191-6.267"/>
      <path id="Path_1021" data-name="Path 1021" d="M800.657,205.143c-.063.614-.128,1.229-.191,1.843.063-.614.128-1.229.191-1.843"/>
      <path id="Path_1022" data-name="Path 1022" d="M1226.579,185.237q-.094,10.6-.191,21.2.095-10.6.191-21.2" fill="#585858"/>
      <path id="Path_1023" data-name="Path 1023" d="M305.4,199.244c-.063.737-.128,1.475-.191,2.212.063-.737.128-1.475.191-2.212"/>
      <path id="Path_1024" data-name="Path 1024" d="M205.7,197.586l-7.64-.184c2.065,1.122,5.354.829,7.64.184" fill="#f3f3f3"/>
      <path id="Path_1025" data-name="Path 1025" d="M344.176,197.217c-.032-.124-.063-.245-.1-.369q-3.867.186-7.735.369a10.776,10.776,0,0,0,7.831,0" fill="#f3f3f3"/>
      <path id="Path_1026" data-name="Path 1026" d="M205.7,197.586q1.241-.738,2.483-1.475a26.755,26.755,0,0,1-12.8-.184l2.674,1.475,7.64.184" fill="#e0e0e0"/>
      <path id="Path_1027" data-name="Path 1027" d="M486.659,196.664h-7.64a10.122,10.122,0,0,0,7.64,0" fill="#f3f3f3"/>
      <path id="Path_1028" data-name="Path 1028" d="M336.345,197.217q3.867-.186,7.735-.369c.033.124.063.245.1.369l2.674-1.475-.287-.368-4.011,1.106-8.881-.738,2.674,1.475" fill="#e0e0e0"/>
      <path id="Path_1029" data-name="Path 1029" d="M627.615,196.48c-.1-.124-.191-.245-.286-.369l-7.736.369a12.1,12.1,0,0,0,8.022,0" fill="#f3f3f3"/>
      <path id="Path_1030" data-name="Path 1030" d="M208.186,196.111l2.674-2.765c-.159-.308-.319-.613-.478-.921-.882,1.4-1.822.411-2.864,1.106-.944-.159-1.847.494-1.528-.738a8.145,8.145,0,0,1-4.393-.368c-1.1-1.619-2.8-1.88-4.584-2.765-1.421-.706-1.511-3.133-2.77-3.041-.548-1.532-1.008-2.958-.382-4.424l-1.528.645c-1.589,4.236-1.182,10.48,3.056,13.087a26.755,26.755,0,0,0,12.8.184" fill="#cacaca"/>
      <path id="Path_1031" data-name="Path 1031" d="M486.659,196.664l2.483-1.29c-3.537.99-8.82.765-12.606,0l2.483,1.29Z" fill="#e0e0e0"/>
      <path id="Path_1032" data-name="Path 1032" d="M346.85,195.742q1.24-1.383,2.483-2.765c.158-.737.319-1.474.477-2.212a8.553,8.553,0,0,1-5.538,2.765q-.1-.276-.191-.553c-3.368.2-5.373-2.672-8.4-3.317-1.843-1.211-1.861-3.523-3.343-4.147a5.135,5.135,0,0,1,0-3.871l-1.528.829c-1.969,4.111-1.337,10.4,2.865,13.271l8.882.737,4.011-1.106c.1.124.19.245.286.369" fill="#cacaca"/>
      <path id="Path_1033" data-name="Path 1033" d="M627.615,196.48q1.241-.738,2.483-1.475l-4.488.738-8.5-.738q1.241.739,2.483,1.475l7.736-.369c.1.124.19.245.286.369" fill="#e0e0e0"/>
      <path id="Path_1034" data-name="Path 1034" d="M489.142,195.374q1.338-1.473,2.674-2.949c-1.429.418-2.458,1.336-4.3.922-1.37-.308-.654-.528-1.146-1.291-3.1.087-4.733-1.7-7.449-2.58q-2.055-2.164-4.107-4.331.095-1.937.191-3.871l-1.719.829c-1.829,4.315-1.161,10.565,3.247,13.271,3.786.765,9.069.99,12.606,0" fill="#cacaca"/>
      <path id="Path_1035" data-name="Path 1035" d="M1052.391,195.19q-4.011.092-8.022.184c2.271.773,5.963.933,8.022-.184" fill="#f3f3f3"/>
      <path id="Path_1036" data-name="Path 1036" d="M630.1,195.005q1.241-1.383,2.483-2.765c.095-.492.191-.982.286-1.474-1.719,1.4-2.952,2.363-5.347,2.4q-.192-.554-.382-1.106c-2.98-.431-5.188-2.357-8.022-3.133q-1.769-2.075-3.534-4.147a6,6,0,0,1,0-3.871l-1.528.829c-1.917,4.111-1.289,10.652,3.056,13.271l8.5.737,4.488-.737" fill="#cacaca"/>
      <path id="Path_1037" data-name="Path 1037" d="M1196.211,195.005l-.1-.369-7.736.369a13.022,13.022,0,0,0,7.831,0" fill="#f3f3f3"/>
      <path id="Path_1038" data-name="Path 1038" d="M163.875,190.582q-.095,2.4-.191,4.792.094-2.4.191-4.792"/>
      <path id="Path_1039" data-name="Path 1039" d="M1052.391,195.19l2.483-1.29c-.1-.124-.192-.245-.286-.369L1050,194.637a22.385,22.385,0,0,1-8.023-1.106l-.287.369,2.675,1.474q4.009-.09,8.022-.184" fill="#e0e0e0"/>
      <path id="Path_1040" data-name="Path 1040" d="M1188.38,195.005q3.867-.186,7.735-.369c.033.124.063.245.1.369l2.674-1.659-5.253.922-7.926-.738,2.674,1.475" fill="#e0e0e0"/>
      <path id="Path_1041" data-name="Path 1041" d="M1054.874,193.9q1.241-1.383,2.483-2.765c.158-.737.319-1.474.476-2.211-1.393,1.808-3.564,2.672-6.3,2.949.063-.246.129-.493.192-.738l-7.832-3.317-3.533-4.147a5.13,5.13,0,0,1,0-3.871l-1.528.829c-2.009,4.122-1.237,10.368,2.865,13.271l.287-.369a22.353,22.353,0,0,0,8.022,1.106l4.584-1.106c.094.124.19.246.286.369" fill="#cacaca"/>
      <path id="Path_1042" data-name="Path 1042" d="M1198.885,193.346l2.292-2.58q.048-.554.095-1.106a7.455,7.455,0,0,1-4.774,2.027c-1.36-.534-.264-.724-.764-1.29-2.957-.256-5.1-2.158-7.831-2.949q-1.768-1.889-3.534-3.779-.094-2.12-.191-4.239l-1.528.83c-1.942,4.2-1.151,10.518,3.056,13.27l7.927.738,5.252-.922" fill="#cacaca"/>
      <path id="Path_1043" data-name="Path 1043" d="M210.86,193.346c2.953-4.588,1.939-12.251-3.533-15.114-5.446-2.849-12.406-.792-14.994,4.608l1.528-.645c-.626,1.465-.166,2.892.382,4.424,1.259-.093,1.349,2.335,2.77,3.041,1.784.884,3.485,1.146,4.584,2.764a8.145,8.145,0,0,0,4.393.369c-.319,1.231.584.579,1.528.737,1.042-.695,1.982.293,2.865-1.106.158.308.318.614.477.922" fill="#a8a8a8"/>
      <path id="Path_1044" data-name="Path 1044" d="M349.333,192.978c2.771-4.577,1.925-11.9-3.342-14.929-5.429-3.126-12.83-1.121-15.185,4.423l1.528-.829a5.132,5.132,0,0,0,0,3.87c1.482.625,1.5,2.936,3.343,4.147,3.031.645,5.036,3.519,8.4,3.318.063.184.128.369.191.553a8.553,8.553,0,0,0,5.538-2.765q-.237,1.105-.477,2.212" fill="#a8a8a8"/>
      <path id="Path_1045" data-name="Path 1045" d="M491.816,192.425c2.953-4.567,1.851-12.041-3.533-14.929-5.446-2.922-12.568-.767-14.994,4.607l1.719-.829q-.094,1.935-.191,3.871,2.055,2.164,4.107,4.331c2.716.885,4.347,2.667,7.449,2.58.492.763-.224.983,1.146,1.291,1.839.414,2.868-.5,4.3-.922" fill="#a8a8a8"/>
      <path id="Path_1046" data-name="Path 1046" d="M632.58,192.24c2.939-4.586,1.9-12.187-3.533-15.114s-12.662-.846-14.994,4.608l1.528-.829a6,6,0,0,0,0,3.87q1.769,2.075,3.534,4.147c2.834.776,5.042,2.7,8.022,3.134.128.368.254.737.382,1.106,2.4-.034,3.629-.994,5.347-2.4-.1.493-.19.983-.286,1.475" fill="#a8a8a8"/>
      <path id="Path_1047" data-name="Path 1047" d="M729.989,189.66q-.094,1.291-.191,2.58.095-1.29.191-2.58"/>
      <path id="Path_1048" data-name="Path 1048" d="M1057.356,191.135c2.844-4.665,1.868-12.132-3.533-15.114s-12.749-.9-14.994,4.608q.765-.414,1.528-.83a5.134,5.134,0,0,0,0,3.871q1.768,2.074,3.534,4.147l7.831,3.318c-.063.245-.128.492-.191.737,2.737-.276,4.908-1.142,6.3-2.949q-.238,1.105-.478,2.212" fill="#a8a8a8"/>
      <path id="Path_1049" data-name="Path 1049" d="M1201.177,190.766c3.016-4.7,1.908-12.467-3.724-15.3-5.448-2.737-12.532-.6-14.8,4.792l1.528-.829q.094,2.119.191,4.239,1.768,1.889,3.534,3.778c2.729.791,4.874,2.693,7.831,2.949.5.566-.6.756.764,1.291a7.461,7.461,0,0,0,4.774-2.028c-.032.369-.063.737-.095,1.106" fill="#a8a8a8"/>
      <path id="Path_1050" data-name="Path 1050" d="M588.46,189.291c-.063.553-.128,1.106-.191,1.659.063-.553.128-1.106.191-1.659"/>
      <path id="Path_1051" data-name="Path 1051" d="M93.207,190.582v-2.027c-.063.676-.128,1.351-.191,2.027Z"/>
      <path id="Path_1052" data-name="Path 1052" d="M446.932,188.186q-.095,1.105-.191,2.212.094-1.105.191-2.212"/>
      <path id="Path_1053" data-name="Path 1053" d="M234.735,185.237c-.063.492-.128.982-.191,1.475.063-.493.128-.983.191-1.475"/>
      <path id="Path_1054" data-name="Path 1054" d="M376.263,182.656q-.094,1.567-.191,3.133.095-1.567.191-3.133"/>
      <path id="Path_1055" data-name="Path 1055" d="M1223.428,184.868l.478-2.12q.19-40.088.381-80.177-.142-32.761-.286-65.523-.335,1.335-.668,2.672-.094,12.165-.191,24.33.143,60.408.286,120.818"/>
      <path id="Path_1056" data-name="Path 1056" d="M517.792,178.417q-.094,1.383-.191,2.765.094-1.383.191-2.765"/>
      <path id="Path_1057" data-name="Path 1057" d="M659.32,174.915q-.094,1.383-.191,2.765.094-1.383.191-2.765"/>
      <path id="Path_1058" data-name="Path 1058" d="M93.4,160.354h-.191q.094,7.741.191,15.482Z" fill="#585858"/>
      <path id="Path_1059" data-name="Path 1059" d="M1226.77,152.8q-.094,11.336-.191,22.671.094-11.336.191-22.671" fill="#585858"/>
      <path id="Path_1060" data-name="Path 1060" d="M164.066,170.491q-.094,2.3-.191,4.608.095-2.3.191-4.608"/>
      <path id="Path_1061" data-name="Path 1061" d="M305.6,167.358q-.094,1.844-.191,3.686.095-1.844.191-3.686"/>
      <path id="Path_1062" data-name="Path 1062" d="M447.123,163.856q-.094,1.567-.191,3.133.094-1.567.191-3.133"/>
      <path id="Path_1063" data-name="Path 1063" d="M588.651,160.17q-.094,1.383-.191,2.765.094-1.383.191-2.765"/>
      <path id="Path_1064" data-name="Path 1064" d="M93.4,160.354V155.93q-.095,2.213-.191,4.424Z"/>
      <path id="Path_1065" data-name="Path 1065" d="M730.18,156.3q-.094,1.292-.191,2.58.094-1.29.191-2.58"/>
      <path id="Path_1066" data-name="Path 1066" d="M234.926,152.06q-.094,2.121-.191,4.239.095-2.119.191-4.239"/>
      <path id="Path_1067" data-name="Path 1067" d="M376.454,148.927q-.095,1.659-.191,3.318.094-1.659.191-3.318"/>
      <path id="Path_1068" data-name="Path 1068" d="M94.353,29.491q-.192,13.086-.382,26.173-.095,2.119-.191,4.238V89.025q-.094,2.211-.191,4.423V122.57q-.094,2.121-.191,4.239.094,12.074.191,24.145.381-60.73.764-121.463" fill="#585858"/>
      <path id="Path_1069" data-name="Path 1069" d="M517.983,145.425q-.094,1.383-.191,2.765.094-1.383.191-2.765"/>
      <path id="Path_1070" data-name="Path 1070" d="M659.511,141.738q-.094,1.2-.191,2.4.094-1.2.191-2.4"/>
      <path id="Path_1071" data-name="Path 1071" d="M1226.961,120.358q-.095,11.889-.191,23.777.094-11.889.191-23.777" fill="#585858"/>
      <path id="Path_1072" data-name="Path 1072" d="M164.257,137.315q-.095,2.121-.191,4.239.095-2.119.191-4.239"/>
      <path id="Path_1073" data-name="Path 1073" d="M305.786,133.075q-.095,2.213-.191,4.424.094-2.212.191-4.424"/>
      <path id="Path_1074" data-name="Path 1074" d="M447.314,130.679q-.094,1.383-.191,2.765.095-1.383.191-2.765"/>
      <path id="Path_1075" data-name="Path 1075" d="M588.842,126.624q-.094,1.383-.191,2.765.094-1.383.191-2.765"/>
      <path id="Path_1076" data-name="Path 1076" d="M93.589,122.569q-.094,2.121-.191,4.239.094-2.12.191-4.239"/>
      <path id="Path_1077" data-name="Path 1077" d="M235.117,118.7q-.095,2.027-.191,4.055.095-2.026.191-4.055"/>
      <path id="Path_1078" data-name="Path 1078" d="M376.645,115.566q-.094,1.567-.191,3.133.094-1.567.191-3.133"/>
      <path id="Path_1079" data-name="Path 1079" d="M518.174,111.695c-.063.982-.128,1.967-.191,2.949.063-.982.128-1.967.191-2.949"/>
      <path id="Path_1080" data-name="Path 1080" d="M1227.152,87.918q-.094,11.98-.191,23.961.094-11.98.191-23.961" fill="#585858"/>
      <path id="Path_1081" data-name="Path 1081" d="M659.7,108.193q-.095,1.2-.191,2.4.094-1.2.191-2.4"/>
      <path id="Path_1082" data-name="Path 1082" d="M164.448,103.954q-.095,2.119-.191,4.239.095-2.12.191-4.239"/>
      <path id="Path_1083" data-name="Path 1083" d="M305.977,99.9q-.094,2.028-.191,4.055.094-2.028.191-4.055"/>
      <path id="Path_1084" data-name="Path 1084" d="M447.505,96.95q-.095,1.475-.191,2.949.095-1.475.191-2.949"/>
      <path id="Path_1085" data-name="Path 1085" d="M589.033,93.448q-.095,1.2-.191,2.4.095-1.2.191-2.4"/>
      <path id="Path_1086" data-name="Path 1086" d="M93.78,89.024q-.094,2.212-.191,4.424.095-2.212.191-4.424"/>
      <path id="Path_1087" data-name="Path 1087" d="M235.308,85.338q-.095,2.028-.191,4.055.094-2.028.191-4.055"/>
      <path id="Path_1088" data-name="Path 1088" d="M376.836,82.389q-.094,1.475-.191,2.949.095-1.474.191-2.949"/>
      <path id="Path_1089" data-name="Path 1089" d="M518.365,78.7c-.063.8-.128,1.6-.191,2.4.063-.8.128-1.6.191-2.4"/>
      <path id="Path_1090" data-name="Path 1090" d="M1227.343,55.663q-.094,12.441-.191,24.883.094-12.442.191-24.883" fill="#585858"/>
      <path id="Path_1091" data-name="Path 1091" d="M659.893,74.832c-.063.737-.128,1.475-.191,2.212.063-.737.128-1.475.191-2.212"/>
      <path id="Path_1092" data-name="Path 1092" d="M164.639,70.777q-.095,1.935-.191,3.871.095-1.937.191-3.871"/>
      <path id="Path_1093" data-name="Path 1093" d="M306.168,66.906q-.094,1.844-.191,3.686.095-1.844.191-3.686"/>
      <path id="Path_1094" data-name="Path 1094" d="M447.7,63.773q-.095,1.383-.191,2.765.094-1.383.191-2.765"/>
      <path id="Path_1095" data-name="Path 1095" d="M589.224,60.087c-.063.737-.128,1.475-.191,2.212.063-.737.128-1.475.191-2.212"/>
      <path id="Path_1096" data-name="Path 1096" d="M93.971,55.663q-.095,2.12-.191,4.239.095-2.12.191-4.239"/>
      <path id="Path_1097" data-name="Path 1097" d="M235.5,51.608q-.094,2.119-.191,4.239.095-2.12.191-4.239"/>
      <path id="Path_1098" data-name="Path 1098" d="M377.027,48.659q-.095,1.567-.191,3.133.094-1.566.191-3.133"/>
      <path id="Path_1099" data-name="Path 1099" d="M1227.534,31.887q-.095,8.571-.191,17.141.094-8.57.191-17.141" fill="#585858"/>
      <path id="Path_1100" data-name="Path 1100" d="M518.556,45.157q-.095,1.2-.191,2.4.094-1.2.191-2.4"/>
      <path id="Path_1101" data-name="Path 1101" d="M164.83,36.863q-.095,2.12-.191,4.239.094-2.12.191-4.239"/>
      <path id="Path_1102" data-name="Path 1102" d="M306.359,33.545q-.095,1.751-.191,3.5.094-1.75.191-3.5"/>
      <path id="Path_1103" data-name="Path 1103" d="M447.887,31.887c-.063.369-.128.737-.191,1.106.063-.369.128-.737.191-1.106"/>
      <path id="Path_1104" data-name="Path 1104" d="M94.544,26.357c-.063.184-.128.369-.191.553.063-.184.128-.369.191-.553" fill="#585858"/>
      <path id="Path_1105" data-name="Path 1105" d="M377.791,25.251c-.063.246-.128.492-.191.737.063-.245.128-.491.191-.737" fill="#585858"/>
      <path id="Path_1106" data-name="Path 1106" d="M448.651,24.7c-.063.184-.128.369-.191.553.063-.184.128-.369.191-.553" fill="#585858"/>
      <path id="Path_1107" data-name="Path 1107" d="M944.1,23.961c-.063.123-.128.246-.191.369.063-.123.128-.246.191-.369" fill="#979797"/>
      <path id="Path_1108" data-name="Path 1108" d="M1156.675,23.224c-.128.369-.254.737-.382,1.106.128-.369.254-.737.382-1.106" fill="#979797"/>
      <path id="Path_1109" data-name="Path 1109" d="M1014.955,23.777c-.063.123-.128.246-.191.369.063-.123.128-.246.191-.369" fill="#979797"/>
      <path id="Path_1110" data-name="Path 1110" d="M1085.815,23.408c-.063.184-.128.369-.191.553.063-.184.128-.369.191-.553" fill="#979797"/>
      <path id="Path_1111" data-name="Path 1111" d="M873.427,23.408c-.063.123-.128.246-.191.369.063-.123.128-.246.191-.369" fill="#979797"/>
      <path id="Path_1112" data-name="Path 1112" d="M1018.2,13.271h-1.337q-.381,2.857-.764,5.714l.573,2.4c2.112,2.651,2.193-2.151,2.96-3.318H1084a5.244,5.244,0,0,0,1.624-3.225c-.033-.215-.063-.43-.1-.645l-5.921-.185-60.736.185-.669-.922" fill="#7b7e7f"/>
      <path id="Path_1113" data-name="Path 1113" d="M1089.062,13.271h-.764l-.573.184q-.381,2.673-.764,5.345l.573,2.765c1.923,2.279,2.217-2.425,2.769-3.5h64.557c1.139-.687,1.244-2.117,1.624-3.41-.033-.153-.063-.307-.1-.46l-6.3-.185-58.254.369c-.943-.589-2.6.482-2.769-1.106" fill="#7b7e7f"/>
      <path id="Path_1114" data-name="Path 1114" d="M1159.54,13.271h-.573l-.382.184h-.191q-.381,2.949-.764,5.9l.573,2.212c1.983,2.381,2.309-2.325,2.769-3.5l60.833-.092q-1.2-1.889-2.388-3.778l-56.344.184c-1.232-.611-2.907.523-3.533-1.106" fill="#7b7e7f"/>
      <path id="Path_1115" data-name="Path 1115" d="M735.528,13.271l-.955-.369-.764.369q-.381,2.3-.764,4.608.381,1.75.764,3.5c2.1,2.223,2.24-2.407,2.96-3.5l63.029.184c1.54-.3,1.916-1.1,2.388-2.488-.033-.522-.063-1.045-.1-1.567l-66.085.185-.477-.922" fill="#7b7e7f"/>
      <path id="Path_1116" data-name="Path 1116" d="M806.2,13.271l-.764-.184-.764.184q-.381,2.3-.764,4.608l.573,3.318c2.042,2.778,2.25-1.954,2.961-3.134h63.6a3.415,3.415,0,0,0,2.006-2.672c-.033-.461-.063-.922-.1-1.383l-66.084.185-.669-.922" fill="#7b7e7f"/>
      <path id="Path_1117" data-name="Path 1117" d="M876.865,13.271l-.764-.184-.764.184q-.381,2.58-.764,5.161l.573,2.58c1.912,3.123,2.418-1.5,2.96-2.949H942.09c1.207-.58,1.433-1.536,1.815-2.857.613-2.123-4.408-.347-5.444-1.2l-60.928.185-.668-.922" fill="#7b7e7f"/>
      <path id="Path_1118" data-name="Path 1118" d="M947.534,13.271l-.764-.184-.573.184q-.381,2.489-.765,4.977.288,1.566.573,3.133c1.823,2.4,2.4-2.082,2.77-3.318h64.175c1.415-.741,1.378-1.677,1.815-3.041.086-1.875-4.57-.164-5.827-1.014l-60.735.185-.669-.922" fill="#7b7e7f"/>
      <path id="Path_1119" data-name="Path 1119" d="M381.993,13.086l-.764-.184h-1.146q-.381,1.843-.764,3.686.381,2.213.764,4.424c1.925,2.5,2.351-1.881,2.961-3.134h63.6l1.433-2.488c.79-2.684-3.406-.676-4.68-1.567l-60.927.185q-.238-.462-.478-.922" fill="#7b7e7f"/>
      <path id="Path_1120" data-name="Path 1120" d="M452.853,13.271,451.9,12.9h-1.146l-.573,3.687.573,4.239c1.816,2.984,2.523-1.608,2.96-2.949h63.793l1.433-2.673c.678-2.477-3.916-.434-4.871-1.382l-60.928.184c-.1-.245-.191-.491-.286-.737" fill="#7b7e7f"/>
      <path id="Path_1121" data-name="Path 1121" d="M523.521,13.271l-.573-.369h-.19l-1.146.185-.765,3.87.765,4.24c2.016,2.357,2.222-2.241,2.959-3.318h63.794a5.654,5.654,0,0,0,1.432-2.857c.321-2.3-3.925-.014-5.062-1.2l-59.209.369c-.656-.577-2.02.415-2.005-.922" fill="#7b7e7f"/>
      <path id="Path_1122" data-name="Path 1122" d="M594.19,13.271l-.764-.184H592.28q-.381,2.12-.764,4.239.381,1.844.764,3.686c1.942,2.748,2.382-1.907,2.96-3.133h63.793a4.95,4.95,0,0,0,1.624-3.041c-.033-.277-.063-.553-.1-.83l-5.348-.184-59.782.369-1.241-.922" fill="#7b7e7f"/>
      <path id="Path_1123" data-name="Path 1123" d="M664.859,13.271l-.764-.184h-.955q-.381,2.026-.764,4.055l.573,3.87c2,2.817,2.485-1.785,2.96-3.133l62.265.184c2.584-.02,3.005-1.592,3.343-3.778l-6.208-.461-59.782.369-.668-.922" fill="#7b7e7f"/>
      <path id="Path_1124" data-name="Path 1124" d="M99.128,12.9l-.764-.184-1.337-.185-.573,3.134q.479,2.856.955,5.713c2.246,1.284,1.78-3.122,3.151-3.686l61.883.185c1.381-.33,1.943-1.314,2.388-2.673.878-2.685-3.293-.324-4.489-1.567l-60.737.369c-.158-.369-.318-.737-.477-1.106" fill="#7b7e7f"/>
      <path id="Path_1125" data-name="Path 1125" d="M169.8,12.9l-.764-.184c-.237.806-.766-.238-1.337,0l-.573,3.317q.479,2.582.955,5.161c1.8,1.892,2.239-2.3,2.769-3.317h62.647a3.823,3.823,0,0,0,2.2-2.857c.72-2.344-3.566-.126-4.68-1.383l-60.355.369L169.8,12.9" fill="#7b7e7f"/>
      <path id="Path_1126" data-name="Path 1126" d="M240.465,12.9l-.764-.184c-.4.92-.607-.12-1.146,0l-.573,3.133q.381,2.673.764,5.345c1.826,1.874,2.368-2.234,2.769-3.317h63.22a4.861,4.861,0,0,0,1.815-3.226c-.033-.276-.063-.553-.1-.829l-65.321.184-.668-1.106" fill="#7b7e7f"/>
      <path id="Path_1127" data-name="Path 1127" d="M311.325,13.086l-.764-.369c-.2.7-.987.3-1.146-.184l-.191.184-.573,3.5q.381,2.4.764,4.793c1.881,2.391,2.286-2,2.96-3.134h63.411l1.433-2.3c.813-2.918-2.888-.865-4.3-1.751l-61.119.185c-.158-.308-.318-.615-.477-.922" fill="#7b7e7f"/>
      <path id="Path_1128" data-name="Path 1128" d="M32.088,13.086l-.764-.369c-.6-.182-1.511-.59-1.528-1.29l-.382-.184-1.146.921q-.382,3.042-.764,6.083l1.433,2.58A6.754,6.754,0,0,0,31.8,17.694l59.4.184c1.721-.042,2.2-1.245,2.77-2.488.729-3.12-2.88-.444-4.3-1.751l-55.58.369c-.547-.645-2.391.53-2-.922" fill="#7b7e7f"/>
      <path id="Path_1129" data-name="Path 1129" d="M1227.916,14.376l-4.966-2.211-6.971-.922-336.154-.184-569.742-.185c-.472.583.273.71-.955.922.416-1.178.317-.376-.764-.922h-68.95l-.573.738-1.146-.738H170.273l-2.483.738c-.063-.246-.128-.492-.191-.738H98.268l-1.337.738c-.128-.246-.254-.492-.382-.738l-63.793.185c-.924-.479-1.624-.206-2.006-1.383l4.775.093V9.4h-.764l-.573-.184L29.6,8.663q-.094,1.29-.191,2.58l.382.184c.7.4,1.466.384,1.528,1.291l.764.368.287-.368,63.029.368,1.623-.737c-.17-.923,1.211.237,1.337.369l.764.184,67.135.184,1.433-.553c.254-.827,1.073-.075,1.337.185l.764.184,67.708.184,1.051-.553c-.13-.914,1.033.021,1.145.185l.764.184,68.759-.184.191-.185c-.086-.966.816.239,1.146.185l.764.368,68.759-.368c-.281-1.116,1.012-.22,1.146.184l.764.184,68.758-.184c.155-.838.829-.524,1.146,0l.955.369,68.759-.369c-.183-1.17.76-.159,1.146,0h.191l.573.369L592.28,12.9c.2-.705.987-.3,1.146.184l.764.185,68.949-.185c-.213-1,.8-.5.955,0l.764.185,68.95-.185c.174-.454.432-.909.764-.184l.955.369,69.141-.185c-.168-1.012.588-.428.764,0l.764.185h69.14c.174-.455.432-.91.764-.185l.764.185H946.2c-.164-.708.382-.724.573-.185l.764.185h69.523c-.142-.641.533-.349.573,0h70.095c-.139-.641.533-.349.573,0h.765l69.331.184h.191l.382-.184h60.642l8.308,1.105M379.987,11.8c-.523-.785,1.032-.134,0,0m70.669,0c-.615-.847,1.608-.061,0,0" fill="#243845"/>
      <path id="Path_1130" data-name="Path 1130" d="M1017.629,13.271c-.04-.349-.714-.64-.573,0Z" fill="#7b8085"/>
      <path id="Path_1131" data-name="Path 1131" d="M1088.3,13.271c-.04-.349-.712-.641-.573,0v.184l.573-.184" fill="#7b8085"/>
      <path id="Path_1132" data-name="Path 1132" d="M1158.967,13.271l-.382.184.382-.184" fill="#7b8085"/>
      <path id="Path_1133" data-name="Path 1133" d="M522.758,12.9h0c-.386-.159-1.329-1.17-1.146,0v.184l1.146-.184" fill="#7b8085"/>
      <path id="Path_1134" data-name="Path 1134" d="M593.426,13.086c-.159-.484-.942-.889-1.146-.184v.184Z" fill="#7b8085"/>
      <path id="Path_1135" data-name="Path 1135" d="M664.095,13.086c-.151-.5-1.169-1-.955,0Z" fill="#7b8085"/>
      <path id="Path_1136" data-name="Path 1136" d="M734.573,12.9c-.332-.725-.591-.269-.764.184v.185l.764-.369" fill="#7b8085"/>
      <path id="Path_1137" data-name="Path 1137" d="M805.432,13.086c-.176-.428-.932-1.013-.764,0v.184l.764-.184" fill="#7b8085"/>
      <path id="Path_1138" data-name="Path 1138" d="M876.1,13.086c-.332-.725-.59-.27-.764.184l.764-.184" fill="#7b8085"/>
      <path id="Path_1139" data-name="Path 1139" d="M946.769,13.086c-.191-.539-.737-.523-.573.184l.573-.184" fill="#7b8085"/>
      <path id="Path_1140" data-name="Path 1140" d="M169.032,12.718c-.264-.26-1.083-1.011-1.337-.184v.184c.571-.238,1.1.806,1.337,0" fill="#7b8085"/>
      <path id="Path_1141" data-name="Path 1141" d="M239.7,12.718c-.113-.164-1.276-1.1-1.146-.184v.184c.539-.119.747.92,1.146,0" fill="#7b8085"/>
      <path id="Path_1142" data-name="Path 1142" d="M310.56,12.718c-.33.055-1.232-1.151-1.146-.184.159.484.942.889,1.146.184" fill="#7b8085"/>
      <path id="Path_1143" data-name="Path 1143" d="M381.229,12.9c-.134-.4-1.427-1.3-1.146-.184V12.9Z" fill="#7b8085"/>
      <path id="Path_1144" data-name="Path 1144" d="M451.9,12.9c-.317-.524-.991-.838-1.146,0Z" fill="#7b8085"/>
      <path id="Path_1145" data-name="Path 1145" d="M98.364,12.718c-.126-.132-1.507-1.291-1.337-.369v.185l1.337.184" fill="#7b8085"/>
      <path id="Path_1146" data-name="Path 1146" d="M31.324,12.718c-.062-.906-.825-.892-1.528-1.29.017.7.925,1.108,1.528,1.29" fill="#7b8085"/>
      <path id="Path_1147" data-name="Path 1147" d="M1222.95,12.165l-10.6-1.843L39.727,9.953l-2.483-.184-.382-.184h-.955l-.382.184-4.774-.092c.381,1.177,1.081.9,2.005,1.382l63.793-.184.382.737,1.337-.737H167.6c.063.246.128.491.191.737l2.483-.737H237.7l1.146.737.573-.737h68.95c1.081.546,1.18-.256.764.921,1.228-.211.483-.339.955-.921l569.742.184,336.154.184,6.971.922" fill="#253f52"/>
      <path id="Path_1148" data-name="Path 1148" d="M29.414,11.243q.1-1.29.191-2.58c-1.053.331-1.488,2.646-1.337,3.5l1.146-.922" fill="#232f34"/>
      <path id="Path_1149" data-name="Path 1149" d="M37.245,9.769l-.382-.184.382.184" fill="#232f34"/>
      <path id="Path_1150" data-name="Path 1150" d="M35.908,9.585,35.526,9.4v.367l.382-.183" fill="#232f34"/>
      <path id="Path_1151" data-name="Path 1151" d="M34.762,9.4l-.573-.184.573.184" fill="#232f34"/>
      <path id="Path_1152" data-name="Path 1152" d="M25.021.184h-.955c-.316.544,1.271.544.955,0" fill="#fefefe"/>
      <path id="Path_1153" data-name="Path 1153" d="M842.964,116.178h-8.022c2.113.973,5.929,1.115,8.022,0" fill="#f3f3f3"/>
      <path id="Path_1154" data-name="Path 1154" d="M834.942,116.178h8.022l2.674-1.475q-1.863.369-3.725.738c-3.05-.022-6.226.247-8.786-.922l-.668.369,2.483,1.29" fill="#e0e0e0"/>
      <path id="Path_1155" data-name="Path 1155" d="M845.638,114.7q1.241-1.383,2.483-2.765l-.478-.368c-1.371,1.15-2.221.612-4.2.737-.128-.308-.255-.614-.382-.922-3.853.868-4.892-2.237-8.213-2.58-2.606-2.169-5.094-4.626-3.534-8.2l-1.719.829c-2.018,4.158-1.283,10.527,2.865,13.455l.669-.368c2.559,1.168,5.735.9,8.786.921l3.724-.737" fill="#cacaca"/>
      <path id="Path_1156" data-name="Path 1156" d="M848.12,111.938c2.592-4.455,1.888-11.686-3.151-14.745-5.383-3.268-13.042-1.316-15.375,4.239l1.719-.829c-1.56,3.575.928,6.032,3.533,8.2,3.321.342,4.36,3.448,8.214,2.58.128.308.253.614.381.922,1.981-.126,2.83.412,4.2-.738l.477.369" fill="#a8a8a8"/>
    </g>
  </g>
</svg>
