<?xml version="1.0" encoding="UTF-8"?>
<svg id="Ebene_2" data-name="Ebene 2" xmlns="http://www.w3.org/2000/svg" viewBox="0 0 743.62 227.54">
  <defs>
    <style>
      .cls-1 {
        fill: #fff;
      }

      .cls-2 {
        fill: #577d96;
      }

      .cls-3 {
        fill: #54827d;
      }
    </style>
  </defs>
  <g id="Design_Idea" data-name="Design Idea">
    <g>
      <g>
        <path class="cls-3" d="M321.65,68.34l-1-17.99,43-1.01c-1.16,20.58,1.89,42.24-18.34,54.17-17.85,10.53-44.72,9.24-61.61-2.73-23.88-16.94-28.25-51.57-14.58-76.45,18.57-33.8,73.47-31.03,90.51,3l-16.98,8.01c-9.27-16.25-29.63-21.56-46.55-13.03-14.58,7.35-16.92,26.82-15.46,41.52,3.56,35.95,60.64,44.09,64.99,4.51h-24Z"/>
        <path class="cls-3" d="M614.65,109.34l-19,.99.99-9.99c-15.25,15.8-53.66,15.39-52.39-13.14,1.1-24.9,35.93-26.67,54.4-24.87,2.25-22.29-30.63-24.7-36.01-5.99l-14.98-4.01c5.48-26.96,53.67-30.23,63.79-5.28,4.34,10.68,1.83,31.54,2.17,43.83.16,5.79,1.97,12.3,1.05,18.46ZM598.65,74.34c-9.81-.11-44.87-.14-37.25,17.75,5.8,13.62,41.17-1.39,37.25-17.75Z"/>
        <path class="cls-3" d="M391.65,31.34v50.5c0,.76,2.17,6.12,2.79,7.21,5.94,10.38,21.94,7.82,28.04-1.38,2.29-3.46,5.17-12.89,5.17-16.83v-37.5l16-1,1,77h-15.5c-.21,0-1.13,1.5-1.49,1l-.02-11c-12.27,16.32-44.4,15.31-50.71-5.78-.7-2.33-2.28-9.72-2.28-11.72v-49.5l17-1Z"/>
        <path class="cls-2" d="M276.65,190.34l1.01,31-14.01,1-1.06-89.39c.24-.9,3.67-1.3,4.68-1.48,28.33-5.1,62.03-1.7,56.14,36.12-1.55,9.95-14.04,22.74-24.26,22.74h-22.5ZM277.65,177.34h15.5c2.18,0,10.3-4.11,12.05-5.95,6.43-6.78,5.24-19.32-2.05-25.05-.71-.56-4.71-3-5-3h-20.5c-.78,11.33-1.89,22.72,0,34Z"/>
        <path class="cls-3" d="M514.65,10.34v22h21l1,15h-22c.4,8.79-.52,17.76-.04,26.54.2,3.59.73,11.41,1.52,14.48,2.59,10.13,16.15,5.42,22.52,1.97l.9,15.9c-10.77,3.06-27.89,8.45-35.73-2.57-1.61-2.26-5.17-11.41-5.17-13.83v-42.5h-13s1-15.01,1-15.01h12.01c.78-.79-3.07-18.46-.07-20.56l16.06-1.44Z"/>
        <path class="cls-2" d="M580.43,155.62c48.98-5.94,50.33,73.65-2.83,65.27-33.45-5.28-33.48-60.86,2.83-65.27ZM582.4,167.57c-22.09,3.13-21.74,37.99-1.01,41.53,30.87,5.27,29.97-45.62,1.01-41.53Z"/>
        <path class="cls-2" d="M354.42,155.62c47.71-5.21,50.17,72.7-3.02,65.46-33.28-4.53-34.41-61.37,3.02-65.46ZM356.42,167.59c-25.14,3.14-22.23,45.37,5.65,41.65,23.51-3.13,19.84-44.84-5.65-41.65Z"/>
        <path class="cls-2" d="M683.65,220.34h-13v-38.5c0-3.84-2.64-9.77-5.95-12.06-7.97-5.5-19.83-.67-23.28,7.83-.31.77-1.78,5.88-1.78,6.22v36.5h-13.01s-.05-62.55-.05-62.55l12.06-.45v8c11.59-14.55,40.37-12.88,43.76,7.74.39,2.36,1.24,9.83,1.24,11.76v35.5Z"/>
        <path class="cls-2" d="M444.61,171.3l-11.95,3.04c-.4-12.77-27.37-7.83-21.06,2.28,2.21,3.54,20.86,6.34,26.28,8.98,8.55,4.16,11.02,10.95,9.68,20.14-3.12,21.24-51.87,22.05-49.87-3.37l10.31-1.93c2.53,2.2,2.67,5.24,5.69,7.35,7.95,5.57,26.37,1.57,21.46-8.47-3.55-7.27-33.53-4.49-36.26-20.73-4.57-27.23,42-32.36,45.72-7.3Z"/>
        <path class="cls-2" d="M740.65,171.33l-11.3,2.06c-3.33-11.18-27.13-7.11-22.21,2.96,3.06,6.27,29.72,3.7,34.98,18.02,10.63,28.9-38.34,36.12-47.54,15.54-.5-1.11-2.23-6.36-.97-7.09l10.45-2.33c2.6,2.38,2.8,5.77,6.23,7.71,7.66,4.35,24.25,2.51,20.2-9.21-2.1-6.09-33.54-5.25-35.78-19.21-4.59-28.58,41.07-34.01,45.94-8.45Z"/>
        <path class="cls-3" d="M641.15,32.34c.4,0,.92-1.97,2.47.48l-.97,7.01,1.99.5c4.56-8.82,16.75-10.7,26.02-10l1,17.01c-8.1.34-19.58.5-24.21,8.29-6.95,11.69-.75,38.19-2.73,52.13l-17.06,1.58-.99-77.01c4.82-.07,9.67.1,14.5,0Z"/>
        <path class="cls-2" d="M501.65,139.34v18h17l1,12h-18c.43,8.4-.57,17.17-.04,25.54,1.01,15.93,3.86,15.32,19.04,11.46l.89,10.36c-5.92,4.55-22.09,5.8-27.54.3-2.33-2.35-5.34-11.07-5.34-14.16v-33.5h-10.01s-.01-11.42-.01-11.42l10.02-.58v-17l13-1Z"/>
        <path class="cls-3" d="M459.65,109.34l-1.06-76.42,17.06-1.58,1.01,77.46c-.05.34-2.15.54-2.51.54h-14.5Z"/>
        <path class="cls-2" d="M470.65,156.34v64h-13.01c-.39-16.14.52-32.39.05-48.54-.1-3.27-3.11-14.1.6-15.32l12.36-.14Z"/>
        <path class="cls-2" d="M543.65,156.34v64h-13v-61.5c0-.25-.81-.59-.77-1l1.39-1.38,12.38-.12Z"/>
        <path class="cls-3" d="M458.96,3.64c8.32-9.43,24.89,1.72,16.71,13.21-7.5,10.54-26.74-1.85-16.71-13.21Z"/>
        <path class="cls-2" d="M543.39,132.59c6.86,7.44-3.96,18.72-11.71,12.21-8.82-7.41,4.55-19.97,11.71-12.21Z"/>
        <path class="cls-2" d="M462.38,130.49c13.73-2.48,11.8,21.23-2.49,15.09-6.73-2.9-4.46-13.83,2.49-15.09Z"/>
      </g>
      <g>
        <path class="cls-2" d="M228.34,113.98c-.2,63.93-51.02,113.69-115.96,113.56C49.83,227.4-.3,176.4,0,113.21.3,50.64,51.66-.23,114.29,0c62.07.23,114.25,52.37,114.05,113.98Z"/>
        <path class="cls-1" d="M116.39,128.36c-1.51-1.44-2.27-3.04-2.27-4.82,0-1.92.76-3.56,2.27-4.93,1.51-1.36,3.34-2.05,5.48-2.05s3.99.68,5.53,2.05c1.55,1.37,2.32,3.01,2.32,4.93,0,1.77-.77,3.38-2.32,4.82-1.55,1.44-3.39,2.16-5.53,2.16-2.14,0-3.97-.72-5.48-2.16Z"/>
        <path class="cls-1" d="M47.25,129c-1.51-1.44-2.27-3.04-2.27-4.82,0-1.92.76-3.56,2.27-4.93,1.51-1.36,3.34-2.05,5.48-2.05s3.99.68,5.53,2.05c1.55,1.37,2.32,3.01,2.32,4.93s-.77,3.38-2.32,4.82c-1.55,1.44-3.39,2.16-5.53,2.16s-3.97-.72-5.48-2.16Z"/>
        <path class="cls-1" d="M151.01,128.36c-1.51-1.44-2.27-3.04-2.27-4.82s.76-3.56,2.27-4.93c1.51-1.36,3.34-2.05,5.48-2.05s3.99.68,5.53,2.05c1.55,1.37,2.32,3.01,2.32,4.93,0,1.77-.77,3.38-2.32,4.82-1.55,1.44-3.39,2.16-5.53,2.16-2.14,0-3.97-.72-5.48-2.16Z"/>
        <path class="cls-1" d="M80.39,149.97c-1.51-1.44-2.27-3.04-2.27-4.82,0-1.92.76-3.56,2.27-4.93,1.51-1.36,3.34-2.05,5.48-2.05,2.14,0,3.99.68,5.53,2.05,1.55,1.37,2.32,3.01,2.32,4.93,0,1.77-.77,3.38-2.32,4.82-1.55,1.44-3.39,2.16-5.53,2.16s-3.97-.72-5.48-2.16Z"/>
        <path class="cls-1" d="M80.39,170.3c-1.51-1.44-2.27-3.04-2.27-4.82,0-1.92.76-3.56,2.27-4.93,1.51-1.36,3.34-2.05,5.48-2.05s3.99.68,5.53,2.05c1.55,1.37,2.32,3.01,2.32,4.93s-.77,3.38-2.32,4.82c-1.55,1.44-3.39,2.16-5.53,2.16s-3.97-.72-5.48-2.16Z"/>
        <path class="cls-1" d="M47.25,149.97c-1.51-1.44-2.27-3.04-2.27-4.82,0-1.92.76-3.56,2.27-4.93,1.51-1.36,3.34-2.05,5.48-2.05,2.14,0,3.99.68,5.53,2.05,1.55,1.37,2.32,3.01,2.32,4.93,0,1.77-.77,3.38-2.32,4.82-1.55,1.44-3.39,2.16-5.53,2.16s-3.97-.72-5.48-2.16Z"/>
        <path class="cls-1" d="M47.25,170.3c-1.51-1.44-2.27-3.04-2.27-4.82s.76-3.56,2.27-4.93c1.51-1.36,3.34-2.05,5.48-2.05,2.14,0,3.99.68,5.53,2.05,1.55,1.37,2.32,3.01,2.32,4.93s-.77,3.38-2.32,4.82c-1.55,1.44-3.39,2.16-5.53,2.16s-3.97-.72-5.48-2.16Z"/>
        <path class="cls-1" d="M151.01,149.33c-1.51-1.44-2.27-3.04-2.27-4.82,0-1.92.76-3.56,2.27-4.93,1.51-1.36,3.34-2.05,5.48-2.05,2.14,0,3.99.68,5.53,2.05,1.55,1.37,2.32,3.01,2.32,4.93,0,1.77-.77,3.38-2.32,4.82-1.55,1.44-3.39,2.16-5.53,2.16s-3.97-.72-5.48-2.16Z"/>
        <path class="cls-1" d="M151.01,169.66c-1.51-1.44-2.27-3.04-2.27-4.82,0-1.92.76-3.56,2.27-4.93,1.51-1.36,3.34-2.05,5.48-2.05s3.99.68,5.53,2.05c1.55,1.37,2.32,3.01,2.32,4.93,0,1.77-.77,3.38-2.32,4.82-1.55,1.44-3.39,2.16-5.53,2.16-2.14,0-3.97-.72-5.48-2.16Z"/>
        <path class="cls-1" d="M80.78,66.08c-1.51-1.44-2.27-3.04-2.27-4.82,0-1.92.76-3.56,2.27-4.93,1.51-1.36,3.34-2.05,5.48-2.05s3.99.68,5.53,2.05c1.55,1.37,2.32,3.01,2.32,4.93,0,1.77-.77,3.38-2.32,4.82-1.55,1.44-3.39,2.16-5.53,2.16s-3.97-.72-5.48-2.16Z"/>
        <path class="cls-1" d="M177.97,86.23c-1.51-1.44-2.27-3.04-2.27-4.82,0-1.92.76-3.56,2.27-4.93,1.51-1.36,3.34-2.05,5.48-2.05s3.99.68,5.53,2.05c1.55,1.37,2.32,3.01,2.32,4.93,0,1.77-.77,3.38-2.32,4.82-1.55,1.44-3.39,2.16-5.53,2.16-2.14,0-3.97-.72-5.48-2.16Z"/>
        <path class="cls-1" d="M151.06,65.44c-1.51-1.44-2.27-3.04-2.27-4.82,0-1.92.76-3.56,2.27-4.93,1.51-1.36,3.34-2.05,5.48-2.05s3.99.68,5.53,2.05c1.55,1.37,2.32,3.01,2.32,4.93,0,1.77-.77,3.38-2.32,4.82-1.55,1.44-3.39,2.16-5.53,2.16-2.14,0-3.97-.72-5.48-2.16Z"/>
        <path class="cls-1" d="M116.44,107.51c-1.51-1.44-2.27-3.04-2.27-4.82,0-1.92.76-3.56,2.27-4.93,1.51-1.36,3.34-2.05,5.48-2.05,2.14,0,3.99.68,5.53,2.05,1.55,1.37,2.32,3.01,2.32,4.93,0,1.77-.77,3.38-2.32,4.82-1.55,1.44-3.39,2.16-5.53,2.16s-3.97-.72-5.48-2.16Z"/>
        <path class="cls-1" d="M80.44,87.05c-1.51-1.44-2.27-3.04-2.27-4.82,0-1.92.76-3.56,2.27-4.93,1.51-1.36,3.34-2.05,5.48-2.05s3.99.68,5.53,2.05c1.55,1.37,2.32,3.01,2.32,4.93,0,1.77-.77,3.38-2.32,4.82-1.55,1.44-3.39,2.16-5.53,2.16s-3.97-.72-5.48-2.16Z"/>
        <path class="cls-1" d="M47.3,107.38c-1.51-1.44-2.27-3.04-2.27-4.82,0-1.92.76-3.56,2.27-4.93,1.51-1.36,3.34-2.05,5.48-2.05s3.99.68,5.53,2.05c1.55,1.37,2.32,3.01,2.32,4.93,0,1.77-.77,3.38-2.32,4.82-1.55,1.44-3.39,2.16-5.53,2.16-2.14,0-3.97-.72-5.48-2.16Z"/>
        <path class="cls-1" d="M151.06,86.41c-1.51-1.44-2.27-3.04-2.27-4.82,0-1.92.76-3.56,2.27-4.93,1.51-1.36,3.34-2.05,5.48-2.05s3.99.68,5.53,2.05c1.55,1.37,2.32,3.01,2.32,4.93,0,1.77-.77,3.38-2.32,4.82-1.55,1.44-3.39,2.16-5.53,2.16-2.14,0-3.97-.72-5.48-2.16Z"/>
        <path class="cls-1" d="M151.06,107.51c-1.51-1.44-2.27-3.04-2.27-4.82s.76-3.56,2.27-4.93c1.51-1.36,3.34-2.05,5.48-2.05s3.99.68,5.53,2.05c1.55,1.37,2.32,3.01,2.32,4.93s-.77,3.38-2.32,4.82c-1.55,1.44-3.39,2.16-5.53,2.16s-3.97-.72-5.48-2.16Z"/>
      </g>
    </g>
  </g>
</svg>