<?xml version="1.0" encoding="UTF-8"?>
<svg width="24px" height="24px" viewBox="0 0 24 24" version="1.1" xmlns="http://www.w3.org/2000/svg">
    <g stroke="none" stroke-width="1" fill="none" fill-rule="evenodd">
        <g transform="translate(4.000000, 2.000000)" fill="#4466CC" fill-rule="nonzero">
            <path d="M8,0 C8.55228475,0 9,0.44771525 9,1 L9,6 L8,6 C7.44771525,6 7,5.55228475 7,5 L7,2 L2,2 L2,10 L5,10 C5.55228475,10 6,10.4477153 6,11 L6,12 L1,12 C0.44771525,12 0,11.5522847 0,11 L0,1 C0,0.44771525 0.44771525,0 1,0 L8,0 Z" opacity="0.8"/>
            <path d="M13.2928932,3.29289322 C13.6834175,2.90236893 14.3165825,2.90236893 14.7071068,3.29289322 C15.0976311,3.68341751 15.0976311,4.31658249 14.7071068,4.70710678 L10.7071068,8.70710678 C10.3165825,9.09763107 9.68341751,9.09763107 9.29289322,8.70710678 L7.29289322,6.70710678 C6.90236893,6.31658249 6.90236893,5.68341751 7.29289322,5.29289322 C7.68341751,4.90236893 8.31658249,4.90236893 8.70710678,5.29289322 L10,6.58578644 L13.2928932,3.29289322 Z" opacity="0.9"/>
            <path d="M11,13 C11.5522847,13 12,13.4477153 12,14 L12,19 C12,19.5522847 11.5522847,20 11,20 L1,20 C0.44771525,20 0,19.5522847 0,19 L0,14 C0,13.4477153 0.44771525,13 1,13 L11,13 Z M10,15 L2,15 L2,18 L10,18 L10,15 Z" opacity="0.8"/>
        </g>
    </g>
</svg>
