<svg xmlns="http://www.w3.org/2000/svg" xmlns:xlink="http://www.w3.org/1999/xlink" width="17.851" height="17.64" viewBox="0 0 17.851 17.64">
  <defs>
    <clipPath id="clip-path">
      <rect id="rectangle_28" data-name="rectangle 28" width="17.851" height="17.64" transform="translate(0 0)" fill="#FF877A"/>
    </clipPath>
  </defs>
  <g id="group_41" data-name="group 41" transform="translate(0 0)">
    <g id="group_39" data-name="group 39" transform="translate(0 0)" clip-path="url(#clip-path)">
      <path id="path_168" data-name="path 168" d="M17.336,14.987a1.648,1.648,0,0,1,.514,1.157,1.4,1.4,0,0,1-.38,1.08,1.377,1.377,0,0,1-1.091.412,1.7,1.7,0,0,1-1.148-.514c-.28-.275-4.912-4.841-6.287-6.2L2.638,17.143a1.648,1.648,0,0,1-1.165.5A1.4,1.4,0,0,1,.4,17.245a1.376,1.376,0,0,1-.4-1.1,1.7,1.7,0,0,1,.53-1.141c.226-.224,3.982-3.926,6.276-6.187C4.515,6.558.759,2.856.533,2.631A1.7,1.7,0,0,1,0,1.49,1.376,1.376,0,0,1,.4.394,1.4,1.4,0,0,1,1.474,0,1.648,1.648,0,0,1,2.638.5L8.945,6.713C10.319,5.357,14.951.79,15.231.515A1.7,1.7,0,0,1,16.38,0,1.377,1.377,0,0,1,17.47.414a1.4,1.4,0,0,1,.38,1.08,1.648,1.648,0,0,1-.514,1.157L11.081,8.82Z" transform="translate(0 0)" fill="#FF877A"/>
    </g>
  </g>
</svg>
