<svg xmlns="http://www.w3.org/2000/svg" xmlns:xlink="http://www.w3.org/1999/xlink" width="19.476" height="19.558" viewBox="0 0 19.476 19.558">
  <defs>
    <clipPath id="clip-path">
      <rect id="rectangle_15" data-name="rectangle 15" width="19.476" height="19.558" fill="#3d7876"/>
    </clipPath>
  </defs>
  <g id="group_28" data-name="group 28" transform="translate(0 0)">
    <g id="group_27" data-name="group 27" transform="translate(0 0)" clip-path="url(#clip-path)">
      <path id="path_59" data-name="path 59" d="M18.329,13.552a3.747,3.747,0,0,1,1.146,2.637,3.184,3.184,0,0,1-.879,2.444,3.13,3.13,0,0,1-2.485.92,3.868,3.868,0,0,1-2.6-1.187L9.736,14.591C7.728,16.6,6.2,18.136,5.966,18.366a3.868,3.868,0,0,1-2.6,1.187,3.13,3.13,0,0,1-2.485-.92A3.184,3.184,0,0,1,0,16.189a3.747,3.747,0,0,1,1.146-2.637L4.922,9.778C3.551,8.41,2.232,7.092,1.148,6.007c-.049-.053-.094-.1-.136-.14A3.77,3.77,0,0,1,0,3.37,3.179,3.179,0,0,1,.864.943L.9.906a3.119,3.119,0,0,1,2.464-.9,3.844,3.844,0,0,1,2.6,1.183L9.74,4.964l3.771-3.775a3.844,3.844,0,0,1,2.6-1.183,3.119,3.119,0,0,1,2.464.9l.037.037a3.179,3.179,0,0,1,.863,2.427,3.77,3.77,0,0,1-1.01,2.5c-.041.041-.086.086-.136.14-1.084,1.084-2.4,2.4-3.775,3.771Z" transform="translate(0 0)" fill="#3d7876"/>
    </g>
  </g>
</svg>