<svg xmlns="http://www.w3.org/2000/svg" xmlns:xlink="http://www.w3.org/1999/xlink" width="1430.179" height="298.807" viewBox="0 0 1430.179 298.807">
  <defs>
    <clipPath id="clip-path">
      <rect id="Rechteck_21" data-name="Rechteck 21" width="1430.178" height="298.807" fill="none"/>
    </clipPath>
  </defs>
  <g id="fretboard_1400" transform="translate(0)">
    <rect id="Rechteck_19" data-name="Rechteck 19" width="1401.11" height="278.478" transform="translate(28.497 2.199)" fill="#1d262a"/>
    <path id="path_87" data-name="Pfad 87" d="M1429.607,280.674l-6.6,12.367H24.925l3.567-12.367Z" fill="#0e1416"/>
    <rect id="Rechteck_20" data-name="Rechteck 20" width="23.33" height="280.677" transform="translate(5.167)" fill="#d9dada"/>
    <path id="path_88" data-name="Pfad 88" d="M5.167,280.677,0,298.807H23.256l5.241-18.13Z" fill="#8e8e8e"/>
    <path id="path_89" data-name="Pfad 89" d="M111.429,2.195v278.53l-3.847,12.316h-1.189l3.859-12.367.011-.042V2.195Z" fill="#7a7a7a"/>
    <path id="path_90" data-name="Pfad 90" d="M605.169,2.195V280.717l-3.555,12.324h-1.2l3.579-12.367.011-.042V2.195Z" fill="#7a7a7a"/>
    <path id="path_91" data-name="Pfad 91" d="M1263.955,2.195V280.751l-6.1,12.29h-1.236l6.131-12.367.035-.077V2.195Z" fill="#7a7a7a"/>
    <path id="path_92" data-name="Pfad 92" d="M1346.309,2.195V280.742l-5.77,12.3h-1.224l5.793-12.367.035-.068V2.195Z" fill="#7a7a7a"/>
    <path id="path_93" data-name="Pfad 93" d="M440.822,2.195v278.53l-3.812,12.316h-1.2l3.835-12.367.011-.042V2.195Z" fill="#7a7a7a"/>
    <path id="path_94" data-name="Pfad 94" d="M523.176,2.195v278.53l-4,12.316h-1.2L522,280.674l.011-.051V2.195Z" fill="#7a7a7a"/>
    <path id="path_95" data-name="Pfad 95" d="M687.511,2.195v278.53l-4.01,12.316h-1.2l4.034-12.367.011-.051V2.195Z" fill="#7a7a7a"/>
    <path id="path_96" data-name="Pfad 96" d="M770.227,2.195v278.53l-3.753,12.316h-1.189l3.765-12.367.011-.042V2.195Z" fill="#7a7a7a"/>
    <path id="path_97" data-name="Pfad 97" d="M852.569,2.195V280.717L848.9,293.041h-1.189l3.684-12.367.011-.042V2.195Z" fill="#7a7a7a"/>
    <path id="path_98" data-name="Pfad 98" d="M934.562,2.195v278.53l-4.336,12.316h-1.213l4.36-12.367.023-.051V2.195Z" fill="#7a7a7a"/>
    <path id="path_99" data-name="Pfad 99" d="M1016.916,2.195V280.734l-4.546,12.307h-1.2l4.558-12.367.023-.059V2.195Z" fill="#7a7a7a"/>
    <path id="path_100" data-name="Pfad 100" d="M1099.62,2.195V280.734l-4.779,12.307h-1.224l4.814-12.367.023-.059V2.195Z" fill="#7a7a7a"/>
    <path id="path_101" data-name="Pfad 101" d="M1181.974,2.195V280.742l-5.42,12.3h-1.224l5.443-12.367.035-.068V2.195Z" fill="#7a7a7a"/>
    <path id="path_102" data-name="Pfad 102" d="M1429.013,2.195V280.589l-.047.085-6.539,12.368h1.247l6.505-12.292V2.195Z" fill="#7a7a7a"/>
    <path id="path_103" data-name="Pfad 103" d="M193.783,2.195V280.708l-2.343,12.333h-1.177l2.354-12.367V2.195Z" fill="#7a7a7a"/>
    <path id="path_104" data-name="Pfad 104" d="M275.776,2.195V280.708l-2.693,12.333h-1.177l2.693-12.367.011-.034V2.195Z" fill="#7a7a7a"/>
    <path id="path_105" data-name="Pfad 105" d="M358.118,2.195v278.53l-3.637,12.316h-1.2l3.66-12.367.011-.042V2.195Z" fill="#7a7a7a"/>
    <g id="group_34" data-name="Gruppe 34">
      <g id="group_33" data-name="Gruppe 33" clip-path="url(#clip-path)">
        <path id="path_106" data-name="Pfad 106" d="M244.145,141.438a9.928,9.928,0,1,1-9.928-9.928,9.928,9.928,0,0,1,9.928,9.928" fill="#d9dada"/>
        <path id="path_107" data-name="Pfad 107" d="M406.892,141.438a9.928,9.928,0,1,1-9.928-9.928,9.928,9.928,0,0,1,9.928,9.928" fill="#d9dada"/>
        <path id="path_108" data-name="Pfad 108" d="M572.82,141.438a9.927,9.927,0,1,1-9.928-9.928,9.928,9.928,0,0,1,9.928,9.928" fill="#d9dada"/>
        <path id="path_109" data-name="Pfad 109" d="M735.566,141.438a9.927,9.927,0,1,1-9.928-9.928,9.928,9.928,0,0,1,9.928,9.928" fill="#d9dada"/>
        <path id="path_110" data-name="Pfad 110" d="M982.793,206.833a9.928,9.928,0,1,1-9.928-9.928,9.928,9.928,0,0,1,9.928,9.928" fill="#d9dada"/>
        <path id="path_111" data-name="Pfad 111" d="M982.793,79.348a9.928,9.928,0,1,1-9.928-9.928,9.928,9.928,0,0,1,9.928,9.928" fill="#d9dada"/>
        <path id="path_112" data-name="Pfad 112" d="M1229.226,141.438a9.927,9.927,0,1,1-9.928-9.928,9.928,9.928,0,0,1,9.928,9.928" fill="#d9dada"/>
        <path id="path_113" data-name="Pfad 113" d="M1394.3,141.438a9.928,9.928,0,1,1-9.928-9.928,9.928,9.928,0,0,1,9.928,9.928" fill="#d9dada"/>
      </g>
    </g>
  </g>
</svg>
