<svg id="Gruppe_48" data-name="Gruppe 48" xmlns="http://www.w3.org/2000/svg" xmlns:xlink="http://www.w3.org/1999/xlink" width="1433" height="307" viewBox="0 0 1433 307">
  <defs>
    <clipPath id="clip-path">
      <rect id="Rechteck_33" data-name="Rechteck 33" width="1433" height="307" fill="none"/>
    </clipPath>
  </defs>
  <g id="Gruppe_47" data-name="Gruppe 47" clip-path="url(#clip-path)">
    <path id="Pfad_650" data-name="Pfad 650" d="M45.676,302.461c-3.853,1.558-8.412-.3-12.749-.309l-.111-2.785-2.993,1.856c-.37-.2-.739-.413-1.109-.619H1.886L1.331,299.6q-.111-31.485-.221-62.968l-.666-5.492v67.377l.666,1.856c4,6.348,15.263,4.962,23.17,6.576,7.873-.169,18.2,1.31,21.4-4.487" fill="#cacbcb"/>
    <path id="Pfad_651" data-name="Pfad 651" d="M45.676,302.461l1375.462-.155c3.455-.5,7.579-1.746,8.98-4.177l-11.862-1.238c-.222-.2-.444-.413-.665-.618l-68.07-.155a10.256,10.256,0,0,0-7.2,2.011v.464c-.111.259-.222.515-.333.774-1.526-2.208-1.894-4.891-2.55-7.272-.35,1.75-.231,2.821-2.329,4.178l-72.724-.155-4.324,2.011v.619c.194.648-.639.648-.443,0-.074-.1-.149-.206-.222-.31-1.36-2.2-1.579-5.02-2.217-7.426-.426,1.745.33,3.74-2.107,5.106H1181.9l-4.1,2.166-.333.619c-1.665-2.8-1.885-6.118-2.55-9.128-.525,2.132.918,4.626-1.884,6.343h-73.391l-3.658,1.547c-.293-.073-.627,2.254-.887.619-1.725-3.132-1.9-7.047-2.439-10.521-.974,2.757,1.851,6.194-1.885,8.355h-73.39l-3.659,1.547c-.073.206-.148.413-.222.619.056,1.1-.436.588-.665,0v-.619c-1.565-2.454-1.512-5.8-2.217-8.509-.7,2.385,1.35,5.065-1.885,6.962H935.564c-1.783.226-2.641,1.044-4.1,1.7-.073.258-.149.515-.222.773h-.222c-.073-.258-.148-.515-.222-.773q-.887-2.32-1.773-4.642c-.6.98-.765,2.155-2.328,2.94H853.526a8.872,8.872,0,0,0-4.324,1.856c-.073.155-.148.31-.221.464l-.222-.154c-.073-.206-.149-.413-.222-.619q-.775-2.166-1.552-4.332c-1.08.789-.8,2.839-3.437,2.785H770.379q-1.605.928-3.214,1.856l-.333.464q-1.054-2.628-2.106-5.26c-.706,1.147-.887,2.914-3.437,2.94L691,295.963c-2.589.147-4.467.339-6.1,2.011.18.437-.623.437-.443,0v-.464q-.888-2.088-1.774-4.177c-1.069,1.078-.94,2.858-3.659,2.785l-70.729-.155c-2.373.122-4.122.526-5.654,2.011v.31h-.222c-.073-.259-.149-.515-.222-.774-.073-.1-.148-.206-.222-.309v-.464q-.664-1.857-1.33-3.713c-1.018.922-.82,3.109-3.658,3.094l-71.4-.155c-1.956.187-3.73.509-4.989,1.857-.149-.051-.295-.1-.444-.155l-.221-.155v-.619q-.775-1.932-1.552-3.867c-.71,1.16-.845,3.072-3.437,3.094l-72.282-.155c-1.468.313-3.288.582-4.213,1.857-.184-.259-.37-.516-.554-.774-.073-.155-.149-.309-.222-.464q-.888-2.709-1.774-5.415c-.221,1.724.712,4.533-2.993,4.951l-72.5-.155a8.011,8.011,0,0,0-4.213,1.7l-.554-.619q-1-3.4-2-6.807c-.672,1.983,1.57,5.274-2.772,5.879l-72.725-.155a7.75,7.75,0,0,0-3.991,1.547l-.554-.464c-.073-.155-.149-.309-.222-.464l-1.995-7.271c-.8,2.156,1.986,5.913-2.55,6.807l-72.947-.155a7.744,7.744,0,0,0-3.991,1.547c-.184-.154-.371-.309-.555-.464q-1.107-4.408-2.217-8.818c-1.044,2.464,2.069,5.869-1.441,7.735H113.634c-1.275.3-2.654.39-3.769,1.393l-.554-.465c-.073-.2-.149-.413-.222-.618q-1.107-4.95-2.217-9.9c-1.59,2.918,2.938,8.149-1.885,9.592l-67.4-.155c-2.219.69-3.056,1.78-4.545,2.94l-.222.619.111,2.785c4.337,0,8.9,1.867,12.749.309"/>
    <path id="Pfad_652" data-name="Pfad 652" d="M32.816,299.367l.222-.619q-.333-3.906-.665-7.813-.222-137.808-.444-275.618.444-2.553.887-5.106c-.175-.718.33-2.661,1.552-2.939l5.321.464.666.154h.886l.444.155h1.109l.443.155,2.882.155c-.331-2.061.686-4.73-.554-6.5L29.047.155c.366.456-1.476.456-1.109,0L2.772,0C2.187.511-.038-.347,0,.619Q.444,76.312.888,152,.555,185,.223,217.989v2.166q.109,2.475.221,4.95v6.034l.666,5.492q.109,31.485.221,62.968l.555,1.006H28.714c.37.2.739.413,1.109.619l2.993-1.857" fill="#fff"/>
    <path id="Pfad_653" data-name="Pfad 653" d="M1342.315,298.593c-.295-.49-.592-.979-.887-1.47q-.555-4.177-1.108-8.354V269.894q1.107-122.919,2.217-245.837.664-2.707,1.33-5.415l-.887.078c-.073.258-.148.516-.222.773-.148.31-.294.619-.443.929q-.442,4.06-.887,8.122-1,131.775-1.995,263.551c.656,2.381,1.024,5.064,2.549,7.272l.333-.774" fill="#585858"/>
    <path id="Pfad_654" data-name="Pfad 654" d="M1260.056,298.748h-.443c-.2.648.638.648.443,0" fill="#585858"/>
    <path id="Pfad_655" data-name="Pfad 655" d="M1013.5,298.284h-.665c.228.588.72,1.1.665,0" fill="#585858"/>
    <path id="Pfad_656" data-name="Pfad 656" d="M1177.8,298.284q-.888-4.6-1.774-9.2V262.468q1-111.78,2-223.558.109-7.968.221-15.935.5-2.205,1-4.409l-1,.928v.464l-.221.309q-.442,4.912-.887,9.825-1.109,129.842-2.217,259.683c.665,3.011.884,6.328,2.549,9.128l.333-.619" fill="#585858"/>
    <path id="Pfad_657" data-name="Pfad 657" d="M106.871,286.371q.223-17.637.443-35.274c-.816.23-.376-1.2,0-.928V226.5q.111-2.63.222-5.261V201.744q.109-3.405.222-6.808V177.918q.109-2.63.222-5.26V159.972c.073-.568.148-1.134.221-1.7q.11-5.339.222-10.675-.109-6.5-.222-13,.11-1.857.222-3.713.11-2.088.222-4.177-.109-10.135-.222-20.267.11-1.781.222-3.559V78.439q.11-1.857.221-3.713V50.281q.111-1.779.222-3.558.224-10.984.444-21.969V22.588c.073-.155.148-.31.221-.464a16.876,16.876,0,0,1,2.218-8.974q.332-1.314.665-2.63v-.154l-1.885.619-73.169-.31-.332.31c-.449,1.219,1.693.232,2.328.773l64.521-.309c1.646,1.1,5.836-1.15,4.989,1.469-.667,1.044-1.217,2.054-3.215,2.089l-68.956-.155a6.86,6.86,0,0,1-3.326,2.63l-1.663-2.166q.222,137.81.444,275.619.333,3.906.665,7.813c1.489-1.16,2.326-2.25,4.545-2.94l67.4.155c4.823-1.443.295-6.674,1.885-9.592" fill="#232f34"/>
    <path id="Pfad_658" data-name="Pfad 658" d="M931.24,298.593h0Z" fill="#585858"/>
    <path id="Pfad_659" data-name="Pfad 659" d="M1095.98,297.665q.775-6.923,1.552-13.847,1-116.961,2-233.923c-.515-10.613,1.235-21.94-1.331-31.948q-.332-1.316-.665-2.631-.555,1.7-1.109,3.4l.887-.232q-.665,2.4-1.33,4.8-1.107,123.692-2.217,247.384V288q.665,5.143,1.33,10.288c.262,1.635.594-.692.887-.619" fill="#979797"/>
    <path id="Pfad_660" data-name="Pfad 660" d="M1260.056,298.748v-.619q.888-5.608,1.774-11.216,1-116.806,1.995-233.615c-.561-11.678,1.311-24.131-1.33-35.2q-.333-1.16-.665-2.32-.556,1.547-1.109,3.094l.887-.232q-.664,3.094-1.33,6.188-1.109,126.864-2.218,253.727c-.483,6.611.759,13.658,1.331,19.881.073.1.148.205.222.309Z" fill="#979797"/>
    <path id="Pfad_661" data-name="Pfad 661" d="M931.461,297.82q.888-5.378,1.774-10.752,1-120.288,1.995-240.577c-.459-9.547,1.149-19.744-1.33-28.7q-.333-1.392-.665-2.785-.666,1.857-1.331,3.713c.371-.128.739-.257,1.109-.386l-1.33,3.558q-1.109,112.244-2.217,224.486v44.557c-.067,2.511,1.667,4.674,1.33,6.885.073.258.148.515.222.774h.221c.074-.259.149-.516.222-.774" fill="#979797"/>
    <path id="Pfad_662" data-name="Pfad 662" d="M1342.315,298.593v-.464c2.044-7.005,1.288-14.753,1.774-22.2q1-116.963,1.995-233.924c-.268-8.041.9-16.493-1.552-23.9q-.333-.928-.665-1.857-.442,1.239-.887,2.476l.887-.078q-.664,2.709-1.33,5.415-1.109,122.919-2.217,245.837v18.875q.555,4.177,1.108,8.354c.3.491.592.98.887,1.47" fill="#979797"/>
    <path id="Pfad_663" data-name="Pfad 663" d="M602.645,298.284h0Z" fill="#585858"/>
    <path id="Pfad_664" data-name="Pfad 664" d="M767.164,297.974c-.073-.155-.148-.309-.222-.464q-.774-4.37-1.552-8.741V265.717q.888-121.913,1.774-243.826l1.33-3.558-.887.232q-.664,2.977-1.33,5.956-.109,19.146-.222,38.292c-.073.618-.148,1.237-.221,1.856V90.815q-.111,1.006-.222,2.012v26.146c-.073.67-.149,1.341-.222,2.011v25.837q-.109,1.159-.221,2.321v24.6c-.074.309-.149.618-.222.928q-.333,44.905-.665,89.81.222,14.349.443,28.7,1.055,2.629,2.106,5.26l.333-.464" fill="#585858"/>
    <path id="Pfad_665" data-name="Pfad 665" d="M848.758,298.284l.222.155-.222-.155" fill="#585858"/>
    <path id="Pfad_666" data-name="Pfad 666" d="M849.2,297.974c1.792-6.133,1.747-12.689,1.995-19.262q1-123.459,2-246.919a48.3,48.3,0,0,0-1.33-13.847q-.442-1.47-.887-2.939-.555,1.779-1.109,3.558l.887-.232q-.665,1.857-1.33,3.713-.888,91.666-1.774,183.333-.109,41.772-.222,83.544.555,4.371,1.109,8.742c.073.2.148.413.222.618l.221.155c.073-.155.149-.309.222-.464" fill="#979797"/>
    <path id="Pfad_667" data-name="Pfad 667" d="M1260.721,18.875c-.073.258-.149.516-.222.774-.073.154-.148.309-.221.464-1.7,7.267-.344,15.438-1.109,22.974q-1,123.965-2,247.926c.639,2.4.858,5.224,2.218,7.426-.572-6.223-1.814-13.27-1.331-19.881q1.108-126.864,2.218-253.727.664-3.093,1.33-6.188l-.887.232" fill="#585858"/>
    <path id="Pfad_668" data-name="Pfad 668" d="M602.646,297.975l1.995-10.907q1-123.693,2-247.384c-.2-7.35.658-15-1.109-21.892q-.443-1.779-.887-3.558c-.836,2.226-1.982,4.807-1.774,7.117q-1,128.6-1.995,257.207v7.891q.555,5.145,1.108,10.288v.464c.074.1.149.206.222.31.073.258.149.515.222.773h.222Zm1.219-279.564c-.608-.659,1.2-.113,0,0" fill="#979797"/>
    <path id="Pfad_669" data-name="Pfad 669" d="M684.905,297.974h-.443c-.18.436.623.436.443,0" fill="#232f34"/>
    <path id="Pfad_670" data-name="Pfad 670" d="M1013.5,298.284c.073-.206.149-.413.222-.619q.774-4.833,1.552-9.669,1.107-126.4,2.217-252.8c.011-6.012.3-12.084-1.552-17.56q-.333-1.083-.665-2.166l-1.109,3.249.887-.232q-.665,2.707-1.33,5.415-1.109,127.25-2.217,254.5c-.513,6.658.853,13.184,1.33,19.261v.619Z" fill="#979797"/>
    <path id="Pfad_671" data-name="Pfad 671" d="M1096.424,18.72c-.149.464-.295.928-.443,1.392-.074.1-.149.207-.222.31q-.443,7.078-.887,14.156-1.107,126.593-2.217,253.185c.541,3.474.714,7.389,2.439,10.521q-.666-5.145-1.331-10.289V270.668q1.109-123.693,2.218-247.384.664-2.4,1.33-4.8l-.887.232" fill="#585858"/>
    <path id="Pfad_672" data-name="Pfad 672" d="M1177.8,298.284c2.536-8.07,1.4-17.137,1.995-25.759q1-116.962,2-233.924c-.142-7,.65-14.251-1.552-20.654q-.333-1.007-.665-2.012-.666,1.78-1.331,3.559l1-.928q-.5,2.2-1,4.409-.109,7.968-.221,15.935-1,111.78-2,223.558v26.611q.888,4.6,1.774,9.2" fill="#979797"/>
    <path id="Pfad_673" data-name="Pfad 673" d="M1257.173,291.012q1-123.963,1.995-247.925c.765-7.537-.589-15.708,1.109-22.975.073-.155.149-.309.222-.464.073-.258.148-.516.222-.774q.555-1.547,1.108-3.094.443-2.242.887-4.486v-.155h-80.707c.259.258.516.516.776.773l70.508-.154,6.873.154c.038.181.073.361.111.542a4.139,4.139,0,0,1-1.885,2.707h-74.72c-.892.98-.985,5.01-3.437,2.785,2.2,6.4,1.41,13.656,1.552,20.654q-1,116.962-2,233.924c-.6,8.622.541,17.69-1.995,25.759l4.1-2.166h73.169c2.436-1.366,1.68-3.36,2.106-5.105" fill="#232f34"/>
    <path id="Pfad_674" data-name="Pfad 674" d="M1339.433,292.1q1-131.775,1.995-263.551.443-4.062.887-8.122c.149-.31.3-.619.444-.929.073-.258.148-.515.222-.773q.443-1.237.886-2.476.443-2.475.887-4.95l-80.485-.155c.2,1.333,2.119.434,3.215.928l67.625-.309,7.317.154c.038.129.074.258.111.387-.441,1.085-.563,2.286-1.885,2.862H1265.71c-.641.9-.982,4.853-3.215,2.94,2.641,11.066.769,23.519,1.33,35.2q-1,116.807-1.995,233.614-.888,5.61-1.774,11.217,2.161-1,4.324-2.011l72.725.154c2.1-1.357,1.978-2.427,2.328-4.177" fill="#232f34"/>
    <path id="Pfad_675" data-name="Pfad 675" d="M1430.117,298.129l1.553-2.708q.664-137.226,1.33-274.457c-.379-3.526-2.987-6.945-7.539-8.9l-9.645-.929h-69.732c.727,1.368,2.672.416,4.1.929l65.409-.155,2.771,3.172-70.619.076c-.534.989-.913,4.939-3.215,2.941,2.448,7.408,1.284,15.862,1.552,23.9q-1,116.961-1.995,233.922c-.486,7.448.27,15.2-1.774,22.2a10.256,10.256,0,0,1,7.206-2.011q34.033.075,68.069.155c.222.2.444.412.665.618l11.862,1.238m-6.873-5.57c-.073-.154-.149-.309-.222-.464v-1.237q-.109-1.161-.221-2.322v-10.52q.109-7.194.221-14.387V252.335q.109-7.813.222-15.627V225.879q.109-8.046.222-16.091V199.577q.109-8.429.221-16.862v-9.438q.111-8.9.222-17.792v-8.2q.109-9.515.222-19.03v-7.271q.109-9.979.222-19.958V93.91q.109-10.058.221-20.112v-6.19q.111-10.443.222-20.885V41.154q.109-7.194.222-14.388.222-2.825.443-5.648c.785-.436-.046-1.261,1.22-1.315,1.359,1.261.8,3.7,1.441,5.338V58.094q-1,115.493-2,230.984-.721,3.52-1.441,7.04c-1.931-.125-1.33-2.439-1.441-3.559" fill="#232f34"/>
    <path id="Pfad_676" data-name="Pfad 676" d="M520.607,297.82c-.149-.051-.294-.1-.443-.155v-.154h-.221l.221.154c.149.051.294.1.443.155" fill="#585858"/>
    <path id="Pfad_677" data-name="Pfad 677" d="M682.687,293.333c-.96-4.971-.6-10.319-.665-15.549q.443-58.752.887-117.5c.073-.464.148-.928.221-1.392V136.765q.111-1.161.222-2.321V108.607c.073-.773.149-1.547.222-2.32V80.45q.109-1,.222-2.011V52.292c.073-.618.148-1.237.221-1.856.386-9.861-.887-20.251.887-29.7q.888-3.093,1.774-6.188.443-1.779.887-3.559V10.83l-79.821.309c-.017,1.123,1.566.29,2.329.774l68.734-.31c1.319.994,6.248-.922,5.876,1.006-.227,1.169-.887,1.585-1.663,2.4H608.964c-.856.9-1.095,4.764-3.437,2.785,1.767,6.9.909,14.542,1.109,21.891q-1,123.693-2,247.384l-1.995,10.907c1.532-1.485,3.281-1.889,5.654-2.011l70.73.155c2.718.073,2.589-1.707,3.658-2.785" fill="#232f34"/>
    <path id="Pfad_678" data-name="Pfad 678" d="M684.9,297.974q.888-4.68,1.774-9.36.109-4.021.222-8.045,1-126.089,1.995-252.18a45.687,45.687,0,0,0-1.33-10.752q-.442-1.546-.887-3.094-.888,3.095-1.774,6.188-.888,125.509-1.774,251.02c-.079,8.756-.232,17.474,1.331,25.759v.464Zm1-279.254c-.208-1.076,1.359-.532,0,0" fill="#979797"/>
    <path id="Pfad_679" data-name="Pfad 679" d="M764.725,293.178q-.223-14.349-.443-28.7.332-44.905.665-89.81c.073-.309.148-.619.221-.928v-24.6q.111-1.161.222-2.321V120.984c.073-.67.149-1.341.222-2.011V92.827q.109-1.007.222-2.012V64.669c.073-.619.148-1.238.221-1.856q.111-19.146.222-38.292.664-2.978,1.33-5.956.666-2.088,1.331-4.177.442-1.7.887-3.4l-80.043.155c.482.258.96.516,1.442.773l69.4-.309,6.208.155c.038.232.074.464.111.7a3.989,3.989,0,0,1-1.884,2.553H691c-.672,1.029-1.182,4.936-3.437,2.63A45.684,45.684,0,0,1,688.9,28.389q-1,126.09-2,252.18-.109,4.021-.222,8.045-.888,4.681-1.773,9.36c1.629-1.672,3.507-1.864,6.1-2.011l70.286.155c2.55-.027,2.732-1.794,3.437-2.94" fill="#232f34"/>
    <path id="Pfad_680" data-name="Pfad 680" d="M846.985,293.333q-.333-2.281-.665-4.564.333-49.623.665-99.247c.073-.723.149-1.444.222-2.166V161.364q.11-1.083.221-2.166V133.361q.111-1.083.222-2.166.333-52.64.665-105.281.775-3.673,1.552-7.349.556-1.779,1.109-3.558.442-1.933.887-3.868v-.155l-80.042.155c.259.258.516.516.776.774L842,11.6l7.206.387c-.392,1.835-.88,3.154-3.88,3.172l-72.282-.155c-.552,1.131-1.113,4.994-3.437,2.63,2.351,7.917.952,16.957,1.331,25.45q-.888,111.469-1.774,222.939c-.876,10.462,1.1,21.725-2.217,31.484.073.155.148.31.222.464q1.605-.928,3.215-1.856h73.168c2.634.054,2.357-2,3.437-2.785" fill="#232f34"/>
    <path id="Pfad_681" data-name="Pfad 681" d="M929.022,293.178q-.109-31.562-.222-63.122.111-1.085.222-2.166V201.9c.073-.67.149-1.341.222-2.011V173.741c.073-.515.148-1.032.221-1.547q.556-73.758,1.109-147.518.666-2.978,1.33-5.956.666-1.857,1.331-3.713.443-1.935.887-3.868v-.155l-80.264.155c.184.258.37.516.554.773l76.716-.154c.038.438.074.877.111,1.315a2.981,2.981,0,0,1-2.771,2.088L855.3,15.007c-.836.919-.993,4.805-3.437,2.939a48.3,48.3,0,0,1,1.331,13.847q-1,123.459-2,246.919c-.248,6.573-.2,13.129-1.995,19.262a8.864,8.864,0,0,1,4.323-1.856h73.169c1.563-.785,1.732-1.961,2.328-2.94" fill="#232f34"/>
    <path id="Pfad_682" data-name="Pfad 682" d="M518.39,293.024c-1.412-9.877-.322-20.519-.665-30.71q.443-51.247.887-102.5c.073-.618.148-1.237.221-1.856V140.169q.111-1.315.222-2.63V112.012c.073-.774.149-1.548.222-2.321V83.854q.109-1.237.222-2.475V55.851q.109-1.16.221-2.32V27.694c.074-.31.149-.619.222-.928.133-1.562-.353-3.892.665-4.951V21.2c.073-.155.149-.31.222-.464-.184-2.181.809-4.741,1.774-6.808q.331-1.547.665-3.094l-79.821.155c.184.258.371.516.555.773l70.73-.154c1.478.748,6.35-.938,5.432,1.315L518.5,15.007H444.667c-.707,1.052-1.2,4.725-3.437,2.631,1.594,5.86,1,12.354,1.109,18.642q-1,124.62-2,249.24-.774,5.183-1.552,10.366l-.887,1.161c.184.258.371.515.555.773.924-1.275,2.745-1.544,4.212-1.856l72.282.154c2.592-.021,2.727-1.934,3.437-3.094" fill="#232f34"/>
    <path id="Pfad_683" data-name="Pfad 683" d="M600.65,293.024q-.333-1.353-.665-2.707V256.435q.443-52.176.887-104.353.109-1.161.221-2.321V124.388q.111-1.16.222-2.32V96.231c.073-.825.149-1.651.222-2.475V68.073q.109-1,.222-2.011V39.916c.073-.67.148-1.341.221-2.011V24.522q.443-1.585.887-3.171c-.208-2.31.938-4.891,1.774-7.117q.442-1.625.887-3.249V10.83l-79.821.31.333.618,70.73-.154c1.108.8,6.441-.919,5.654,1.16l-1.663,2.243H526.705c-.508,1.126-1.328,4.981-3.437,2.476,2.273,10.582.59,22.394,1.109,33.5Q523.489,163.84,522.6,276.7c-.468,7.035.295,14.5-2.439,20.809v.154c.149.051.295.1.444.155,1.259-1.347,3.033-1.669,4.989-1.856l71.4.154c2.838.016,2.64-2.172,3.658-3.094" fill="#232f34"/>
    <path id="Pfad_684" data-name="Pfad 684" d="M931.905,18.72q-.665,2.978-1.33,5.956-.557,73.759-1.109,147.518c-.073.515-.149,1.032-.222,1.547v26.146c-.073.67-.148,1.342-.221,2.011V227.89q-.111,1.083-.222,2.166.109,31.562.222,63.122.888,2.32,1.773,4.642c.337-2.211-1.4-4.374-1.33-6.885V246.378q1.107-112.244,2.217-224.486.666-1.781,1.331-3.559l-1.109.387" fill="#585858"/>
    <path id="Pfad_685" data-name="Pfad 685" d="M1010.617,289.156V270.591c.073-.723.149-1.444.222-2.166V242.433q.109-1.159.221-2.321.776-100.909,1.553-201.821c.764-5.993-.6-12.61,1.108-18.333.073-.1.149-.206.222-.309.073-.31.148-.619.222-.929q.555-1.625,1.108-3.249.442-2.166.887-4.332H935.9c.26.258.517.516.776.774l76.717-.155c.037.387.073.774.11,1.161a3.178,3.178,0,0,1-2.328,2.243H937.337c-.824.99-1.066,4.962-3.436,2.63,2.479,8.955.871,19.152,1.33,28.7q-1,120.288-2,240.576-.888,5.378-1.773,10.753c1.461-.658,2.319-1.476,4.1-1.7h73.168c3.235-1.9,1.182-4.576,1.885-6.962" fill="#232f34"/>
    <path id="Pfad_686" data-name="Pfad 686" d="M435.909,291.167q-.223-10.791-.443-21.582.332-36.939.665-73.875.109-2.553.221-5.105v-16.4q.111-1.237.222-2.475V155.949c.073-.877.149-1.753.222-2.63V127.792q.109-1.394.222-2.785V99.634q.109-1.315.221-2.63V71.631q.111-1.237.222-2.475V43.474c.073-.877.149-1.753.222-2.63V24.522q.333-1.044.665-2.089v-.619c.073-.206.148-.412.222-.619-.189-2.355.878-5.012,1.773-7.271q.443-1.547.887-3.094v-.155l-79.82.309.554.774,70.952-.155c1.636.744,5.933-.98,4.989,1.47l-1.663,1.934H362.629c-.782.948-1.252,4.637-3.436,2.63,1.78,9.531.5,20,.887,29.937q-.888,111.16-1.774,222.32c-.668,8.973.734,18.6-2.217,26.843l-.444.309.554.619a8.014,8.014,0,0,1,4.213-1.7l72.5.155c3.705-.418,2.771-3.228,2.993-4.951" fill="#232f34"/>
    <path id="Pfad_687" data-name="Pfad 687" d="M849.867,18.565q-.776,3.675-1.552,7.349-.333,52.64-.665,105.281c-.073.723-.149,1.443-.222,2.166V159.2c-.073.722-.149,1.443-.222,2.166v25.991c-.073.723-.148,1.444-.221,2.166q-.333,49.623-.666,99.248.333,2.28.666,4.564.774,2.164,1.552,4.332-.556-4.371-1.109-8.742.109-41.772.222-83.544.888-91.666,1.774-183.333.664-1.857,1.33-3.713l-.887.232" fill="#585858"/>
    <path id="Pfad_688" data-name="Pfad 688" d="M1014.164,18.72c-.073.309-.149.619-.222.928-.073.1-.148.206-.221.31-1.708,5.722-.344,12.339-1.109,18.333q-.776,100.91-1.552,201.821c-.073.774-.149,1.547-.222,2.321v25.991q-.109,1.084-.222,2.166v18.566c.706,2.709.652,6.055,2.218,8.509-.477-6.077-1.843-12.6-1.331-19.262q1.109-127.25,2.218-254.5.664-2.708,1.33-5.415l-.887.232" fill="#585858"/>
    <path id="Pfad_689" data-name="Pfad 689" d="M1092.654,287.763q1.107-126.593,2.217-253.185.443-7.078.887-14.156c.073-.1.149-.207.222-.31q.222-.7.443-1.392.556-1.7,1.109-3.4.443-2.088.887-4.177h-80.486c.26.258.517.515.776.773l70.73-.154c1.2.714,7.031-.777,6.319,1-.443,1.109-.705,1.911-2.106,2.4h-74.278c-.629,1.216-1.217,5.1-3.436,2.476,1.849,5.475,1.563,11.548,1.552,17.559q-1.109,126.4-2.218,252.8-.774,4.834-1.552,9.67l3.659-1.548h73.39c3.736-2.161.912-5.6,1.885-8.354" fill="#232f34"/>
    <path id="Pfad_690" data-name="Pfad 690" d="M1174.914,289.775q1.107-129.841,2.217-259.683.443-4.912.887-9.824c.073-.1.149-.207.222-.31v-.464l1.33-3.558q.443-2.4.887-4.8h-80.486c.26.257.517.515.776.773l70.509-.155c1.459.714,6.862-.722,6.762.851-.505,1.145-.463,1.931-2.106,2.553h-74.5c-.435,1.037-1.1,4.8-3.215,2.785,2.565,10.009.816,21.336,1.33,31.948q-1,116.961-1.995,233.924-.775,6.922-1.553,13.846l3.659-1.547h73.39c2.8-1.717,1.359-4.211,1.885-6.343" fill="#232f34"/>
    <path id="Pfad_691" data-name="Pfad 691" d="M271.39,289.31v-42.7c.073-.205.149-.412.222-.618V222.01q.109-3.246.221-6.5v-18.1q.111-2.94.222-5.878V173.9q.109-2.628.222-5.26V156.723c.073-.414.148-.825.222-1.237V131.2q.109-1.781.221-3.558v-24.6q.111-1.7.222-3.4v-24.6q.11-1.7.222-3.4V46.878q.109-1.78.222-3.559V24.676q.332-1.2.665-2.4a18.9,18.9,0,0,1,2.217-8.973q.333-1.315.665-2.63V10.52l-1.219.464q-39.3-.078-78.6-.155l1,.929,70.065-.31c1.293,1.055,6.268-.807,5.432,1.16a3.6,3.6,0,0,1-2.55,2.4H198.332c-.616.851-1.128,4.372-3.215,2.784,1.3,8.469.393,17.609.665,26.38q-.888,111.856-1.774,223.711c-.623,9.667.679,19.91-2.217,28.854l-.443.31.554.464a7.742,7.742,0,0,1,3.991-1.547l72.947.154c4.537-.894,1.754-4.65,2.55-6.807" fill="#232f34"/>
    <path id="Pfad_692" data-name="Pfad 692" d="M353.65,290.239v-1.083c-.073-.155-.149-.309-.222-.464q.109-27.151.222-54.3c.073-.309.149-.619.222-.928V209.634q.109-2.94.221-5.879V186.118q.111-2.4.222-4.8V169.1c.073-.619.149-1.238.222-1.857V143.572q.109-1.547.222-3.094V115.415q.109-1.857.221-3.713V87.257q.111-1.7.222-3.4v-24.6c.073-1.032.149-2.063.222-3.1V31.1q.109-1.47.222-2.939V23.284q.332-.812.665-1.624a18.019,18.019,0,0,1,1.995-8.045q.333-1.47.665-2.94l-79.82.155c.259.309.516.619.776.928l75.829-.154c.038.232.074.464.111.7a4.011,4.011,0,0,1-2.106,2.707H280.37c-.465.91-1.1,4.358-3.215,2.785,1.042,4.81.9,9.971.887,15.084q-1,125.472-1.995,250.942-.333,3.558-.665,7.117c-1.018,1.837-.451,4.473-1.774,6.111l.554.464a7.759,7.759,0,0,1,3.991-1.547l72.725.155c4.342-.605,2.1-3.9,2.772-5.879" fill="#232f34"/>
    <path id="Pfad_693" data-name="Pfad 693" d="M523.268,17.482q-.333-1.779-.665-3.558c-.965,2.067-1.958,4.626-1.774,6.807-.073.155-.148.309-.222.464v.619q-.888,120.947-1.773,241.891V288.15q.555,4.369,1.108,8.741v.619h.222c2.734-6.312,1.971-13.774,2.439-20.809q.888-112.861,1.774-225.724c-.519-11.1,1.164-22.913-1.109-33.5" fill="#979797"/>
    <path id="Pfad_694" data-name="Pfad 694" d="M601.98,297.2c.073.1.148.206.222.309-.074-.1-.149-.205-.222-.309" fill="#585858"/>
    <path id="Pfad_695" data-name="Pfad 695" d="M684.905,20.731c-1.774,9.453-.5,19.843-.887,29.7q-.109.927-.222,1.856V78.438c-.073.671-.148,1.341-.221,2.012v25.836q-.111,1.161-.222,2.321v25.837c-.073.774-.149,1.547-.222,2.321v22.123c-.073.465-.148.929-.222,1.393q-.441,58.752-.886,117.5c.066,5.229-.295,10.578.665,15.549q.888,2.088,1.774,4.177c-1.564-8.285-1.411-17-1.331-25.76q.888-125.508,1.774-251.019" fill="#585858"/>
    <path id="Pfad_696" data-name="Pfad 696" d="M769.6,17.637q-.333-1.624-.665-3.249-.666,2.088-1.33,4.177l.886-.232q-.664,1.779-1.33,3.559-.888,121.911-1.774,243.825v23.052q.775,4.369,1.552,8.741c3.317-9.759,1.342-21.022,2.218-31.484q.888-111.468,1.773-222.939c-.379-8.493,1.02-17.533-1.33-25.45" fill="#979797"/>
    <path id="Pfad_697" data-name="Pfad 697" d="M189.131,288.228V260.689c.073-.619.149-1.237.222-1.856V235.781q.109-3.326.221-6.653V211.182q.111-3.173.222-6.344v-18.1q.109-3.173.222-6.343v-16.4q.109-2.013.222-4.023v-13q.109-1.932.221-3.867v-24.29q.109-1.78.222-3.558V90.816q.109-1.779.222-3.558v-24.6q.109-1.625.221-3.249V34.5q.111-1.779.222-3.558.223-3.869.444-7.736a20.777,20.777,0,0,1,2.217-9.747q.333-1.392.665-2.784v-.155l-1.663.464-77.936-.155c.184.31.371.619.555.929l70.508-.31c1.388,1.043,6.23-.938,5.21,1.315a3.367,3.367,0,0,1-2.771,2.243l-71.839-.154c-1.592.473-1.051,4.171-3.658,3.094q.333,5.763.665,11.526-1,124.62-2,249.24-.222,5.182-.443,10.366l-2,7.813.554.464c1.115-1,2.494-1.091,3.769-1.392H187.69c3.51-1.866.4-5.271,1.441-7.736" fill="#232f34"/>
    <path id="Pfad_698" data-name="Pfad 698" d="M191.791,296.737q-.888-5.066-1.774-10.134.888-131.7,1.774-263.4-.224,3.868-.443,7.736-.111,1.779-.222,3.558V59.41c-.073,1.083-.149,2.166-.222,3.248v24.6q-.11,1.779-.222,3.558V115.26q-.11,1.78-.221,3.559v24.289q-.111,1.934-.222,3.868v13q-.109,2.012-.222,4.023v16.4q-.109,3.173-.222,6.343v18.1q-.109,3.173-.221,6.344v17.946q-.109,3.325-.222,6.653v23.052c-.073.619-.149,1.237-.222,1.856v27.539l2.218,8.818.443-.309" fill="#585858"/>
    <path id="Pfad_699" data-name="Pfad 699" d="M277.155,17.792q-.443-2.244-.887-4.487a18.905,18.905,0,0,0-2.217,8.974q-1,130.924-2,261.849.666,6.227,1.331,12.454c.073.155.148.31.221.464,1.324-1.638.757-4.274,1.774-6.111q.333-3.558.665-7.117,1-125.47,2-250.942c.009-5.113.155-10.274-.887-15.084" fill="#979797"/>
    <path id="Pfad_700" data-name="Pfad 700" d="M356.089,296.737a63.059,63.059,0,0,1-1.774-16.786q1-129.145,2-258.291-.333.812-.665,1.624v4.874q-.111,1.47-.222,2.939V56.161c-.073,1.031-.149,2.062-.222,3.094v24.6q-.109,1.7-.222,3.4V111.7q-.109,1.857-.221,3.713v25.063q-.111,1.548-.222,3.1v23.67c-.073.619-.149,1.238-.222,1.857v12.222q-.109,2.4-.222,4.8v17.637q-.109,2.941-.221,5.879V233.46c-.073.309-.149.619-.222.928q-.109,27.153-.222,54.3c.074.155.149.309.222.464v1.083q1,3.4,2,6.807l.443-.309" fill="#585858"/>
    <path id="Pfad_701" data-name="Pfad 701" d="M441.23,17.637q-.443-1.857-.887-3.713c-.9,2.259-1.962,4.916-1.774,7.271-.073.207-.148.413-.221.619v.619q-.888,125.277-1.774,250.555v13.77q.555,4.912,1.108,9.824c.074.155.149.309.222.464.3-.387.592-.774.887-1.16q.776-5.182,1.552-10.366,1-124.62,2-249.24c-.113-6.289.485-12.783-1.109-18.643" fill="#979797"/>
    <path id="Pfad_702" data-name="Pfad 702" d="M113.079,17.947q-.555-2.4-1.109-4.8a16.867,16.867,0,0,0-2.216,8.973l-.222.463v2.167q-.442,50.976-.886,101.954-.113,2.091-.222,4.177v16.709q-.111,5.34-.223,10.676v1.7c.812,41.615-.137,83.866-.443,125.4q.664,5.453,1.331,10.906c.072.207.148.414.222.62q1-3.906,1.994-7.814.224-5.181.444-10.366l2-249.239q-.333-5.765-.665-11.526" fill="#979797"/>
    <path id="Pfad_703" data-name="Pfad 703" d="M520.607,21.814c-1.018,1.06-.531,3.39-.664,4.951-.073.309-.15.619-.223.928V53.53q-.109,1.16-.222,2.321V81.378q-.109,1.238-.221,2.475V109.69q-.111,1.161-.222,2.321v25.527c-.073.877-.149,1.753-.222,2.63V157.96c-.073.619-.148,1.238-.221,1.857q-.441,51.247-.887,102.5c.343,10.191-.748,20.833.666,30.71q.773,1.934,1.552,3.868l-1.11-8.741V263.7q.888-120.946,1.774-241.891" fill="#585858"/>
    <path id="Pfad_704" data-name="Pfad 704" d="M195.117,17.792q-.555-2.166-1.109-4.332a20.784,20.784,0,0,0-2.217,9.747q-.888,131.7-1.774,263.4.888,5.067,1.774,10.134c2.9-8.944,1.594-19.187,2.217-28.854q.888-111.856,1.774-223.713c-.273-8.77.639-17.91-.665-26.378" fill="#979797"/>
    <path id="Pfad_705" data-name="Pfad 705" d="M359.193,17.637q-.442-2.011-.887-4.022a18,18,0,0,0-1.995,8.044q-1,129.145-2,258.291a63.066,63.066,0,0,0,1.774,16.787c2.951-8.247,1.55-17.87,2.217-26.843q.888-111.161,1.774-222.32c-.388-9.94.893-20.406-.887-29.937" fill="#979797"/>
    <path id="Pfad_706" data-name="Pfad 706" d="M602.867,21.35q-.442,1.585-.887,3.172V37.9q-.109,1.005-.222,2.011V66.062c-.073.67-.148,1.341-.221,2.011V93.755q-.111,1.238-.222,2.475v25.837c-.073.774-.149,1.547-.222,2.321v25.373q-.109,1.159-.222,2.32-.441,52.176-.886,104.353v33.882q.332,1.353.665,2.707.664,1.857,1.33,3.713-.555-5.143-1.109-10.288v-7.89q1-128.606,2-257.208" fill="#585858"/>
    <path id="Pfad_707" data-name="Pfad 707" d="M274.051,22.279q-.333,1.2-.665,2.4V43.32q-.109,1.778-.222,3.558V71.632q-.109,1.7-.222,3.4v24.6q-.109,1.7-.221,3.4v24.6q-.111,1.779-.222,3.557v24.291c-.073.412-.149.824-.222,1.237v11.912q-.109,2.631-.222,5.261v17.637q-.109,2.94-.221,5.878v18.1q-.11,3.249-.222,6.5v23.98c-.073.206-.149.413-.222.619v42.7q1,3.635,2,7.271-.666-6.225-1.331-12.454,1-130.926,2-261.849" fill="#585858"/>
    <path id="Pfad_708" data-name="Pfad 708" d="M438.348,22.433q-.333,1.044-.665,2.089V40.844c-.073.876-.149,1.753-.222,2.63V69.156q-.109,1.238-.222,2.475V97q-.11,1.315-.221,2.63v25.373q-.111,1.392-.222,2.785v25.527c-.073.877-.149,1.753-.222,2.63V171.73q-.109,1.236-.222,2.475v16.4q-.109,2.553-.221,5.106-.333,36.938-.665,73.875.222,10.791.443,21.582.888,2.707,1.774,5.415-.555-4.912-1.109-9.824v-13.77q.888-125.277,1.774-250.555" fill="#585858"/>
    <path id="Pfad_709" data-name="Pfad 709" d="M108.2,159.972h-.222v12.686q-.11,2.629-.221,5.261v17.018q-.111,3.4-.222,6.807v19.494q-.11,2.629-.222,5.26v24.6q-.222,17.637-.443,35.274,1.107,4.95,2.217,9.9-.666-5.454-1.33-10.907c.306-41.53,1.255-83.78.443-125.394" fill="#585858"/>
    <path id="Pfad_710" data-name="Pfad 710" d="M1425.018,26.765q-.109,7.194-.222,14.388v5.57q-.109,10.443-.221,20.886V73.8q-.111,10.056-.222,20.113v7.117q-.109,9.978-.222,19.957v7.272q-.109,9.515-.222,19.029v8.2q-.109,8.895-.221,17.792v9.437q-.111,8.432-.222,16.864v10.211q-.109,8.046-.222,16.09v10.83q-.109,7.813-.221,15.625v11.294q-.111,7.194-.222,14.388v10.521q.109,1.16.222,2.321V292.1c.073.155.148.31.221.464.111,1.12-.49,3.433,1.441,3.559q.723-3.521,1.442-7.04,1-115.493,1.995-230.984V25.141c-.641-1.635-.082-4.078-1.441-5.338-1.266.053-.435.88-1.22,1.315q-.222,2.823-.443,5.647" fill="#979797"/>
    <path id="Pfad_711" data-name="Pfad 711" d="M1423.244,292.559c-.073-.154-.149-.309-.222-.464.073.155.149.31.222.464" fill="#585858"/>
    <path id="Pfad_712" data-name="Pfad 712" d="M1423.022,290.858c-.073-.774-.149-1.547-.222-2.321.073.774.149,1.547.222,2.321" fill="#585858"/>
    <path id="Pfad_713" data-name="Pfad 713" d="M353.65,289.156c-.073-.155-.149-.309-.222-.464.073.155.149.309.222.464"/>
    <path id="Pfad_714" data-name="Pfad 714" d="M1423.022,263.628q-.109,7.194-.222,14.388.109-7.194.222-14.388" fill="#585858"/>
    <path id="Pfad_715" data-name="Pfad 715" d="M1010.838,268.424c-.073.723-.149,1.444-.222,2.166.073-.722.149-1.443.222-2.166"/>
    <path id="Pfad_716" data-name="Pfad 716" d="M189.352,258.832c-.073.619-.149,1.238-.222,1.857.073-.619.149-1.238.222-1.857"/>
    <path id="Pfad_717" data-name="Pfad 717" d="M1423.244,236.709q-.109,7.813-.222,15.626.109-7.813.222-15.626" fill="#585858"/>
    <path id="Pfad_718" data-name="Pfad 718" d="M107.315,251.1v-.928c-.377-.271-.816,1.159,0,.928"/>
    <path id="Pfad_719" data-name="Pfad 719" d="M271.612,245.991c-.073.206-.149.413-.222.619.073-.206.149-.413.222-.619"/>
    <path id="Pfad_720" data-name="Pfad 720" d="M1011.06,240.112q-.109,1.161-.222,2.321.111-1.161.222-2.321"/>
    <path id="Pfad_721" data-name="Pfad 721" d="M189.574,229.128q-.109,3.325-.222,6.653.109-3.326.222-6.653"/>
    <path id="Pfad_722" data-name="Pfad 722" d="M353.871,233.46c-.073.309-.149.619-.222.928.073-.309.149-.619.222-.928"/>
    <path id="Pfad_723" data-name="Pfad 723" d="M978.467,230.984h-9.312a16.817,16.817,0,0,0,9.312,0" fill="#f3f3f3"/>
    <path id="Pfad_724" data-name="Pfad 724" d="M929.022,227.89c-.073.723-.148,1.443-.222,2.166.074-.723.149-1.443.222-2.166"/>
    <path id="Pfad_725" data-name="Pfad 725" d="M107.536,221.238q-.11,2.629-.222,5.26.109-2.63.222-5.26"/>
    <path id="Pfad_726" data-name="Pfad 726" d="M1423.466,209.789q-.109,8.046-.222,16.09.109-8.046.222-16.09" fill="#585858"/>
    <path id="Pfad_727" data-name="Pfad 727" d="M.222,220.155q.111,2.477.222,4.95-.111-2.475-.222-4.95" fill="#cacbcb"/>
    <path id="Pfad_728" data-name="Pfad 728" d="M271.834,215.513q-.11,3.249-.222,6.5.109-3.249.222-6.5"/>
    <path id="Pfad_729" data-name="Pfad 729" d="M0,.619Q.112,109.3.222,217.989.553,184.995.888,152,.444,76.311,0,.619" fill="#cacbcb"/>
    <path id="Pfad_730" data-name="Pfad 730" d="M189.8,204.838q-.109,3.173-.222,6.343.109-3.173.222-6.343"/>
    <path id="Pfad_731" data-name="Pfad 731" d="M354.093,203.755q-.109,2.94-.222,5.879.109-2.94.222-5.879"/>
    <path id="Pfad_732" data-name="Pfad 732" d="M929.244,199.887c-.073.67-.149,1.341-.222,2.011.073-.67.149-1.341.222-2.011"/>
    <path id="Pfad_733" data-name="Pfad 733" d="M107.758,194.937q-.11,3.4-.222,6.806.109-3.4.222-6.806"/>
    <path id="Pfad_734" data-name="Pfad 734" d="M1423.688,182.714q-.109,8.432-.222,16.864.109-8.432.222-16.864" fill="#585858"/>
    <path id="Pfad_735" data-name="Pfad 735" d="M272.055,191.533q-.109,2.94-.222,5.879.109-2.94.222-5.879"/>
    <path id="Pfad_736" data-name="Pfad 736" d="M436.353,190.6q-.109,2.553-.222,5.105.109-2.552.222-5.105"/>
    <path id="Pfad_737" data-name="Pfad 737" d="M847.206,187.356c-.073.723-.149,1.443-.222,2.166.073-.723.149-1.443.222-2.166"/>
    <path id="Pfad_738" data-name="Pfad 738" d="M190.018,180.394q-.109,3.173-.222,6.343.109-3.173.222-6.343"/>
    <path id="Pfad_739" data-name="Pfad 739" d="M354.315,181.322q-.109,2.4-.222,4.8.109-2.4.222-4.8"/>
    <path id="Pfad_740" data-name="Pfad 740" d="M107.98,172.658q-.11,2.629-.222,5.26.109-2.63.222-5.26"/>
    <path id="Pfad_741" data-name="Pfad 741" d="M765.169,173.741c-.073.309-.149.619-.222.928.073-.309.149-.619.222-.928"/>
    <path id="Pfad_742" data-name="Pfad 742" d="M436.574,171.73c-.073.825-.149,1.651-.222,2.475.073-.824.149-1.65.222-2.475"/>
    <path id="Pfad_743" data-name="Pfad 743" d="M272.277,168.635q-.109,2.631-.222,5.26.109-2.628.222-5.26"/>
    <path id="Pfad_744" data-name="Pfad 744" d="M929.466,172.194c-.073.515-.149,1.032-.222,1.547.073-.515.149-1.032.222-1.547"/>
    <path id="Pfad_745" data-name="Pfad 745" d="M1423.909,155.485q-.109,8.895-.222,17.792.109-8.895.222-17.792" fill="#585858"/>
    <path id="Pfad_746" data-name="Pfad 746" d="M354.536,167.243c-.072.619-.148,1.238-.221,1.857.073-.619.149-1.238.221-1.857"/>
    <path id="Pfad_747" data-name="Pfad 747" d="M1221.7,163.839l-9.312.155c2.636.648,6.922.783,9.312-.155" fill="#f3f3f3"/>
    <path id="Pfad_748" data-name="Pfad 748" d="M1388.655,163.685c-.038-.1-.073-.206-.111-.309l-8.98.309a20.675,20.675,0,0,0,9.091,0" fill="#f3f3f3"/>
    <path id="Pfad_749" data-name="Pfad 749" d="M190.239,159.972q-.109,2.012-.222,4.022.109-2.012.222-4.022"/>
    <path id="Pfad_750" data-name="Pfad 750" d="M847.428,159.2c-.073.723-.149,1.443-.222,2.166.073-.723.149-1.443.222-2.166"/>
    <path id="Pfad_751" data-name="Pfad 751" d="M683.131,158.889c-.073.464-.149.928-.222,1.392.073-.464.149-.928.222-1.392"/>
    <path id="Pfad_752" data-name="Pfad 752" d="M108.2,159.972v-1.7c-.073.568-.149,1.134-.222,1.7Z"/>
    <path id="Pfad_753" data-name="Pfad 753" d="M518.834,157.96c-.073.619-.149,1.238-.222,1.857.073-.619.149-1.238.222-1.857"/>
    <path id="Pfad_754" data-name="Pfad 754" d="M272.5,155.485c-.073.413-.149.825-.222,1.238.073-.413.149-.825.222-1.238"/>
    <path id="Pfad_755" data-name="Pfad 755" d="M436.8,153.319c-.073.877-.149,1.753-.222,2.63.073-.877.149-1.753.222-2.63"/>
    <path id="Pfad_756" data-name="Pfad 756" d="M601.093,149.761c-.073.774-.149,1.547-.222,2.321.073-.774.149-1.547.222-2.321"/>
    <path id="Pfad_757" data-name="Pfad 757" d="M765.39,146.821c-.073.774-.149,1.547-.222,2.321.073-.774.149-1.547.222-2.321"/>
    <path id="Pfad_758" data-name="Pfad 758" d="M108.423,134.6H108.2q.11,6.5.222,13Z" fill="#585858"/>
    <path id="Pfad_759" data-name="Pfad 759" d="M1424.131,128.256q-.109,9.515-.222,19.03.109-9.516.222-19.03" fill="#585858"/>
    <path id="Pfad_760" data-name="Pfad 760" d="M190.461,143.108q-.109,1.934-.222,3.868.109-1.934.222-3.868"/>
    <path id="Pfad_761" data-name="Pfad 761" d="M354.758,140.478c-.073,1.032-.149,2.062-.222,3.094.073-1.032.149-2.062.222-3.094"/>
    <path id="Pfad_762" data-name="Pfad 762" d="M519.055,137.538c-.073.877-.149,1.754-.222,2.631.073-.877.149-1.754.222-2.631"/>
    <path id="Pfad_763" data-name="Pfad 763" d="M683.353,134.444c-.073.774-.149,1.547-.222,2.321.073-.774.149-1.547.222-2.321"/>
    <path id="Pfad_764" data-name="Pfad 764" d="M108.423,134.6v-3.713q-.109,1.857-.222,3.713Z"/>
    <path id="Pfad_765" data-name="Pfad 765" d="M847.65,131.2c-.073.723-.148,1.443-.222,2.166.074-.723.149-1.443.222-2.166"/>
    <path id="Pfad_766" data-name="Pfad 766" d="M272.72,127.637q-.109,1.781-.221,3.558.109-1.779.221-3.558"/>
    <path id="Pfad_767" data-name="Pfad 767" d="M437.018,125.007c-.073.928-.149,1.857-.222,2.785.073-.928.149-1.857.222-2.785"/>
    <path id="Pfad_768" data-name="Pfad 768" d="M109.532,24.754q-.223,10.984-.443,21.969-.111,1.779-.222,3.558V74.726q-.109,1.857-.222,3.713v24.444q-.109,1.78-.222,3.559.111,10.134.222,20.267.443-50.978.887-101.955" fill="#585858"/>
    <path id="Pfad_769" data-name="Pfad 769" d="M601.315,122.067c-.073.774-.149,1.547-.222,2.321.073-.774.149-1.547.222-2.321"/>
    <path id="Pfad_770" data-name="Pfad 770" d="M765.612,118.973q-.109,1-.222,2.011.111-1,.222-2.011"/>
    <path id="Pfad_771" data-name="Pfad 771" d="M1424.353,101.027q-.109,9.979-.222,19.958.109-9.979.222-19.958" fill="#585858"/>
    <path id="Pfad_772" data-name="Pfad 772" d="M190.683,115.26q-.109,1.78-.222,3.558.109-1.779.222-3.558"/>
    <path id="Pfad_773" data-name="Pfad 773" d="M354.98,111.7q-.109,1.857-.222,3.713.109-1.857.222-3.713"/>
    <path id="Pfad_774" data-name="Pfad 774" d="M519.277,109.691q-.109,1.161-.222,2.321.111-1.161.222-2.321"/>
    <path id="Pfad_775" data-name="Pfad 775" d="M683.574,106.287q-.109,1.161-.222,2.321.111-1.161.222-2.321"/>
    <path id="Pfad_776" data-name="Pfad 776" d="M108.645,102.883q-.109,1.78-.222,3.558.11-1.779.222-3.558"/>
    <path id="Pfad_777" data-name="Pfad 777" d="M272.942,99.634q-.109,1.7-.222,3.4.109-1.7.222-3.4"/>
    <path id="Pfad_778" data-name="Pfad 778" d="M437.239,97c-.073.877-.149,1.753-.222,2.63.073-.877.149-1.753.222-2.63"/>
    <path id="Pfad_779" data-name="Pfad 779" d="M978.467,97.778c-.038-.1-.073-.206-.111-.309l-8.98.309a16.675,16.675,0,0,0,9.091,0" fill="#f3f3f3"/>
    <path id="Pfad_780" data-name="Pfad 780" d="M601.537,93.755q-.109,1.238-.222,2.475.111-1.236.222-2.475"/>
    <path id="Pfad_781" data-name="Pfad 781" d="M1424.574,73.8q-.109,10.056-.222,20.113.112-10.058.222-20.113" fill="#585858"/>
    <path id="Pfad_782" data-name="Pfad 782" d="M765.834,90.816c-.073.67-.149,1.341-.222,2.011.073-.67.149-1.341.222-2.011"/>
    <path id="Pfad_783" data-name="Pfad 783" d="M190.9,87.257q-.11,1.779-.222,3.558.109-1.779.222-3.558"/>
    <path id="Pfad_784" data-name="Pfad 784" d="M355.2,83.854q-.109,1.7-.222,3.4.109-1.7.222-3.4"/>
    <path id="Pfad_785" data-name="Pfad 785" d="M519.5,81.378q-.109,1.238-.222,2.475.111-1.237.222-2.475"/>
    <path id="Pfad_786" data-name="Pfad 786" d="M683.8,78.439c-.073.67-.149,1.341-.222,2.011.073-.67.149-1.341.222-2.011"/>
    <path id="Pfad_787" data-name="Pfad 787" d="M108.867,74.726q-.109,1.857-.222,3.713.11-1.857.222-3.713"/>
    <path id="Pfad_788" data-name="Pfad 788" d="M273.164,71.631q-.109,1.7-.222,3.4.11-1.7.222-3.4"/>
    <path id="Pfad_789" data-name="Pfad 789" d="M437.461,69.156c-.073.825-.149,1.65-.222,2.475.073-.825.149-1.65.222-2.475"/>
    <path id="Pfad_790" data-name="Pfad 790" d="M601.758,66.062c-.073.67-.149,1.341-.222,2.011.073-.67.149-1.341.222-2.011"/>
    <path id="Pfad_791" data-name="Pfad 791" d="M1424.8,46.723q-.109,10.443-.222,20.886.109-10.443.222-20.886" fill="#585858"/>
    <path id="Pfad_792" data-name="Pfad 792" d="M766.055,62.813c-.073.619-.149,1.238-.222,1.857.073-.619.149-1.238.222-1.857"/>
    <path id="Pfad_793" data-name="Pfad 793" d="M191.126,59.409c-.073,1.083-.149,2.166-.222,3.249.073-1.083.149-2.166.222-3.249"/>
    <path id="Pfad_794" data-name="Pfad 794" d="M355.423,56.16c-.073,1.031-.149,2.063-.222,3.094.073-1.031.149-2.063.222-3.094"/>
    <path id="Pfad_795" data-name="Pfad 795" d="M519.721,53.53c-.073.774-.149,1.547-.222,2.321.073-.774.149-1.547.222-2.321"/>
    <path id="Pfad_796" data-name="Pfad 796" d="M684.018,50.436c-.073.619-.149,1.238-.222,1.857.073-.619.149-1.238.222-1.857"/>
    <path id="Pfad_797" data-name="Pfad 797" d="M109.089,46.723c-.073,1.186-.15,2.372-.222,3.558.072-1.186.149-2.372.222-3.558"/>
    <path id="Pfad_798" data-name="Pfad 798" d="M273.386,43.319q-.109,1.779-.222,3.558.109-1.779.222-3.558"/>
    <path id="Pfad_799" data-name="Pfad 799" d="M437.683,40.844c-.073.877-.149,1.753-.222,2.63.073-.877.149-1.753.222-2.63"/>
    <path id="Pfad_800" data-name="Pfad 800" d="M1425.018,26.765q-.109,7.194-.222,14.388.109-7.194.222-14.388" fill="#585858"/>
    <path id="Pfad_801" data-name="Pfad 801" d="M601.98,37.9c-.073.67-.149,1.341-.222,2.011.073-.67.149-1.341.222-2.011"/>
    <path id="Pfad_802" data-name="Pfad 802" d="M191.348,30.942q-.11,1.779-.222,3.558.109-1.779.222-3.558"/>
    <path id="Pfad_803" data-name="Pfad 803" d="M355.645,28.158c-.073.98-.149,1.959-.222,2.94.073-.981.149-1.96.222-2.94"/>
    <path id="Pfad_804" data-name="Pfad 804" d="M519.942,26.765c-.073.309-.149.619-.222.928.073-.309.149-.619.222-.928"/>
    <path id="Pfad_805" data-name="Pfad 805" d="M109.754,22.124c-.073.155-.149.309-.222.464.073-.155.149-.309.222-.464" fill="#585858"/>
    <path id="Pfad_806" data-name="Pfad 806" d="M438.57,21.195c-.073.206-.149.413-.222.619.073-.206.149-.413.222-.619" fill="#585858"/>
    <path id="Pfad_807" data-name="Pfad 807" d="M520.829,20.731c-.073.155-.148.309-.222.464.074-.155.149-.309.222-.464" fill="#585858"/>
    <path id="Pfad_808" data-name="Pfad 808" d="M1095.98,20.112c-.073.1-.148.206-.222.309.074-.1.149-.206.222-.309" fill="#979797"/>
    <path id="Pfad_809" data-name="Pfad 809" d="M1342.759,19.494c-.15.309-.3.619-.443.928.148-.309.293-.619.443-.928" fill="#979797"/>
    <path id="Pfad_810" data-name="Pfad 810" d="M1178.24,19.958c-.073.1-.149.206-.222.309.073-.1.149-.206.222-.309" fill="#979797"/>
    <path id="Pfad_811" data-name="Pfad 811" d="M1260.5,19.648c-.073.155-.149.309-.222.464.073-.155.149-.309.222-.464" fill="#979797"/>
    <path id="Pfad_812" data-name="Pfad 812" d="M1013.942,19.648c-.073.1-.149.206-.222.309.073-.1.149-.206.222-.309" fill="#979797"/>
    <path id="Pfad_813" data-name="Pfad 813" d="M1182.009,11.139h-1.552q-.443,2.4-.887,4.8.333,1,.665,2.011c2.452,2.225,2.546-1.8,3.437-2.784h74.721a4.145,4.145,0,0,0,1.884-2.708c-.037-.18-.073-.361-.11-.541l-6.874-.155-70.508.155-.776-.774" fill="#7b7e7f"/>
    <path id="Pfad_814" data-name="Pfad 814" d="M1264.268,11.139h-.887l-.665.155q-.442,2.242-.887,4.486.333,1.161.665,2.321c2.233,1.913,2.574-2.036,3.215-2.939h74.943c1.321-.577,1.443-1.778,1.884-2.863-.037-.129-.073-.258-.11-.386l-7.317-.155-67.626.309c-1.1-.494-3.013.4-3.215-.928" fill="#7b7e7f"/>
    <path id="Pfad_815" data-name="Pfad 815" d="M1346.084,11.139h-.665l-.444.155h-.221q-.443,2.475-.887,4.95.333.929.665,1.857c2.3,2,2.681-1.952,3.215-2.939l70.619-.078q-1.387-1.585-2.772-3.171l-65.408.154c-1.43-.512-3.375.44-4.1-.928" fill="#7b7e7f"/>
    <path id="Pfad_816" data-name="Pfad 816" d="M853.858,11.139l-1.109-.309-.887.309c-.294,1.289-.592,2.579-.886,3.868.294.98.592,1.96.886,2.939,2.444,1.867,2.6-2.02,3.437-2.939l73.169.155a2.986,2.986,0,0,0,2.772-2.089c-.038-.438-.074-.877-.111-1.315l-76.717.155-.554-.774" fill="#7b7e7f"/>
    <path id="Pfad_817" data-name="Pfad 817" d="M935.9,11.139l-.887-.155-.887.155q-.442,1.934-.887,3.868.333,1.392.665,2.785c2.371,2.332,2.612-1.64,3.437-2.63h73.834a3.179,3.179,0,0,0,2.328-2.244c-.037-.387-.073-.773-.111-1.16l-76.716.155-.776-.774" fill="#7b7e7f"/>
    <path id="Pfad_818" data-name="Pfad 818" d="M1017.933,11.139l-.887-.155-.887.155q-.441,2.166-.887,4.332l.666,2.166c2.219,2.621,2.807-1.26,3.436-2.475h74.278c1.4-.488,1.662-1.29,2.106-2.4.712-1.782-5.117-.291-6.319-1l-70.73.155-.776-.774" fill="#7b7e7f"/>
    <path id="Pfad_819" data-name="Pfad 819" d="M1099.971,11.139l-.887-.155-.665.155q-.442,2.088-.887,4.177.333,1.316.665,2.63c2.115,2.018,2.781-1.747,3.215-2.784h74.5c1.643-.622,1.6-1.408,2.107-2.553.1-1.574-5.3-.138-6.763-.851l-70.508.155-.776-.774" fill="#7b7e7f"/>
    <path id="Pfad_820" data-name="Pfad 820" d="M443.448,10.984c-.295-.052-.592-.1-.887-.155h-1.33q-.442,1.549-.887,3.095.443,1.856.887,3.714c2.235,2.094,2.729-1.579,3.436-2.631H518.5q.833-1.045,1.663-2.089c.918-2.253-3.953-.566-5.432-1.315L444,11.758l-.554-.774" fill="#7b7e7f"/>
    <path id="Pfad_821" data-name="Pfad 821" d="M525.707,11.139,524.6,10.83h-1.33q-.333,1.547-.665,3.094.333,1.779.665,3.558c2.109,2.5,2.929-1.35,3.437-2.475H600.76l1.663-2.244c.787-2.079-4.545-.364-5.654-1.16l-70.729.155-.333-.619" fill="#7b7e7f"/>
    <path id="Pfad_822" data-name="Pfad 822" d="M607.745,11.139l-.665-.309h-.222l-1.33.154q-.443,1.625-.887,3.249.442,1.779.887,3.559c2.341,1.978,2.581-1.881,3.436-2.785H683.02c.776-.813,1.437-1.229,1.663-2.4.373-1.928-4.556-.012-5.876-1.006l-68.734.31c-.763-.485-2.346.348-2.328-.774" fill="#7b7e7f"/>
    <path id="Pfad_823" data-name="Pfad 823" d="M689.782,11.139l-.887-.155h-1.33q-.442,1.779-.887,3.559.443,1.547.887,3.094c2.255,2.306,2.765-1.6,3.436-2.63h74.056a4,4,0,0,0,1.886-2.553c-.039-.232-.074-.464-.112-.7l-6.208-.155-69.4.31-1.441-.774" fill="#7b7e7f"/>
    <path id="Pfad_824" data-name="Pfad 824" d="M771.82,11.139l-.887-.155h-1.109c-.294,1.135-.592,2.269-.886,3.4q.332,1.625.665,3.249c2.323,2.364,2.884-1.5,3.436-2.63l72.282.155c3-.018,3.488-1.337,3.881-3.172l-7.207-.387-69.4.31-.776-.774" fill="#7b7e7f"/>
    <path id="Pfad_825" data-name="Pfad 825" d="M115.075,10.83l-.887-.155-1.552-.154q-.333,1.314-.665,2.63.555,2.4,1.108,4.8c2.608,1.077,2.067-2.621,3.659-3.1l71.838.155a3.372,3.372,0,0,0,2.772-2.243c1.02-2.253-3.823-.272-5.211-1.315l-70.508.309-.554-.928" fill="#7b7e7f"/>
    <path id="Pfad_826" data-name="Pfad 826" d="M197.113,10.83l-.887-.155c-.275.677-.889-.2-1.552,0q-.333,1.393-.665,2.785.555,2.166,1.108,4.332c2.087,1.588,2.6-1.933,3.215-2.785h72.726a3.6,3.6,0,0,0,2.55-2.4c.836-1.967-4.14-.105-5.433-1.16l-70.064.309-1-.928" fill="#7b7e7f"/>
    <path id="Pfad_827" data-name="Pfad 827" d="M279.151,10.83l-.887-.155c-.463.772-.705-.1-1.33,0q-.333,1.315-.665,2.63.441,2.244.886,4.487c2.12,1.573,2.75-1.875,3.215-2.785h73.39a4.007,4.007,0,0,0,2.107-2.707c-.037-.232-.073-.464-.111-.7l-75.829.154-.776-.928" fill="#7b7e7f"/>
    <path id="Pfad_828" data-name="Pfad 828" d="M361.41,10.984l-.887-.308c-.237.591-1.146.25-1.33-.155-.073.051-.149.1-.222.155q-.333,1.469-.665,2.939.443,2.012.887,4.023c2.184,2.007,2.654-1.684,3.436-2.631h73.613q.831-.967,1.663-1.934c.944-2.449-3.353-.725-4.989-1.47l-70.952.155-.554-.774" fill="#7b7e7f"/>
    <path id="Pfad_829" data-name="Pfad 829" d="M37.25,10.984l-.887-.308c-.7-.154-1.754-.5-1.774-1.084-.148-.052-.3-.1-.443-.154q-.666.385-1.33.773-.444,2.553-.887,5.1l1.663,2.166a6.867,6.867,0,0,0,3.325-2.629l68.956.154c2-.036,2.548-1.046,3.215-2.089.847-2.619-3.343-.372-4.988-1.47l-64.522.31c-.635-.542-2.777.445-2.328-.774" fill="#7b7e7f"/>
    <path id="Pfad_830" data-name="Pfad 830" d="M1425.461,12.068l-5.765-1.857-8.093-.773L1021.37,9.283l-661.4-.155c-.547.489.318.6-1.108.774.483-.988.368-.315-.887-.774H277.931l-.665.619-1.331-.619H197.667l-2.883.619c-.073-.206-.148-.412-.221-.619H114.077l-1.552.619c-.149-.206-.295-.412-.444-.619l-74.055.155c-1.073-.4-1.885-.172-2.328-1.16l5.543.077V7.891h-.887l-.665-.155-5.322-.464q-.11,1.083-.221,2.166l.443.155c.816.333,1.7.322,1.774,1.083l.887.309.332-.309,73.169.309,1.885-.619c-.2-.774,1.406.2,1.552.31l.887.154,77.936.155,1.663-.464c.294-.694,1.246-.063,1.552.155l.886.154,78.6.155,1.22-.464c-.151-.767,1.2.017,1.33.155l.887.154,79.821-.154.221-.155c-.1-.811.947.2,1.331.155l.887.309,79.82-.309c-.326-.937,1.175-.184,1.33.154l.887.155,79.821-.155c.179-.7.962-.439,1.33,0l1.109.31,79.82-.31c-.213-.982.883-.133,1.331,0h.221l.666.31,79.82-.31c.237-.591,1.146-.252,1.33.155l.887.155,80.042-.155c-.248-.842.934-.417,1.109,0l.887.155,80.042-.155c.2-.381.5-.763.887-.155l1.109.31,80.264-.155c-.2-.85.683-.359.887,0l.886.155h80.264c.2-.382.5-.763.887-.155l.887.155h80.486c-.191-.594.443-.607.665-.155l.887.155h80.707c-.164-.538.619-.293.665,0h81.373c-.162-.538.619-.293.665,0h.887l80.486.154h.221l.444-.154h70.4l9.645.928M441.119,9.9c-.607-.659,1.2-.113,0,0m82.038,0c-.714-.711,1.867-.051,0,0" fill="#243845"/>
    <path id="Pfad_831" data-name="Pfad 831" d="M1181.344,11.139c-.047-.293-.829-.537-.665,0Z" fill="#7b8085"/>
    <path id="Pfad_832" data-name="Pfad 832" d="M1263.381,11.139c-.047-.293-.827-.538-.665,0v.155l.665-.155" fill="#7b8085"/>
    <path id="Pfad_833" data-name="Pfad 833" d="M1345.419,11.139l-.443.155.443-.155" fill="#7b8085"/>
    <path id="Pfad_834" data-name="Pfad 834" d="M606.858,10.83h0c-.448-.134-1.543-.982-1.33,0v.155l1.33-.155" fill="#7b8085"/>
    <path id="Pfad_835" data-name="Pfad 835" d="M688.9,10.984c-.184-.407-1.093-.746-1.33-.155v.155Z" fill="#7b8085"/>
    <path id="Pfad_836" data-name="Pfad 836" d="M770.933,10.984c-.175-.416-1.357-.842-1.109,0Z" fill="#7b8085"/>
    <path id="Pfad_837" data-name="Pfad 837" d="M852.749,10.83c-.386-.608-.685-.226-.887.155v.154l.887-.309" fill="#7b8085"/>
    <path id="Pfad_838" data-name="Pfad 838" d="M935.009,10.984c-.2-.359-1.082-.85-.887,0v.155l.887-.155" fill="#7b8085"/>
    <path id="Pfad_839" data-name="Pfad 839" d="M1017.047,10.984c-.386-.608-.685-.226-.887.155l.887-.155" fill="#7b8085"/>
    <path id="Pfad_840" data-name="Pfad 840" d="M1099.084,10.984c-.222-.451-.856-.438-.665.155l.665-.155" fill="#7b8085"/>
    <path id="Pfad_841" data-name="Pfad 841" d="M196.226,10.675c-.306-.218-1.257-.849-1.552-.155v.155c.663-.2,1.277.677,1.552,0" fill="#7b8085"/>
    <path id="Pfad_842" data-name="Pfad 842" d="M278.264,10.675c-.131-.138-1.481-.922-1.33-.155v.155c.625-.1.867.772,1.33,0" fill="#7b8085"/>
    <path id="Pfad_843" data-name="Pfad 843" d="M360.523,10.675c-.384.046-1.43-.966-1.33-.155.184.407,1.093.747,1.33.155" fill="#7b8085"/>
    <path id="Pfad_844" data-name="Pfad 844" d="M442.561,10.83c-.155-.339-1.656-1.091-1.33-.155v.155Z" fill="#7b8085"/>
    <path id="Pfad_845" data-name="Pfad 845" d="M524.6,10.83c-.368-.44-1.151-.7-1.331,0Z" fill="#7b8085"/>
    <path id="Pfad_846" data-name="Pfad 846" d="M114.188,10.675c-.146-.11-1.749-1.084-1.552-.309v.154l1.552.155" fill="#7b8085"/>
    <path id="Pfad_847" data-name="Pfad 847" d="M36.363,10.675c-.072-.761-.957-.749-1.774-1.083.02.587,1.074.93,1.774,1.083" fill="#7b8085"/>
    <path id="Pfad_848" data-name="Pfad 848" d="M1419.7,10.211l-12.306-1.547L46.119,8.354,43.237,8.2l-.443-.155H41.685l-.443.155L35.7,8.122c.443.988,1.255.759,2.328,1.161l74.056-.155c.149.206.295.413.444.619l1.552-.619h80.485c.073.206.149.413.222.619l2.882-.619h78.269l1.33.619.665-.619h80.043c1.255.458,1.37-.215.886.774,1.426-.178.562-.285,1.109-.774l661.4.155,390.233.154,8.093.774" fill="#253f52"/>
    <path id="Pfad_849" data-name="Pfad 849" d="M34.146,9.437l.222-2.166c-1.222.278-1.727,2.221-1.552,2.94l1.33-.774" fill="#232f34"/>
    <path id="Pfad_850" data-name="Pfad 850" d="M43.237,8.2l-.443-.155.443.155" fill="#232f34"/>
    <path id="Pfad_851" data-name="Pfad 851" d="M41.685,8.045l-.443-.155V8.2l.443-.155" fill="#232f34"/>
    <path id="Pfad_852" data-name="Pfad 852" d="M40.354,7.89l-.665-.155.665.155" fill="#232f34"/>
    <path id="Pfad_853" data-name="Pfad 853" d="M29.046.155H27.937c-.366.456,1.476.456,1.109,0" fill="#fefefe"/>
    <path id="Pfad_854" data-name="Pfad 854" d="M229.613,166.544c2.047,1.12,5.308.828,7.575.184" fill="#f3f3f3"/>
    <path id="Pfad_855" data-name="Pfad 855" d="M237.847,167.611l-7.575-.184c2.047,1.12,5.308.828,7.575.184" fill="#f3f3f3"/>
    <path id="Pfad_856" data-name="Pfad 856" d="M237.847,167.611q1.23-.736,2.462-1.472a26.373,26.373,0,0,1-12.689-.183l2.652,1.471,7.575.184" fill="#e0e0e0"/>
    <path id="Pfad_857" data-name="Pfad 857" d="M240.309,166.139l2.651-2.759c-.157-.307-.316-.613-.473-.92-.875,1.4-1.807.41-2.841,1.1-.935-.158-1.831.493-1.515-.736a8.022,8.022,0,0,1-4.356-.368c-1.089-1.615-2.776-1.876-4.545-2.759-1.409-.7-1.5-3.127-2.746-3.035-.544-1.528-1-2.952-.379-4.414l-1.515.643c-1.576,4.227-1.172,10.459,3.03,13.06a26.361,26.361,0,0,0,12.689.184" fill="#cacaca"/>
    <path id="Pfad_858" data-name="Pfad 858" d="M242.96,163.38c2.928-4.578,1.922-12.227-3.5-15.083-5.4-2.844-12.3-.791-14.866,4.6l1.515-.643c-.622,1.462-.165,2.886.378,4.414,1.248-.092,1.338,2.331,2.747,3.035,1.768.883,3.456,1.144,4.545,2.759a8.022,8.022,0,0,0,4.356.368c-.317,1.229.579.578,1.515.736,1.034-.694,1.966.292,2.841-1.1.157.307.316.613.473.92" fill="#a8a8a8"/>
    <path id="Pfad_859" data-name="Pfad 859" d="M399.223,167.611l-7.575-.184c2.047,1.12,5.308.828,7.575.184" fill="#f3f3f3"/>
    <path id="Pfad_860" data-name="Pfad 860" d="M399.223,167.611q1.23-.736,2.462-1.472A26.373,26.373,0,0,1,389,165.956l2.652,1.471,7.575.184" fill="#e0e0e0"/>
    <path id="Pfad_861" data-name="Pfad 861" d="M401.685,166.139l2.651-2.759c-.157-.307-.316-.613-.473-.92-.875,1.4-1.807.41-2.841,1.1-.935-.158-1.831.493-1.515-.736a8.022,8.022,0,0,1-4.356-.368c-1.089-1.615-2.776-1.876-4.545-2.759-1.409-.7-1.5-3.127-2.746-3.035-.544-1.528-1-2.952-.379-4.414l-1.515.643c-1.576,4.227-1.172,10.459,3.03,13.06a26.361,26.361,0,0,0,12.689.184" fill="#cacaca"/>
    <path id="Pfad_862" data-name="Pfad 862" d="M404.336,163.38c2.928-4.578,1.922-12.227-3.5-15.083-5.4-2.844-12.3-.791-14.866,4.6l1.515-.643c-.622,1.462-.165,2.886.378,4.414,1.248-.092,1.338,2.331,2.747,3.035,1.768.883,3.456,1.144,4.545,2.759a8.022,8.022,0,0,0,4.356.368c-.317,1.229.579.578,1.515.736,1.034-.694,1.966.292,2.841-1.1.157.307.316.613.473.92" fill="#a8a8a8"/>
    <path id="Pfad_863" data-name="Pfad 863" d="M563.87,166.611l-7.575-.184c2.047,1.12,5.308.828,7.575.184" fill="#f3f3f3"/>
    <path id="Pfad_864" data-name="Pfad 864" d="M563.87,166.611q1.23-.736,2.462-1.472a26.373,26.373,0,0,1-12.689-.183l2.652,1.471,7.575.184" fill="#e0e0e0"/>
    <path id="Pfad_865" data-name="Pfad 865" d="M566.332,165.139l2.651-2.759c-.157-.307-.316-.613-.473-.92-.875,1.4-1.807.41-2.841,1.1-.935-.158-1.831.493-1.515-.736a8.022,8.022,0,0,1-4.356-.368c-1.089-1.615-2.776-1.876-4.545-2.759-1.409-.7-1.5-3.127-2.746-3.035-.544-1.528-1-2.952-.379-4.414l-1.515.643c-1.576,4.227-1.172,10.459,3.03,13.06a26.361,26.361,0,0,0,12.689.184" fill="#cacaca"/>
    <path id="Pfad_866" data-name="Pfad 866" d="M568.983,162.38c2.928-4.578,1.922-12.227-3.5-15.083-5.4-2.844-12.3-.791-14.866,4.6l1.515-.643c-.622,1.462-.165,2.886.378,4.414,1.248-.092,1.338,2.331,2.747,3.035,1.768.883,3.456,1.144,4.545,2.759a8.022,8.022,0,0,0,4.356.368c-.317,1.229.579.578,1.515.736,1.034-.694,1.966.292,2.841-1.1.157.307.316.613.473.92" fill="#a8a8a8"/>
    <path id="Pfad_867" data-name="Pfad 867" d="M727.375,166.611l-7.575-.184c2.047,1.12,5.308.828,7.575.184" fill="#f3f3f3"/>
    <path id="Pfad_868" data-name="Pfad 868" d="M727.375,166.611q1.23-.736,2.462-1.472a26.373,26.373,0,0,1-12.689-.183l2.652,1.471,7.575.184" fill="#e0e0e0"/>
    <path id="Pfad_869" data-name="Pfad 869" d="M729.837,165.139l2.651-2.759c-.157-.307-.316-.613-.473-.92-.875,1.4-1.807.41-2.841,1.1-.935-.158-1.831.493-1.515-.736a8.022,8.022,0,0,1-4.356-.368c-1.089-1.615-2.776-1.876-4.545-2.759-1.409-.7-1.5-3.127-2.746-3.035-.544-1.528-1-2.952-.379-4.414l-1.515.643c-1.576,4.227-1.172,10.459,3.03,13.06a26.361,26.361,0,0,0,12.689.184" fill="#cacaca"/>
    <path id="Pfad_870" data-name="Pfad 870" d="M732.489,162.38c2.928-4.578,1.922-12.227-3.5-15.083-5.4-2.844-12.3-.791-14.866,4.6l1.515-.643c-.622,1.462-.165,2.886.378,4.414,1.248-.092,1.337,2.331,2.747,3.035,1.768.883,3.456,1.144,4.545,2.759a8.021,8.021,0,0,0,4.356.368c-.317,1.229.579.578,1.515.736,1.034-.694,1.966.292,2.84-1.1.158.307.317.613.474.92" fill="#a8a8a8"/>
    <path id="Pfad_871" data-name="Pfad 871" d="M977.022,232.611l-7.575-.184c2.047,1.12,5.308.828,7.575.184" fill="#f3f3f3"/>
    <path id="Pfad_872" data-name="Pfad 872" d="M977.022,232.611q1.23-.736,2.462-1.472a26.373,26.373,0,0,1-12.689-.183l2.652,1.471,7.575.184" fill="#e0e0e0"/>
    <path id="Pfad_873" data-name="Pfad 873" d="M979.484,231.139l2.651-2.759c-.157-.307-.316-.613-.473-.92-.875,1.4-1.807.41-2.841,1.1-.935-.158-1.831.493-1.515-.736a8.022,8.022,0,0,1-4.356-.368c-1.089-1.615-2.776-1.876-4.545-2.759-1.409-.7-1.5-3.127-2.746-3.035-.544-1.528-1-2.952-.379-4.414l-1.515.643c-1.576,4.227-1.172,10.459,3.03,13.06a26.361,26.361,0,0,0,12.689.184" fill="#cacaca"/>
    <path id="Pfad_874" data-name="Pfad 874" d="M982.135,228.38c2.928-4.578,1.922-12.227-3.5-15.083-5.4-2.844-12.3-.791-14.866,4.6l1.515-.643c-.622,1.462-.165,2.886.378,4.414,1.248-.092,1.337,2.331,2.747,3.035,1.768.883,3.456,1.144,4.545,2.759a8.022,8.022,0,0,0,4.356.368c-.317,1.229.579.578,1.515.736,1.034-.694,1.966.292,2.84-1.1.158.307.317.613.474.92" fill="#a8a8a8"/>
    <path id="Pfad_875" data-name="Pfad 875" d="M977.951,99.752l-7.575-.184c2.047,1.12,5.308.828,7.575.184" fill="#f3f3f3"/>
    <path id="Pfad_876" data-name="Pfad 876" d="M977.951,99.752q1.23-.736,2.462-1.472a26.373,26.373,0,0,1-12.689-.183l2.652,1.471,7.575.184" fill="#e0e0e0"/>
    <path id="Pfad_877" data-name="Pfad 877" d="M980.413,98.281l2.651-2.76c-.157-.306-.316-.612-.473-.919-.875,1.4-1.807.41-2.841,1.1-.935-.158-1.831.493-1.515-.737a8.012,8.012,0,0,1-4.356-.367c-1.089-1.616-2.776-1.876-4.545-2.76-1.409-.7-1.5-3.127-2.746-3.035-.544-1.528-1-2.952-.379-4.414-.506.216-1.009.429-1.515.643-1.576,4.228-1.172,10.459,3.03,13.06a26.349,26.349,0,0,0,12.689.185" fill="#cacaca"/>
    <path id="Pfad_878" data-name="Pfad 878" d="M983.065,95.521c2.927-4.578,1.922-12.227-3.505-15.083-5.4-2.844-12.3-.791-14.865,4.6l1.515-.643c-.622,1.462-.166,2.886.378,4.414,1.248-.092,1.338,2.331,2.747,3.035,1.768.883,3.456,1.144,4.545,2.759a8.021,8.021,0,0,0,4.356.368c-.317,1.229.579.578,1.514.736,1.034-.694,1.966.292,2.841-1.1.158.307.317.613.474.92" fill="#a8a8a8"/>
    <path id="Pfad_879" data-name="Pfad 879" d="M1220.727,165.211l-7.575-.184c2.047,1.12,5.308.828,7.575.184" fill="#f3f3f3"/>
    <path id="Pfad_880" data-name="Pfad 880" d="M1220.727,165.211q1.23-.736,2.462-1.472a26.373,26.373,0,0,1-12.689-.183l2.652,1.471,7.575.184" fill="#e0e0e0"/>
    <path id="Pfad_881" data-name="Pfad 881" d="M1223.189,163.739l2.651-2.759c-.157-.307-.316-.613-.473-.92-.875,1.4-1.807.41-2.841,1.1-.936-.158-1.831.493-1.515-.736a8.022,8.022,0,0,1-4.356-.368c-1.089-1.615-2.776-1.876-4.545-2.759-1.409-.7-1.5-3.127-2.746-3.035-.544-1.528-1-2.952-.379-4.414l-1.515.643c-1.576,4.227-1.172,10.459,3.03,13.06a26.361,26.361,0,0,0,12.689.184" fill="#cacaca"/>
    <path id="Pfad_882" data-name="Pfad 882" d="M1225.84,160.98c2.928-4.578,1.922-12.227-3.5-15.083-5.4-2.844-12.3-.791-14.866,4.6l1.515-.643c-.622,1.462-.165,2.886.378,4.414,1.248-.092,1.337,2.331,2.747,3.035,1.768.883,3.456,1.144,4.545,2.759a8.021,8.021,0,0,0,4.356.368c-.317,1.229.579.578,1.515.736,1.034-.694,1.965.292,2.84-1.1.158.307.317.613.474.92" fill="#a8a8a8"/>
    <path id="Pfad_883" data-name="Pfad 883" d="M1387.374,165.211l-7.575-.184c2.047,1.12,5.308.828,7.575.184" fill="#f3f3f3"/>
    <path id="Pfad_884" data-name="Pfad 884" d="M1387.374,165.211q1.23-.736,2.462-1.472a26.374,26.374,0,0,1-12.689-.183l2.652,1.471,7.575.184" fill="#e0e0e0"/>
    <path id="Pfad_885" data-name="Pfad 885" d="M1389.836,163.739l2.651-2.759c-.157-.307-.316-.613-.473-.92-.875,1.4-1.807.41-2.841,1.1-.935-.158-1.831.493-1.515-.736a8.022,8.022,0,0,1-4.356-.368c-1.089-1.615-2.776-1.876-4.545-2.759-1.409-.7-1.5-3.127-2.746-3.035-.544-1.528-1-2.952-.379-4.414l-1.515.643c-1.576,4.227-1.172,10.459,3.03,13.06a26.361,26.361,0,0,0,12.689.184" fill="#cacaca"/>
    <path id="Pfad_886" data-name="Pfad 886" d="M1392.487,160.98c2.928-4.578,1.922-12.227-3.5-15.083-5.4-2.844-12.3-.791-14.866,4.6l1.515-.643c-.622,1.462-.165,2.886.378,4.414,1.248-.092,1.337,2.331,2.747,3.035,1.768.883,3.456,1.144,4.545,2.759a8.021,8.021,0,0,0,4.356.368c-.317,1.229.579.578,1.515.736,1.034-.694,1.965.292,2.84-1.1.158.307.317.613.474.92" fill="#a8a8a8"/>
  </g>
</svg>
