<svg id="main" xmlns="http://www.w3.org/2000/svg" xmlns:xlink="http://www.w3.org/1999/xlink" width="1224.89" height="342.512" viewBox="0 0 1224.89 342.512">
  <defs>
    <clipPath id="clip-path">
      <rect id="Rechteck_29" data-name="Rechteck 29" width="1224.89" height="342.512" fill="none"/>
    </clipPath>
  </defs>
  <g id="group_main" clip-path="url(#clip-path)">
    <path id="Pfad_169" data-name="Pfad 169" d="M39.1,350.427c-3.287,1.673-7.185-.265-10.881-.35q-.05-1.578-.1-3.157l-2.6,2.1-.963-.7H1.637c-.1-.146-.193-.293-.289-.439q-.194-34.9-.385-69.79-.29-3.025-.578-6.05v74.087q.386,1.23.77,2.455c4,6.7,13.338,5.049,20.126,6.926,6.539-.11,14.932,1.22,17.815-5.085" transform="translate(0 -13.048)" fill="#cacbcb"/>
    <path id="Pfad_170" data-name="Pfad 170" d="M39.1,353.387l1175.682-.175c2.93-.521,6.236-1.927,7.608-4.559l-9.534-1.4-1.54-.876h-60.474q-1.685.964-3.371,1.929c-.063.292-.129.584-.192.877-.1.232-.193.467-.289.7q-1.011-3.859-2.023-7.715c-.46,1.4-.479,3.116-2.022,4.209h-62.4l-3.37,1.929v.7c-.509,1.174-.526.169-.963-.263q-.771-3.814-1.541-7.628c-.063.847-.129,1.7-.192,2.543q-.819,1.36-1.638,2.718h-62.592q-1.684.964-3.37,1.929v.526q-.145.527-.289,1.052a37.03,37.03,0,0,1-2.215-10.871q-.1,2.5-.193,5l-1.637,2.368-62.015-.176-3.755,2.1-.193.35q-.144.525-.289,1.052c-1.3-3.414-1.714-7.246-2.215-10.872-.558,2.459,1.019,5.848-1.829,7.541l-62.208-.176-3.563,2.1c-.287,1.392-.483,1.392-.77,0v-.526l-.578-.614q-.673-5.042-1.348-10.082c-.8,3.072,1.585,6.874-1.637,9.294l-61.822-.176a7.578,7.578,0,0,0-4.141,2.1c.118,1.444-.466.9-.578,0q-.771-2.718-1.54-5.436c-.388,1.246-.738,3.208-2.6,3.507l-61.438-.176c-1.536.3-3.085.691-3.948,2.28l-.385.35-.192-.175c-.064-.175-.13-.35-.193-.526q-.674-2.366-1.348-4.734c-.876.908-.913,2.951-2.985,2.982l-61.245-.176a5.936,5.936,0,0,0-3.948,2.1c-.064.117-.129.233-.193.35h-.192l-1.734-5.786c-.518,1.344-.787,3.472-2.985,3.507l-62.207-.176-2.985,2.1-.193.526H585.1c-.063-.175-.129-.35-.192-.526v-.351q-.673-2.366-1.348-4.734c-.786,1.019-.909,3.162-3.178,3.157L518.17,346.2c-1.176,0-2.919,2.7-3.37,1.929-.063-.117-.129-.233-.193-.35v-.7q-.672-2.191-1.348-4.383c-.454,1.406-.733,3.637-2.985,3.682l-62.4-.176c-1.065-.194-3.457,3.337-3.37,1.578V347.6l-.193-.7-1.348-4.91c-.042,1.517-.362,4.11-2.793,4.384l-62.014-.176a5.144,5.144,0,0,0-3.467,2.1l-.289-.7-.193-.175v-.351q-.771-2.98-1.54-5.962c-.359,1.833.4,3.645-1.637,5.085H307.859a5.6,5.6,0,0,0-3.274,1.754c-.16-.233-.322-.468-.481-.7l-.193-.35q-.867-4.121-1.733-8.242c-.776,2.316,1.739,6.609-2.023,7.54q-30.333-.086-60.666-.175c-2.017.316-3.821.163-5.2,1.929l-.482-.7q-.962-4.734-1.926-9.469c-.847,2.571,2.1,7.535-2.022,8.417q-30.717-.086-61.437-.175c-1.7.349-2.954.244-4.237,1.754l-.482-.35-.192-.176v-.35q-.962-5.261-1.926-10.521c-1.136,2.864,2.4,8.548-1.83,9.819q-31.007-.086-62.015-.175c-1.5.37-2.671.367-3.851,1.754-.16-.175-.322-.35-.482-.526-.063-.117-.129-.233-.192-.35v-.7a44.784,44.784,0,0,1-1.734-12.45q-.194,2.236-.385,4.472.29,3.069.578,6.137l-1.252,1.666H31.874l-3.756,3.157v.7q.048,1.578.1,3.157c3.7.086,7.594,2.023,10.881.35" transform="translate(0 -16.007)"/>
    <path id="Pfad_171" data-name="Pfad 171" d="M28.118,333.872v-.7q-.385-67.73-.77-135.46V16.658q.29-2.542.577-5.085c.207-.848.342-4.371,2.312-3.332H31.2l.386.175,3.853.526H36.4l.386.175,2.7.175C39.252,6.573,39.869,4.2,39,2.1L24.844.175c.347.522-1.5.522-1.156,0L4.333,0C3.361.681.351-.539,0,.7L.771,171.056q-.291,35.9-.579,71.807v3.858q.1,3.769.193,7.54V259q.288,3.025.577,6.049.193,34.9.386,69.791l.288.439h22.92l.962.7,2.6-2.1" transform="translate(0 0)" fill="#fff"/>
    <path id="Pfad_172" data-name="Pfad 172" d="M1006.875,333.858l-.578-.789-1.155-11.047v-13.5q.961-140.545,1.926-281.091l1.155-5.786-.963.613v.526c-.063.117-.129.233-.192.35-1.428,5.8-.328,12.575-.963,18.675l-1.734,282.232a37.061,37.061,0,0,0,2.215,10.871l.289-1.052" transform="translate(0 -1.038)" fill="#585858"/>
    <path id="Pfad_173" data-name="Pfad 173" d="M1147.275,334.223q-.771-5.13-1.541-10.258V293.1l1.734-263.38q.528-3.9,1.059-7.8l-1.252,2.455c-1.117,8.942-.179,18.656-.77,27.794q-.773,137.519-1.541,275.042l2.022,7.715.289-.7" transform="translate(0 -1.051)" fill="#585858"/>
    <path id="Pfad_174" data-name="Pfad 174" d="M936.578,333.692c-.193-.321-.385-.644-.578-.964q-.384-3.419-.77-6.839-.193-5.786-.385-11.574.962-143.264,1.926-286.527l1.155-5.962-.77.088q-.1.526-.193,1.052c-.063.117-.129.234-.192.351-1.483,6.423-.3,13.873-.963,20.6q-.772,127.351-1.541,254.7c-.064.644-.129,1.285-.193,1.929v23.322c.5,3.625.917,7.457,2.215,10.871l.289-1.052" transform="translate(0 -1.047)" fill="#585858"/>
    <path id="Pfad_175" data-name="Pfad 175" d="M1077.171,334.047c-.193-.146-.385-.293-.578-.438l-1.155-10.7V301.343q.866-127.57,1.733-255.139.1-9.469.193-18.939.432-2.673.866-5.348c-.352.584-.707,1.169-1.059,1.754q-.384,5.391-.77,10.784l-1.734,291.7q.771,3.813,1.541,7.628c.437.431.455,1.436.963.263" transform="translate(0 -1.051)" fill="#585858"/>
    <path id="Pfad_176" data-name="Pfad 176" d="M866.475,349.035h-.77c.287,1.392.483,1.392.77,0" transform="translate(0 -16.74)" fill="#585858"/>
    <path id="Pfad_177" data-name="Pfad 177" d="M91.482,318.323q.1-28.057.193-56.113.094-2.018.192-4.033V234.153q.1-3.769.193-7.54v-19.99q.095-2.98.192-5.963V182.95q.1-1.315.193-2.63.1-4.911.193-9.82-.1-5.786-.193-11.573.1-2.192.193-4.384.094-3.6.192-7.19-.095-10.171-.192-20.34.094-1.755.192-3.507V95.274q.1-1.754.193-3.507V63.359q.094-1.754.192-3.507V31.445q.1-1.052.193-2.1c.063-.35.129-.7.193-1.052v-2.1c.063-.175.129-.35.192-.526a23.743,23.743,0,0,1,1.926-10.346q.29-1.489.578-2.981v-.175l-1.637.7-1.348-.351-61.534.351c-.031,1.366,1.872.27,2.6.877l54.889-.351c1.364,1.176,4.7-1.383,3.948,1.841q-.627,1.008-1.252,2.016H31.489a5.668,5.668,0,0,1-2.7,2.806c-1.514-.051-.619-2.254-1.444-2.806V198.294q.384,67.73.77,135.46l3.756-3.156H90.423l1.252-1.666q-.29-3.069-.578-6.137.193-2.236.385-4.472" transform="translate(0 -0.583)" fill="#232f34"/>
    <path id="Pfad_178" data-name="Pfad 178" d="M796.178,333.134q.771-6.095,1.541-12.187.867-136.6,1.733-273.2c-.27-9.011.786-18.54-1.155-26.917q-.289-1.665-.578-3.331l-1.156,4.208.963-.438-1.155,4.208q-.963,125.992-1.926,251.984v47.52l1.155,8.154c.112.9.7,1.445.578,0" transform="translate(0 -0.839)" fill="#979797"/>
    <path id="Pfad_179" data-name="Pfad 179" d="M1147.275,334.081c.064-.293.129-.584.193-.877q.672-6,1.348-12.012.867-132.3,1.733-264.608c-.491-11.855,1.2-24.622-1.348-35.684l-.578-1.93q-.674,2.63-1.348,5.261l1.252-2.455q-.53,3.9-1.059,7.8l-1.734,263.38v30.862q.773,5.13,1.541,10.258" transform="translate(0 -0.91)" fill="#979797"/>
    <path id="Pfad_180" data-name="Pfad 180" d="M585.289,349.587h0Z" transform="translate(0 -16.767)" fill="#232f34"/>
    <path id="Pfad_181" data-name="Pfad 181" d="M1077.171,333.887v-.7q.673-5.128,1.348-10.258.963-142.911,1.926-285.826a65.293,65.293,0,0,0-1.348-16.045q-.289-1.228-.578-2.455-.674,2.455-1.348,4.911c.352-.585.707-1.17,1.059-1.754q-.433,2.673-.866,5.348-.1,9.469-.193,18.939-.867,127.568-1.733,255.139v21.568l1.155,10.7c.193.145.385.292.578.438" transform="translate(0 -0.892)" fill="#979797"/>
    <path id="Pfad_182" data-name="Pfad 182" d="M585.482,349.035H584.9c.064.175.129.35.193.526h.192c.064-.176.129-.351.193-.526" transform="translate(0 -16.74)" fill="#585858"/>
    <path id="Pfad_183" data-name="Pfad 183" d="M655.586,349.4h0Z" transform="translate(0 -16.758)" fill="#979797"/>
    <path id="Pfad_184" data-name="Pfad 184" d="M725.5,349.4l.193.175-.193-.175" transform="translate(0 -16.758)" fill="#585858"/>
    <path id="Pfad_185" data-name="Pfad 185" d="M726.075,333.309q.673-5.305,1.348-10.609.1-7.629.193-15.256.771-124.852,1.54-249.7c-.412-12.252.958-25.239-.962-36.912q-.385-1.665-.771-3.331-.481,2.016-.963,4.033l.771-.263q-.579,2.016-1.156,4.033-.771,102.757-1.541,205.515-.094,46.029-.192,92.06c.127,3.349,1.433,6.853.963,10.083.063.175.129.35.192.526.064.058.129.118.193.175l.385-.35" transform="translate(0 -0.839)" fill="#979797"/>
    <path id="Pfad_186" data-name="Pfad 186" d="M1006.875,333.712v-.526c1.464-6.658,1.261-13.858,1.541-20.954q.867-132.567,1.733-265.134c-.183-8.7.645-17.771-1.155-25.865q-.386-1.315-.771-2.63-.482,1.754-.963,3.507l.963-.613-1.155,5.786q-.963,140.544-1.926,281.091v13.5l1.155,11.047.578.789" transform="translate(0 -0.892)" fill="#979797"/>
    <path id="Pfad_187" data-name="Pfad 187" d="M655.586,333.674l.193-.35-.193-.7q-.673-4.78-1.348-9.557V297.99q.771-136.427,1.541-272.85l1.155-3.682-.77.263c-1.549,5.417-1.1,11.556-1.156,17.536-.063.526-.129,1.052-.192,1.578V71.171q-.1.788-.193,1.578V102.91c-.063.584-.129,1.169-.193,1.753v30.162c-.063.584-.129,1.169-.192,1.753v29.986q-.1.964-.193,1.929v27c-.063.293-.129.585-.192.877q-.29,49.232-.578,98.462.193,16.525.385,33.054.867,2.893,1.733,5.786Z" transform="translate(0 -1.029)" fill="#585858"/>
    <path id="Pfad_188" data-name="Pfad 188" d="M936.578,333.511l.193-.35q.672-6.095,1.348-12.187.867-131.955,1.733-263.907c-.454-12.023,1.086-24.874-1.155-36.211q-.289-1.4-.578-2.806-.483,1.841-.963,3.682l.77-.088-1.155,5.962q-.963,143.266-1.926,286.527.194,5.786.385,11.574.384,3.419.77,6.839c.193.321.385.644.578.964" transform="translate(0 -0.866)" fill="#979797"/>
    <path id="Pfad_189" data-name="Pfad 189" d="M1218.149,13.945l-8.763-1.052-58.452.35c.118,1.356,2.238.275,2.986.877l56.237-.175q1.106,1.709,2.214,3.42l-60.377.263c-.451,1.214-.836,5.6-2.793,2.981,2.552,11.064.857,23.83,1.348,35.684L1148.816,320.9q-.674,6-1.348,12.012l3.37-1.929h60.474l1.541.877q4.767.7,9.533,1.4c2.941-4.906.426-12.585,1.541-18.324q.483-145.632.963-291.262a12.5,12.5,0,0,0-6.741-9.733m-1.733,311.778c-.064-.759-.129-1.52-.193-2.279v-.7l-.385-.088q.194-3.112.385-6.225V303.98q.1-8.943.193-17.886V274.169q.1-9.207.193-18.412V244.886q.094-9.909.192-19.815v-10q.1-10.435.193-20.867v-8.943q.094-10.96.192-21.919v-7.891q.1-11.66.193-23.322v-6.488q.1-11.573.193-23.146v-.7c-.563.252-.563-.955,0-.7V95.309q.094-11.836.192-23.672V70.408c-.555.2-.555-.73,0-.526V65.5q.1-12.363.193-24.724V31.831q.194-3.55.385-7.1c.495-.582.144-2.4,1.444-2.017,1.9,7.493.57,16.427,1.06,24.638q-.867,137.388-1.734,274.778-.384,3.683-.77,7.365c-.43.693.038,1.264-1.059,1.491-1.092-1.4-.584-3.532-.867-5.261m-2.6-152.031q-.05-55.631-.1-111.262.094-12.363.192-24.725.339-1.271.674-2.542.049,50.809.1,101.617-.1,16.921-.193,33.843c-.691.6.478,3.061-.674,3.069m-34.763-6.313q-1.251-.7-2.5-1.4c-4.216-2.383-4.878-8.716-2.889-12.45,2.184-4.966,9.195-6.938,14.541-4.383,5.516,2.637,6.637,9.563,3.948,14.2l-2.5,2.63-2.7,1.4a11.828,11.828,0,0,1-7.9,0" transform="translate(0 -0.618)" fill="#232f34"/>
    <path id="Pfad_190" data-name="Pfad 190" d="M513.26,327.293q-.289-6.358-.578-12.714.483-74.392.963-148.787c.063-.759.129-1.519.193-2.279V133.878c.063-.759.129-1.52.192-2.279V101.964q.1-.964.193-1.929V70.224c.063-.7.129-1.4.192-2.1V38.31q.1-.964.193-1.929v-9.03q.384-1.622.77-3.245c-.175-2.455.767-5.455,1.541-7.715q.289-1.754.578-3.507v-.175l-68.178.35c.16.234.322.468.481.7l60.475-.175c.947.757,5.08-.744,4.718.964a4.1,4.1,0,0,1-1.83,2.893l-58.933-.175-3.852.175c-.855.975-.932,5.209-2.985,2.981,1.165,5.8.967,12.09.963,18.325q-.867,140.721-1.733,281.441-.963,6-1.926,12.012l-.193.175c-.087,1.759,2.3-1.773,3.371-1.578q31.2.086,62.4.175c2.251-.046,2.53-2.276,2.985-3.682M475.319,169.124l-2.7-1.4c-4.232-2.465-4.807-8.63-2.889-12.45,2.336-4.906,9.16-6.878,14.541-4.383,5.65,2.617,6.787,9.984,3.755,14.379l-2.311,2.454-2.7,1.4a10.772,10.772,0,0,1-7.7,0" transform="translate(0 -0.61)" fill="#232f34"/>
    <path id="Pfad_191" data-name="Pfad 191" d="M583.556,327.818c-1.027-6.9-.41-14.432-.578-21.656q.384-63.786.771-127.569c.063-.351.129-.7.192-1.052V151.062c.064-.759.129-1.52.193-2.279V119.148c.063-.644.129-1.285.192-1.929V87.234q.1-.964.193-1.929V55.319q.1-.79.193-1.578V29.279q.384-2.148.77-4.3v-1.4q.771-3.419,1.541-6.838.384-1.929.77-3.858v-.176l-68.563.176.674.877,60.474-.176c.994.777,5.233-.771,4.911.964a5.061,5.061,0,0,1-1.637,2.894h-63.17c-.661,1.141-1.015,5.384-2.985,2.8,1.968,11.94.516,25.263.963,37.789q-.773,128.445-1.541,256.892c-.247,5.961-.331,12.079-1.926,17.448-.064.117-.129.233-.193.35.451.775,2.194-1.925,3.371-1.929q31.1.087,62.207.175c2.269.006,2.392-2.137,3.178-3.156" transform="translate(0 -0.61)" fill="#232f34"/>
    <path id="Pfad_192" data-name="Pfad 192" d="M794.06,327.477q-.1-30.862-.193-61.724c.064-.644.129-1.285.193-1.929v-29.81q.1-.875.193-1.754V202.274c.063-.644.129-1.285.192-1.929V170.36q.1-.875.193-1.754.384-70.1.77-140.194.578-3.464,1.156-6.927l1.155-4.208q.384-2.1.771-4.209v-.175l-68.563.175,1.059.877,59.511-.35,5.682.438a5.31,5.31,0,0,1-1.637,3.42H730.986c-.474,1.051-.909,5.286-2.793,3.156,1.921,11.673.551,24.661.963,36.912q-.771,124.852-1.54,249.7-.1,7.629-.193,15.256-.673,5.305-1.348,10.609c.863-1.589,2.411-1.979,3.948-2.279q30.717.086,61.437.175c1.862-.3,2.213-2.26,2.6-3.507" transform="translate(0 -0.618)" fill="#232f34"/>
    <path id="Pfad_193" data-name="Pfad 193" d="M866.475,333.169c1.87-9.667,1.09-20.233,1.541-30.423q.866-132.481,1.733-264.959a76.3,76.3,0,0,0-1.156-16.746q-.384-1.4-.77-2.806-.483,1.754-.963,3.506l.963-.438c-2.249,6.035-.526,13.588-1.348,20.165q-.867,125.729-1.733,251.457v29.81c.186,3.262,1.271,6.8.963,9.907v.526Z" transform="translate(0 -0.875)" fill="#979797"/>
    <path id="Pfad_194" data-name="Pfad 194" d="M442.963,326.591q-.29-4.515-.578-9.031.483-71.063.963-142.123c.064-.293.129-.585.193-.877V148.783c.063-.819.129-1.636.192-2.455V116.869q.1-1.14.193-2.279V84.954q.1-1.14.193-2.28V53.04c.063-.7.129-1.4.192-2.1V28.579q.384-2.061.771-4.121c-.174-2.679.806-5.658,1.54-8.241q.384-1.755.771-3.507l-68.178.35c.1.234.192.467.289.7l60.859-.175c1.048.791,4.813-.859,4.333,1.14a3.907,3.907,0,0,1-2.022,2.718l-62.593-.175c-.481,1.042-.806,4.976-2.792,3.331,1.41,8.937.522,18.767.77,28.144q-.771,126.254-1.54,252.509-.1,9.819-.193,19.64-.673,5.174-1.348,10.346l-.578.789v.175l.289.7a5.14,5.14,0,0,1,3.467-2.1q31.006.086,62.014.175c2.431-.274,2.751-2.868,2.793-4.384" transform="translate(0 -0.61)" fill="#232f34"/>
    <path id="Pfad_195" data-name="Pfad 195" d="M585.29,333.106c2.463-9.318,1.4-19.859,1.926-29.9q.771-127.484,1.54-254.964c-.26-9.166.719-18.815-.963-27.442q-.384-1.929-.77-3.858-.771,3.419-1.541,6.838v1.4q-.771,138.484-1.54,276.97V321.8q.481,5.479.963,10.96v.35Zm1.059-311.252c-.871-.587,1.107-1.218,0,0" transform="translate(0 -0.813)" fill="#979797"/>
    <path id="Pfad_196" data-name="Pfad 196" d="M653.66,327.476q-.193-16.525-.385-33.054.289-49.231.578-98.461c.063-.293.129-.584.192-.877v-27c.064-.644.129-1.285.193-1.929V136.166c.063-.584.129-1.169.193-1.754V104.251c.063-.584.129-1.169.192-1.754V72.337q.1-.79.193-1.578V40.423c.063-.526.129-1.052.192-1.578.056-5.979-.393-12.118,1.156-17.536l1.155-4.558q.29-1.929.578-3.859h-68.37c.044,1.418,1.413.542,2.215,1.053l58.74-.351c1.156,1.05,4.736-.8,5.1.789a5.029,5.029,0,0,1-1.637,3.068H590.586c-.5,1.124-.8,4.97-2.793,3.157,1.682,8.626.7,18.275.963,27.442q-.771,127.483-1.54,254.963c-.524,10.039.537,20.58-1.926,29.9h.192q1.494-1.051,2.985-2.1l62.208.175c2.2-.035,2.467-2.162,2.985-3.507M614.949,168.782l-2.7-1.4c-4.224-2.491-4.64-8.254-3.082-12.276,2.437-5,9.268-7.084,14.734-4.558,5.654,2.61,6.783,9.992,3.755,14.379q-1.155,1.228-2.311,2.455l-2.7,1.4a10.818,10.818,0,0,1-7.7,0" transform="translate(0 -0.618)" fill="#232f34"/>
    <path id="Pfad_197" data-name="Pfad 197" d="M723.956,328q-.289-2.849-.578-5.7.289-52.651.578-105.3c.064-.644.129-1.285.193-1.929V185.089c.063-.7.129-1.4.192-2.1v-29.81q.1-.875.193-1.754V121.261c.063-.584.129-1.169.192-1.754q.193-44.847.386-89.692.672-4.253,1.348-8.506.481-2.016.963-4.033.384-2.1.77-4.208v-.176l-68.37.176,1.059.877,59.7-.351,5.2.175c.032.147.063.292.1.439a5.52,5.52,0,0,1-1.637,3.244H660.882c-.707,1.162-.963,5.375-2.985,2.981,1.279,5.545,1.2,11.582,1.155,17.623q-.867,140.985-1.733,281.968-.867,6.095-1.733,12.188c.063.232.129.467.192.7a5.935,5.935,0,0,1,3.948-2.1l61.245.175c2.072-.03,2.109-2.073,2.985-2.981" transform="translate(0 -0.618)" fill="#232f34"/>
    <path id="Pfad_198" data-name="Pfad 198" d="M796.563,21.9q-.578,3.463-1.156,6.926-.384,70.1-.77,140.2c-.064.584-.129,1.17-.193,1.754v29.985c-.063.644-.129,1.285-.191,1.929v29.985c-.065.584-.13,1.17-.194,1.754v29.81c-.063.644-.129,1.285-.192,1.929q.094,30.862.192,61.724.771,2.718,1.541,5.436-.577-4.077-1.156-8.154V277.649q.963-125.992,1.926-251.983.579-2.1,1.156-4.208l-.963.438" transform="translate(0 -1.029)" fill="#585858"/>
    <path id="Pfad_199" data-name="Pfad 199" d="M863.778,321.7v-6.664q.1-1.051.193-2.1v-29.81c.063-.644.129-1.285.192-1.929V251.206c.064-.644.129-1.285.193-1.929q.578-102.363,1.156-204.724c.693-7.015-.569-14.782.963-21.481.063-.117.128-.234.192-.351q.1-.613.193-1.227.482-1.754.963-3.507.384-2.455.77-4.91H800.03c.16.292.322.585.482.877l65.674-.175c.032.5.063.993.1,1.49-.634,2.672-2.546,2.022-5.1,2.368l-59.9-.175c-.788,1.013-.869,5.416-2.985,3.156,1.941,8.377.886,17.9,1.155,26.917q-.867,136.6-1.733,273.2-.771,6.094-1.541,12.187a7.578,7.578,0,0,1,4.141-2.1q30.911.087,61.822.175c3.222-2.419.836-6.221,1.637-9.293M820.83,233.672l-2.7-1.4c-4.178-2.458-4.748-8.289-3.082-12.275,2.292-5.228,9.688-7.261,15.119-4.384,5.29,2.8,6.257,9.764,3.37,14.028l-2.5,2.63-2.5,1.4a13.07,13.07,0,0,1-7.7,0m0-130.639-2.7-1.4c-4.249-2.569-4.7-8.341-3.082-12.451,2.569-5.262,10.129-7.153,15.5-4.033,5.031,2.92,5.728,9.752,2.985,13.853l-2.311,2.454-2.7,1.578a13.394,13.394,0,0,1-7.7,0" transform="translate(0 -0.627)" fill="#232f34"/>
    <path id="Pfad_200" data-name="Pfad 200" d="M934.075,323.443V300.121c.064-.644.129-1.284.193-1.929q.771-127.351,1.54-254.7c.667-6.731-.52-14.182.963-20.6.064-.118.129-.234.193-.351.063-.35.129-.7.192-1.052q.483-1.841.963-3.682.385-2.369.771-4.734l-68.756-.177.674,1.052,65.674-.174c.033.5.064.994.1,1.49-.513,1.37-1.119,2.221-2.793,2.368l-62.4-.176c-.587,1.05-.809,5.228-2.793,3.332a76.309,76.309,0,0,1,1.156,16.747q-.867,132.478-1.733,264.958c-.451,10.192.329,20.756-1.541,30.423l3.563-2.1,62.207.175c2.849-1.692,1.271-5.082,1.83-7.54" transform="translate(0 -0.618)" fill="#232f34"/>
    <path id="Pfad_201" data-name="Pfad 201" d="M1004.371,323.619q.867-141.115,1.733-282.231c.636-6.1-.464-12.871.963-18.675l.193-.351v-.526q.483-1.754.963-3.507.384-2.543.77-5.086l-2.407-.35-66.156.35c.16.234.322.468.482.7l60.474-.175c1.246.863,6.14-1.022,5.489,1.315a3.035,3.035,0,0,1-2.408,2.543l-62.978-.175c-.425,1.218-.912,5.611-2.792,3.156,2.242,11.337.7,24.187,1.155,36.211q-.865,131.954-1.733,263.907-.674,6.095-1.348,12.187l3.756-2.1q31.007.086,62.014.175l1.637-2.368q.1-2.5.193-5" transform="translate(0 -0.618)" fill="#232f34"/>
    <path id="Pfad_202" data-name="Pfad 202" d="M1074.668,325.732l1.733-291.7q.383-5.392.771-10.784.672-2.455,1.348-4.911.384-2.542.77-5.085v-.175h-68.755c.159.292.321.585.481.877l60.474-.175c1.229.863,6.375-1.022,5.682,1.315-.426,1.435-.75,2.291-2.408,2.543h-62.978c-.768.937-.654,5.027-2.792,3.331,1.8,8.094.972,17.16,1.155,25.865q-.865,132.567-1.733,265.134c-.279,7.1-.077,14.3-1.541,20.954q1.684-.965,3.371-1.929h62.592q.818-1.36,1.637-2.718c.064-.846.129-1.7.193-2.542m-38.326-157.994-2.7-1.4c-4.072-2.7-4.85-8.44-2.889-12.276,2.279-5.232,9.5-7.159,14.925-4.383,5.312,2.719,6.273,9.688,3.564,14.028l-2.5,2.63q-1.251.7-2.5,1.4a11.642,11.642,0,0,1-7.9,0" transform="translate(0 -0.627)" fill="#232f34"/>
    <path id="Pfad_203" data-name="Pfad 203" d="M1144.964,326.784q.771-137.52,1.541-275.042c.591-9.137-.347-18.851.77-27.793q.673-2.63,1.348-5.261l.771-5.436-68.756-.175c.16.292.322.585.482.877l60.474-.175c1.14.832,6.413-.914,5.874,1.14-.372,1.415-.592,2.28-2.215,2.718H1081.89c-.618,1.088-.77,5.357-2.793,3.156a65.245,65.245,0,0,1,1.348,16.045q-.961,142.913-1.925,285.827-.673,5.128-1.349,10.258l3.371-1.93h62.4c1.543-1.092,1.562-2.8,2.022-4.208" transform="translate(0 -0.627)" fill="#232f34"/>
    <path id="Pfad_204" data-name="Pfad 204" d="M514.993,348.482h-.385c.063.117.129.233.192.35.064-.117.129-.233.193-.35" transform="translate(0 -16.714)" fill="#585858"/>
    <path id="Pfad_205" data-name="Pfad 205" d="M726.46,21.721q-.674,4.253-1.348,8.5-.194,44.847-.385,89.693-.1.875-.193,1.754v30.161q-.1.875-.193,1.754V183.4c-.063.7-.129,1.4-.192,2.1v29.985c-.064.644-.129,1.285-.193,1.929q-.288,52.651-.577,105.3.288,2.849.577,5.7.674,2.366,1.348,4.734c.47-3.23-.835-6.734-.963-10.083q.1-46.031.193-92.06.771-102.759,1.541-205.515l1.155-4.033-.77.263" transform="translate(0 -1.029)" fill="#585858"/>
    <path id="Pfad_206" data-name="Pfad 206" d="M302.178,323.25V279.237l.193-.7V251.18q.094-3.333.192-6.663V223.474q.1-2.979.193-5.962V198.4q.094-1.755.192-3.507V178.408q.1-1.665.193-3.331V146.494q.1-1.754.193-3.507V114.58q.094-1.754.192-3.507V82.665q.1-1.578.193-3.156V50.751c.063-.935.129-1.871.192-2.806v-19.9q.289-1.271.578-2.543a28.553,28.553,0,0,1,1.733-9.644q.29-1.667.578-3.332l-68.178.175c.226.351.449.7.674,1.052l64.712-.175c.032.439.063.877.1,1.316-.638,1.715-1.256,2.557-3.563,2.542l-60.859-.175c-.426,1.095-.927,4.993-2.793,3.157,1.071,5.97.7,12.5.77,18.85q-.865,140.108-1.733,280.214-.867,6-1.733,12.012l-.385.35c.159.233.321.468.481.7,1.379-1.766,3.184-1.614,5.2-1.929l60.667.175c3.761-.931,1.246-5.224,2.022-7.54" transform="translate(0 -0.601)" fill="#232f34"/>
    <path id="Pfad_207" data-name="Pfad 207" d="M372.667,325.705v-.526c-.064-.292-.129-.584-.193-.877q.1-43.313.193-86.624c.063-.118.129-.233.192-.351V210.674q.1-2.543.193-5.085V189.632c.063-.468.129-.935.193-1.4V163.5c.063-.877.129-1.754.192-2.63V131.59q.1-1.14.193-2.28V99.851c.063-.76.129-1.52.192-2.28V67.936q.1-1.141.193-2.28V36.021c.063-.7.129-1.4.192-2.1v-7.1l.578-1.841a23.36,23.36,0,0,1,1.734-8.943q.288-1.665.577-3.331v-.176l-68.177.351c.159.292.321.585.481.877l64.9-.175c.032.438.063.876.1,1.315-.414,1.224-1.04,2.445-2.6,2.543l-61.822-.176c-.707,1.12-1.073,5.414-2.985,2.982,1.631,12.279.373,25.734.77,38.49q-.771,126.255-1.541,252.508-.193,6.226-.385,12.451-.578,3.859-1.156,7.715c-.192.146-.385.293-.577.438l.481.7a5.6,5.6,0,0,1,3.274-1.754H371.03c2.039-1.439,1.278-3.252,1.637-5.085m-38.9-156.24-2.7-1.4c-4.033-2.511-4.844-8.463-2.889-12.276,2.3-5.174,9.493-7.138,14.926-4.383,5.325,2.7,6.271,9.721,3.563,14.028l-2.5,2.63q-1.251.7-2.5,1.4a11.161,11.161,0,0,1-7.9,0" transform="translate(0 -0.601)" fill="#232f34"/>
    <path id="Pfad_208" data-name="Pfad 208" d="M585.482,25.6q-.384,2.148-.77,4.3V54.36q-.1.788-.193,1.578V85.923q-.1.965-.193,1.93v29.985c-.063.643-.129,1.285-.192,1.929V149.4q-.1,1.14-.193,2.28v26.478c-.063.35-.129.7-.192,1.052q-.386,63.784-.771,127.569c.168,7.225-.449,14.758.578,21.656q.673,2.368,1.348,4.735-.481-5.479-.963-10.96v-19.64q.771-138.486,1.541-276.971" transform="translate(0 -1.228)" fill="#585858"/>
    <path id="Pfad_209" data-name="Pfad 209" d="M161.585,320.962q.1-22.708.193-45.417.095-2.629.192-5.26v-22.8q.1-3.6.193-7.19V219.608q.095-3.333.192-6.663V192.6q.1-2.63.193-5.261V172.438q.1-.526.193-1.052c.063-.408.129-.819.192-1.227q-.095-12.975-.192-25.953.095-1.928.192-3.858V112.292q.1-1.754.193-3.507V80.377c.063-1.11.129-2.221.192-3.332V48.463q.1-1.754.193-3.507.193-8.855.385-17.711c.11-3.96.37-8.094,1.926-11.573q.289-1.667.578-3.332l-1.445.526-66.733-.175c.352.35.707.7,1.059,1.052l60.089-.351c1.41,1.3,4.879-1.328,4.141,1.666l-1.445,2.193H99.474c-.788.875-.79,4.5-2.793,3.331q.29,4.6.578,9.206-.867,141.161-1.733,282.319a112.681,112.681,0,0,1-1.734,19.376l-.385.351.482.526c1.18-1.387,2.353-1.383,3.852-1.754q31.005.087,62.014.175c4.23-1.271.694-6.956,1.83-9.819" transform="translate(0 -0.592)" fill="#232f34"/>
    <path id="Pfad_210" data-name="Pfad 210" d="M231.881,322.365V290.625q.1-.526.193-1.052v-27.18q.1-3.77.193-7.54V234.512q.095-3.243.192-6.488V206.982q.1-2.98.193-5.963V182.608c.063-1.052.129-2.1.192-3.157V161.215q.1-1.755.193-3.507V129.3c.063-1.051.129-2.1.193-3.156V97.562q.095-1.841.192-3.682V65.647q.1-1.754.193-3.506V33.733c.063-.994.129-1.988.192-2.982q.193-2.279.385-4.557a27.178,27.178,0,0,1,1.926-10.522q.29-1.579.578-3.156V12.34c-.352.176-.707.35-1.059.526q-33.561-.086-67.119-.175c.226.351.449.7.674,1.053l60.282-.351c1.421,1.3,5.134-1.245,4.333,1.666l-1.444,2.192H169.578c-.636.969-.757,4.64-2.793,3.332,1.14,9.183.335,19.143.578,28.67q-.771,126.694-1.541,253.386-.095,8.943-.193,17.886-.961,5.655-1.925,11.31v.175c.159.118.321.233.481.351,1.283-1.51,2.536-1.4,4.237-1.754l61.437.175c4.125-.883,1.175-5.846,2.022-8.417M188.548,169.807l-2.7-1.4c-4.122-2.718-4.486-8.249-2.889-12.276,2.261-5.024,9.529-7.1,14.926-4.382,5.34,2.685,6.363,9.543,3.755,14.027l-2.5,2.63-2.7,1.4a11.014,11.014,0,0,1-7.9,0" transform="translate(0 -0.592)" fill="#232f34"/>
    <path id="Pfad_211" data-name="Pfad 211" d="M444.7,348.3H444.5v.175l.193-.175" transform="translate(0 -16.705)" fill="#585858"/>
    <path id="Pfad_212" data-name="Pfad 212" d="M514.993,332.563c1.6-5.369,1.679-11.487,1.926-17.448q.771-128.445,1.541-256.892c-.447-12.526,1.005-25.85-.963-37.788q-.289-1.929-.578-3.859c-.774,2.261-1.716,5.261-1.541,7.716q-.867,141.555-1.733,283.108v13.327q.481,5.569.963,11.135v.7Z" transform="translate(0 -0.795)" fill="#979797"/>
    <path id="Pfad_213" data-name="Pfad 213" d="M866.86,21.9q-.1.614-.193,1.227c-.063.117-.129.234-.192.351-1.531,6.7-.27,14.466-.963,21.481q-.578,102.363-1.156,204.724c-.063.644-.129,1.285-.192,1.929v29.985c-.064.644-.129,1.285-.193,1.929v29.81c-.063.7-.129,1.4-.192,2.1V322.1q.672,5.041,1.348,10.082c.192.206.385.409.577.614.309-3.1-.776-6.646-.962-9.908V293.08q.865-125.729,1.733-251.457c.822-6.577-.9-14.13,1.348-20.165l-.963.438" transform="translate(0 -1.029)" fill="#585858"/>
    <path id="Pfad_214" data-name="Pfad 214" d="M374.4,348.114h-.193l.193.175Z" transform="translate(0 -16.696)" fill="#585858"/>
    <path id="Pfad_215" data-name="Pfad 215" d="M447.393,20.6q-.384-2.1-.77-4.208c-.734,2.583-1.714,5.562-1.541,8.241q-.867,144.448-1.733,288.895.482,9.074.963,18.149c.063.233.129.468.192.7h.193q.962-6,1.926-12.012.866-140.721,1.733-281.441c0-6.235.2-12.531-.963-18.325" transform="translate(0 -0.786)" fill="#979797"/>
    <path id="Pfad_216" data-name="Pfad 216" d="M655.586,332.406q.867-6.095,1.733-12.187l1.734-281.968c.044-6.043.123-12.079-1.156-17.623q-.288-1.841-.578-3.682L656.164,21.5l.77-.263-1.155,3.682q-.773,136.425-1.541,272.849v25.076q.674,4.778,1.348,9.557" transform="translate(0 -0.813)" fill="#979797"/>
    <path id="Pfad_217" data-name="Pfad 217" d="M163.7,347.929h-.193l.193.175Z" transform="translate(0 -16.687)" fill="#585858"/>
    <path id="Pfad_218" data-name="Pfad 218" d="M377.289,20.767q-.384-2.279-.77-4.559a23.36,23.36,0,0,0-1.734,8.943q-.771,135.5-1.54,271.008v25.6q.482,5.042.963,10.083v.351h.192l.578-.789q.674-5.174,1.348-10.346.1-9.819.193-19.64.771-126.255,1.54-252.509c-.248-9.379.64-19.207-.77-28.144" transform="translate(0 -0.777)" fill="#979797"/>
    <path id="Pfad_219" data-name="Pfad 219" d="M93.793,347.561h-.578l.193.35.385-.35" transform="translate(0 -16.67)" fill="#585858"/>
    <path id="Pfad_220" data-name="Pfad 220" d="M166.785,20.75q-.483-2.455-.963-4.91c-1.556,3.478-1.816,7.612-1.926,11.573q-.483,71.457-.963,142.913c-.063.408-.129.819-.192,1.227v1.052q.193,17.228.385,34.457-.384,56.026-.771,112.051.579,6.268,1.156,12.537V332h.193q.962-5.655,1.925-11.31.1-8.943.193-17.886.771-126.693,1.541-253.385c-.243-9.528.562-19.486-.578-28.671" transform="translate(0 -0.76)" fill="#979797"/>
    <path id="Pfad_221" data-name="Pfad 221" d="M234.193,332.181q-.771-5.918-1.541-11.837.771-146.726,1.541-293.453-.193,2.279-.385,4.559-.1,1.491-.193,2.981V62.838q-.095,1.754-.192,3.507V94.577q-.1,1.842-.193,3.682v28.583q-.1,1.578-.193,3.156v28.407q-.095,1.755-.192,3.507V180.15q-.1,1.578-.193,3.156v18.412q-.094,2.979-.192,5.962v21.042q-.1,3.245-.193,6.488v20.341q-.095,3.77-.193,7.54v27.18c-.063.351-.129.7-.192,1.052v31.739q.961,4.735,1.926,9.469l.385-.35" transform="translate(0 -1.29)" fill="#585858"/>
    <path id="Pfad_222" data-name="Pfad 222" d="M306.993,20.408q-.384-2.192-.77-4.384a28.536,28.536,0,0,0-1.734,9.645q-.771,138.309-1.54,276.619V320.7q.481,5.478.963,10.959c.063.118.129.233.192.351l.578-.439,1.155-7.715q.193-6.226.386-12.45.771-126.255,1.54-252.509c-.4-12.756.861-26.21-.77-38.49" transform="translate(0 -0.769)" fill="#979797"/>
    <path id="Pfad_223" data-name="Pfad 223" d="M374.785,25.6l-.578,1.841v7.1c-.062.7-.129,1.4-.191,2.1V66.284q-.1,1.141-.194,2.28V98.2q-.1,1.14-.193,2.279v29.459c-.063.76-.129,1.52-.191,2.28V161.5q-.1,1.315-.193,2.63v24.724c-.064.468-.13.935-.193,1.4v15.957q-.1,2.543-.193,5.085v26.654c-.063.117-.129.233-.192.35q-.1,43.313-.193,86.625c.064.292.129.584.193.877v.526q.771,2.98,1.54,5.963-.48-5.042-.962-10.083v-25.6q.77-135.5,1.54-271.008" transform="translate(0 -1.228)" fill="#585858"/>
    <path id="Pfad_224" data-name="Pfad 224" d="M515.378,24.681q-.384,1.622-.77,3.244v9.031q-.1.965-.193,1.929v29.81q-.1,1.052-.193,2.1v29.81c-.063.644-.129,1.286-.192,1.929v29.635c-.064.759-.129,1.52-.193,2.279v29.635c-.063.759-.129,1.52-.192,2.279q-.483,74.393-.963,148.787.288,6.358.577,12.714.674,2.191,1.349,4.384-.483-5.569-.963-11.135V307.789q.865-141.555,1.733-283.108" transform="translate(0 -1.184)" fill="#585858"/>
    <path id="Pfad_225" data-name="Pfad 225" d="M93.793,331.633a112.784,112.784,0,0,0,1.733-19.377Q96.393,171.1,97.26,29.938q-.29-4.6-.578-9.206-.483-2.63-.963-5.261a23.728,23.728,0,0,0-1.926,10.346c-.064.176-.129.351-.193.526v2.1q-.384,47.784-.77,95.567v23.5q-.1,3.6-.193,7.19v15.957q-.095,4.911-.192,9.82v2.1q.193,20.561.385,41.12-.384,47.259-.77,94.516.578,6.356,1.155,12.713v.7Z" transform="translate(0 -0.742)" fill="#979797"/>
    <path id="Pfad_226" data-name="Pfad 226" d="M162.741,180.5h-.193v14.905q-.095,2.63-.192,5.261v20.34q-.1,3.333-.193,6.663v20.692q-.094,3.6-.192,7.19v22.8q-.1,2.63-.193,5.261-.1,22.708-.193,45.417.963,5.26,1.926,10.521l-1.155-12.538q.384-56.024.77-112.05-.194-17.228-.385-34.457" transform="translate(0 -8.657)" fill="#585858"/>
    <path id="Pfad_227" data-name="Pfad 227" d="M236.889,20.574q-.384-2.368-.77-4.734a27.146,27.146,0,0,0-1.926,10.521q-.772,146.726-1.541,293.454.771,5.918,1.541,11.836.866-6,1.733-12.012.867-140.108,1.733-280.214c-.067-6.35.3-12.879-.77-18.85" transform="translate(0 -0.76)" fill="#979797"/>
    <path id="Pfad_228" data-name="Pfad 228" d="M304.489,26.154q-.29,1.271-.578,2.543V48.6c-.063.935-.129,1.871-.192,2.806V80.163q-.1,1.578-.193,3.156v28.407q-.1,1.755-.193,3.507v28.408q-.095,1.754-.192,3.506v28.583q-.1,1.665-.193,3.331v16.484q-.094,1.754-.192,3.507v19.113q-.1,2.98-.193,5.962V245.17q-.1,3.333-.192,6.663v27.355c-.064.233-.13.468-.193.7V323.9q.867,4.121,1.733,8.242-.482-5.479-.963-10.96V302.773q.771-138.309,1.541-276.619" transform="translate(0 -1.254)" fill="#585858"/>
    <path id="Pfad_229" data-name="Pfad 229" d="M445.082,25.049q-.384,2.061-.77,4.12V51.527q-.1,1.052-.193,2.1V83.266q-.1,1.14-.193,2.28V115.18c-.063.76-.129,1.52-.192,2.28v29.459q-.1,1.228-.193,2.455v25.776c-.063.293-.129.585-.192.877q-.483,71.063-.963,142.124.288,4.517.577,9.031.673,2.453,1.349,4.91-.483-9.075-.963-18.149.865-144.449,1.733-288.895" transform="translate(0 -1.201)" fill="#585858"/>
    <path id="Pfad_230" data-name="Pfad 230" d="M1217.956,32.323v8.943q-.1,12.361-.193,24.724v6.138q-.094,11.836-.192,23.672v7.189q-.1,11.574-.193,23.147v6.488q-.095,11.66-.192,23.322v7.891q-.1,10.962-.193,21.92V194.7q-.094,10.435-.193,20.868v9.994q-.094,9.909-.192,19.816v10.871q-.1,9.207-.193,18.412v11.924q-.094,8.943-.192,17.886v19.463c.063.76.129,1.52.192,2.28.283,1.729-.225,3.86.867,5.261,1.1-.227.63-.8,1.059-1.491q.384-3.683.771-7.365.865-137.389,1.733-274.778c-.489-8.211.84-17.145-1.059-24.638-1.3-.38-.95,1.436-1.445,2.016q-.193,3.552-.385,7.1" transform="translate(0 -1.11)" fill="#979797"/>
    <path id="Pfad_231" data-name="Pfad 231" d="M92.445,191c-.064.175-.129.35-.193.526v17.71q-.094,2.98-.192,5.963v19.99q-.1,3.77-.193,7.54v24.024q-.094,2.018-.192,4.033-.1,28.057-.193,56.113a44.816,44.816,0,0,0,1.733,12.45L92.06,326.638q.384-47.259.77-94.516-.194-20.561-.385-41.12" transform="translate(0 -9.161)" fill="#585858"/>
    <path id="Pfad_232" data-name="Pfad 232" d="M1216.416,341.368c-.063-.76-.129-1.52-.193-2.279.064.759.13,1.519.193,2.279" transform="translate(0 -16.263)" fill="#585858"/>
    <path id="Pfad_233" data-name="Pfad 233" d="M372.667,340.886c-.064-.293-.129-.584-.193-.877.064.293.129.584.193.877" transform="translate(0 -16.308)"/>
    <path id="Pfad_234" data-name="Pfad 234" d="M1216.223,338.034v-6.313q-.194,3.112-.385,6.225l.385.088" transform="translate(0 -15.91)" fill="#585858"/>
    <path id="Pfad_235" data-name="Pfad 235" d="M863.971,328.037q-.1,1.052-.193,2.1.1-1.052.193-2.1" transform="translate(0 -15.733)"/>
    <path id="Pfad_236" data-name="Pfad 236" d="M1216.416,299.857q-.094,8.943-.193,17.886.1-8.943.193-17.886" transform="translate(0 -14.382)" fill="#585858"/>
    <path id="Pfad_237" data-name="Pfad 237" d="M934.267,312.566c-.064.644-.129,1.285-.193,1.929.064-.644.129-1.285.193-1.929" transform="translate(0 -14.991)"/>
    <path id="Pfad_238" data-name="Pfad 238" d="M232.074,303.54q-.1.525-.193,1.052.1-.526.193-1.052" transform="translate(0 -14.558)"/>
    <path id="Pfad_239" data-name="Pfad 239" d="M864.164,294.7c-.064.644-.129,1.285-.193,1.929.064-.644.129-1.285.193-1.929" transform="translate(0 -14.134)"/>
    <path id="Pfad_240" data-name="Pfad 240" d="M302.371,291.937l-.193.7.193-.7" transform="translate(0 -14.002)"/>
    <path id="Pfad_241" data-name="Pfad 241" d="M161.971,283.28q-.1,2.63-.193,5.261.1-2.63.193-5.261" transform="translate(0 -13.587)"/>
    <path id="Pfad_242" data-name="Pfad 242" d="M1216.608,267.992q-.1,9.207-.193,18.412.1-9.207.193-18.412" transform="translate(0 -12.853)" fill="#585858"/>
    <path id="Pfad_243" data-name="Pfad 243" d="M794.06,276.465c-.064.644-.129,1.285-.193,1.929.064-.644.129-1.285.193-1.929" transform="translate(0 -13.26)"/>
    <path id="Pfad_244" data-name="Pfad 244" d="M232.267,267.071q-.1,3.769-.193,7.54.1-3.769.193-7.54" transform="translate(0 -12.809)"/>
    <path id="Pfad_245" data-name="Pfad 245" d="M91.867,270.571q-.1,2.018-.193,4.033.1-2.016.193-4.033" transform="translate(0 -12.977)"/>
    <path id="Pfad_246" data-name="Pfad 246" d="M302.563,256.2q-.1,3.333-.193,6.663.1-3.333.193-6.663" transform="translate(0 -12.288)"/>
    <path id="Pfad_247" data-name="Pfad 247" d="M864.356,261.177c-.064.644-.129,1.285-.193,1.929.064-.644.129-1.285.193-1.929" transform="translate(0 -12.527)"/>
    <path id="Pfad_248" data-name="Pfad 248" d="M162.163,251.784q-.1,3.6-.193,7.19.1-3.6.193-7.19" transform="translate(0 -12.076)"/>
    <path id="Pfad_249" data-name="Pfad 249" d="M1216.8,235.759q-.1,9.909-.193,19.815.1-9.908.193-19.815" transform="translate(0 -11.307)" fill="#585858"/>
    <path id="Pfad_250" data-name="Pfad 250" d="M0,.737Q.1,121.819.193,242.9.481,207,.77,171.093.386,85.916,0,.737" transform="translate(0 -0.035)" fill="#cacbcb"/>
    <path id="Pfad_251" data-name="Pfad 251" d="M372.859,248.653c-.063.117-.129.233-.192.35.063-.117.129-.233.192-.35" transform="translate(0 -11.926)"/>
    <path id="Pfad_252" data-name="Pfad 252" d="M232.459,238.891q-.1,3.243-.193,6.488.1-3.243.193-6.488" transform="translate(0 -11.458)"/>
    <path id="Pfad_253" data-name="Pfad 253" d="M92.059,237.417q-.1,3.769-.193,7.54.1-3.769.193-7.54" transform="translate(0 -11.387)"/>
    <path id="Pfad_254" data-name="Pfad 254" d="M828.534,244.767c-.033-.117-.064-.233-.1-.35l-7.608.35a13.07,13.07,0,0,0,7.7,0" transform="translate(0 -11.723)" fill="#f3f3f3"/>
    <path id="Pfad_255" data-name="Pfad 255" d="M794.252,243.311c-.064.584-.129,1.17-.193,1.754.064-.584.129-1.17.193-1.754" transform="translate(0 -11.67)"/>
    <path id="Pfad_256" data-name="Pfad 256" d="M820.83,244.714l7.607-.35c.033.117.064.233.1.35q1.251-.7,2.5-1.4-2.262.348-4.525.7-4.19-.35-8.378-.7l2.7,1.4" transform="translate(0 -11.67)" fill="#e0e0e0"/>
    <path id="Pfad_257" data-name="Pfad 257" d="M831.038,242.644l2.5-2.63q.24-.965.481-1.929c-1.6,1.827-3.4,2.432-5.97,2.806v-.7c-1.585.03-2.184-.973-3.274-1.929l-4.43-.877c-1.843-.563-1.851-3.314-3.37-3.244a6.357,6.357,0,0,1-.193-4.734l-1.733.964c-1.666,3.985-1.1,9.816,3.081,12.275l8.378.7,4.526-.7" transform="translate(0 -11.003)" fill="#cacaca"/>
    <path id="Pfad_258" data-name="Pfad 258" d="M833.541,239.775c2.887-4.264,1.92-11.226-3.37-14.028-5.432-2.877-12.827-.844-15.119,4.384l1.733-.964a6.357,6.357,0,0,0,.193,4.734c1.52-.07,1.527,2.681,3.37,3.244l4.43.877c1.09.956,1.689,1.959,3.274,1.929v.7c2.575-.373,4.366-.979,5.971-2.806q-.24.965-.482,1.929" transform="translate(0 -10.764)" fill="#a8a8a8"/>
    <path id="Pfad_259" data-name="Pfad 259" d="M302.756,227.839q-.1,2.98-.193,5.962.1-2.979.193-5.962" transform="translate(0 -10.928)"/>
    <path id="Pfad_260" data-name="Pfad 260" d="M162.356,223.051q-.1,3.333-.193,6.663.1-3.333.193-6.663" transform="translate(0 -10.698)"/>
    <path id="Pfad_261" data-name="Pfad 261" d="M724.149,225.261c-.064.644-.129,1.285-.193,1.929.064-.644.129-1.285.193-1.929" transform="translate(0 -10.804)"/>
    <path id="Pfad_262" data-name="Pfad 262" d="M1216.994,203.342q-.1,10.436-.193,20.867.1-10.433.193-20.867" transform="translate(0 -9.753)" fill="#585858"/>
    <path id="Pfad_263" data-name="Pfad 263" d="M373.052,215.315q-.1,2.543-.193,5.085.1-2.543.193-5.085" transform="translate(0 -10.327)"/>
    <path id="Pfad_264" data-name="Pfad 264" d="M232.652,210.526q-.1,2.98-.193,5.962.1-2.979.193-5.962" transform="translate(0 -10.097)"/>
    <path id="Pfad_265" data-name="Pfad 265" d="M92.252,210.157q-.1,2.98-.193,5.962.1-2.979.193-5.962" transform="translate(0 -10.08)"/>
    <path id="Pfad_266" data-name="Pfad 266" d="M794.445,209.789c-.064.644-.129,1.285-.193,1.929.064-.644.129-1.285.193-1.929" transform="translate(0 -10.062)"/>
    <path id="Pfad_267" data-name="Pfad 267" d="M302.948,204.079q-.1,1.755-.193,3.507.1-1.755.193-3.507" transform="translate(0 -9.788)"/>
    <path id="Pfad_268" data-name="Pfad 268" d="M654.045,204.263c-.064.293-.129.584-.193.877.064-.293.129-.584.193-.877" transform="translate(0 -9.797)"/>
    <path id="Pfad_269" data-name="Pfad 269" d="M162.548,196.159q-.1,2.63-.193,5.261.1-2.63.193-5.261" transform="translate(0 -9.408)"/>
    <path id="Pfad_270" data-name="Pfad 270" d="M373.245,197.08c-.064.468-.129.935-.193,1.4.064-.468.129-.935.193-1.4" transform="translate(0 -9.452)"/>
    <path id="Pfad_271" data-name="Pfad 271" d="M1217.186,170.926q-.094,10.96-.193,21.919.1-10.96.193-21.919" transform="translate(0 -8.198)" fill="#585858"/>
    <path id="Pfad_272" data-name="Pfad 272" d="M724.341,191.555q-.1,1.052-.193,2.1.1-1.051.193-2.1" transform="translate(0 -9.187)"/>
    <path id="Pfad_273" data-name="Pfad 273" d="M92.445,190.9v-2.1q-.1,1.315-.193,2.63c.064-.176.129-.351.193-.526" transform="translate(0 -9.055)"/>
    <path id="Pfad_274" data-name="Pfad 274" d="M232.845,187.871q-.1,1.578-.193,3.156.1-1.578.193-3.156" transform="translate(0 -9.011)"/>
    <path id="Pfad_275" data-name="Pfad 275" d="M583.941,185.845q-.1.526-.193,1.052.1-.526.193-1.052" transform="translate(0 -8.914)"/>
    <path id="Pfad_276" data-name="Pfad 276" d="M303.141,183.266q-.1,1.665-.193,3.332.1-1.665.193-3.332" transform="translate(0 -8.79)"/>
    <path id="Pfad_277" data-name="Pfad 277" d="M443.541,182.714c-.064.292-.129.584-.193.877.064-.293.129-.585.193-.877" transform="translate(0 -8.763)"/>
    <path id="Pfad_278" data-name="Pfad 278" d="M1213.816,174.814c1.152-.009-.017-2.471.674-3.068q.1-16.921.193-33.843-.049-50.81-.1-101.618-.338,1.271-.674,2.543-.094,12.363-.192,24.724.048,55.631.1,111.262" transform="translate(0 -1.74)"/>
    <path id="Pfad_279" data-name="Pfad 279" d="M162.741,180.45V179.4q-.1.526-.193,1.052Z" transform="translate(0 -8.604)"/>
    <path id="Pfad_280" data-name="Pfad 280" d="M92.637,166.321h-.193q.1,5.786.193,11.573Z" transform="translate(0 -7.977)" fill="#585858"/>
    <path id="Pfad_281" data-name="Pfad 281" d="M196.445,177.722l-.289-.35-7.607.35a11.014,11.014,0,0,0,7.9,0" transform="translate(0 -8.507)" fill="#f3f3f3"/>
    <path id="Pfad_282" data-name="Pfad 282" d="M794.638,176.451c-.064.584-.129,1.17-.193,1.754.064-.584.129-1.17.193-1.754" transform="translate(0 -8.463)"/>
    <path id="Pfad_283" data-name="Pfad 283" d="M163.9,28q-.193,8.855-.385,17.711-.1,1.754-.193,3.507V77.8c-.063,1.111-.129,2.221-.192,3.332v28.407q-.1,1.755-.193,3.507V141.1q-.1,1.928-.193,3.858.1,12.975.193,25.953Q163.416,99.451,163.9,28" transform="translate(0 -1.343)" fill="#585858"/>
    <path id="Pfad_284" data-name="Pfad 284" d="M341.659,177.354l-.289-.35-7.607.35a11.161,11.161,0,0,0,7.9,0" transform="translate(0 -8.489)" fill="#f3f3f3"/>
    <path id="Pfad_285" data-name="Pfad 285" d="M188.548,177.669l7.607-.35.289.35,2.7-1.4q-1.878.348-3.756.7-4.767-.35-9.533-.7l2.7,1.4" transform="translate(0 -8.454)" fill="#e0e0e0"/>
    <path id="Pfad_286" data-name="Pfad 286" d="M483.023,176.986c-.033-.117-.064-.233-.1-.35l-7.608.35a10.772,10.772,0,0,0,7.7,0" transform="translate(0 -8.472)" fill="#f3f3f3"/>
    <path id="Pfad_287" data-name="Pfad 287" d="M333.763,177.3l7.607-.35.289.35q1.251-.7,2.5-1.4-1.878.348-3.756.7c-3.925.233-6.07-.54-9.34-.7l2.7,1.4" transform="translate(0 -8.436)" fill="#e0e0e0"/>
    <path id="Pfad_288" data-name="Pfad 288" d="M622.652,176.617c-.033-.117-.064-.233-.1-.35l-7.608.35a10.818,10.818,0,0,0,7.7,0" transform="translate(0 -8.454)" fill="#f3f3f3"/>
    <path id="Pfad_289" data-name="Pfad 289" d="M199.141,175.609l2.5-2.63c-.16-.35-.322-.7-.482-1.052-.965,1.66-2.3,1.6-3.852,2.1-1.217-.436-.978-.057-.77-1.052-3.153-.207-5.369-2.333-8.474-2.806-2.286-2.258-4.784-4.212-3.37-7.628l-1.734.789c-1.6,4.026-1.232,9.557,2.889,12.275l9.533.7,3.756-.7" transform="translate(0 -7.796)" fill="#cacaca"/>
    <path id="Pfad_290" data-name="Pfad 290" d="M475.319,176.933l7.607-.35c.033.117.064.233.1.35l2.7-1.4-3.948.7c-3.546.283-6.155-.489-9.148-.7l2.7,1.4" transform="translate(0 -8.419)" fill="#e0e0e0"/>
    <path id="Pfad_291" data-name="Pfad 291" d="M344.163,175.232l2.5-2.63c-.986.152.562-1.313.289-1.578a9.266,9.266,0,0,1-5.586,2.279c.351-.927-1.785-.331-2.5-.877l-2.311-1.929-3.467-.7a5.853,5.853,0,0,1-2.407-3.419h-.771a6.957,6.957,0,0,1,0-4.384l-1.733.964c-1.955,3.812-1.144,9.763,2.889,12.275,3.27.161,5.415.935,9.34.7l3.756-.7" transform="translate(0 -7.77)" fill="#cacaca"/>
    <path id="Pfad_292" data-name="Pfad 292" d="M614.949,176.564l7.607-.35c.033.117.064.233.1.35l2.7-1.4q-1.973.348-3.948.7c-3.546.285-6.146-.477-9.148-.7l2.7,1.4" transform="translate(0 -8.401)" fill="#e0e0e0"/>
    <path id="Pfad_293" data-name="Pfad 293" d="M485.719,174.863q1.155-1.228,2.311-2.455c-.133-.6-1.623.346-2.022.7l-2.311-.175c-.129-.35-.256-.7-.385-1.052-3.448.417-5.634-2.039-8.86-2.63-2.27-2.469-4.418-4.133-2.985-7.628l-1.733.789c-1.918,3.819-1.343,9.984,2.889,12.45,2.993.212,5.6.983,9.148.7l3.948-.7" transform="translate(0 -7.752)" fill="#cacaca"/>
    <path id="Pfad_294" data-name="Pfad 294" d="M1044.238,175.512l-.289-.35-7.607.35a11.642,11.642,0,0,0,7.9,0" transform="translate(0 -8.401)" fill="#f3f3f3"/>
    <path id="Pfad_295" data-name="Pfad 295" d="M625.349,174.5q1.155-1.228,2.311-2.455c.1-.467.193-.934.289-1.4-1.81,1.262-3.012,2.143-5.393,2.1-.138-1.431-2.923-1.008-4.044-2.63l-3.852-.877a6.3,6.3,0,0,1-2.793-3.419h-.77a7.385,7.385,0,0,1-.192-4.384l-1.734.789c-1.558,4.02-1.142,9.785,3.082,12.275,3,.225,5.6.985,9.148.7l3.948-.7" transform="translate(0 -7.743)" fill="#cacaca"/>
    <path id="Pfad_296" data-name="Pfad 296" d="M654.237,173.872q-.1.965-.193,1.929.1-.964.193-1.929" transform="translate(0 -8.339)"/>
    <path id="Pfad_297" data-name="Pfad 297" d="M1186.949,175.144c-.033-.117-.063-.233-.1-.35l-7.8.35a11.828,11.828,0,0,0,7.9,0" transform="translate(0 -8.383)" fill="#f3f3f3"/>
    <path id="Pfad_298" data-name="Pfad 298" d="M1036.342,175.459l7.607-.35.289.35q1.251-.7,2.5-1.4-2.071.348-4.141.7-4.477-.35-8.955-.7l2.7,1.4" transform="translate(0 -8.348)" fill="#e0e0e0"/>
    <path id="Pfad_299" data-name="Pfad 299" d="M1179.053,175.091l7.8-.35c.033.117.064.233.1.35l2.7-1.4-4.334.7-8.763-.7q1.251.7,2.5,1.4" transform="translate(0 -8.33)" fill="#e0e0e0"/>
    <path id="Pfad_300" data-name="Pfad 300" d="M1046.741,173.39l2.5-2.63q.24-1.052.481-2.1c-1.46,1.943-3.382,2.567-5.97,2.981-.063-.233-.129-.468-.193-.7-1.878.035-2.534-1.164-3.852-2.1l-4.237-1.052-2.984-3.244a6.638,6.638,0,0,1,0-4.384q-.868.481-1.734.964c-1.961,3.835-1.183,9.573,2.89,12.275l8.954.7,4.141-.7" transform="translate(0 -7.681)" fill="#cacaca"/>
    <path id="Pfad_301" data-name="Pfad 301" d="M201.645,172.737c2.608-4.484,1.585-11.342-3.756-14.028-5.4-2.716-12.664-.64-14.926,4.384l1.734-.789c-1.414,3.416,1.084,5.369,3.37,7.628,3.1.471,5.322,2.6,8.474,2.806-.208.994-.447.615.771,1.052,1.548-.508,2.887-.444,3.852-2.1.159.35.321.7.481,1.052" transform="translate(0 -7.554)" fill="#a8a8a8"/>
    <path id="Pfad_302" data-name="Pfad 302" d="M1189.645,173.021l2.5-2.63c-1.025.129.366-1.013.1-1.227a6.451,6.451,0,0,1-5.007,2.1l-.578-1.052c-2.877-.063-4.734-2.368-7.7-2.455-2.629-2.148-5.233-4.506-3.755-7.978l-1.541.789c-1.99,3.733-1.327,10.067,2.889,12.45l8.763.7,4.333-.7" transform="translate(0 -7.663)" fill="#cacaca"/>
    <path id="Pfad_303" data-name="Pfad 303" d="M346.667,172.366c2.708-4.307,1.762-11.329-3.563-14.028-5.433-2.755-12.628-.791-14.926,4.384l1.733-.964a6.954,6.954,0,0,0,0,4.383h.771a5.856,5.856,0,0,0,2.407,3.42l3.467.7,2.311,1.929c.718.546,2.854-.051,2.5.877a9.261,9.261,0,0,0,5.585-2.28c.273.265-1.275,1.731-.289,1.578" transform="translate(0 -7.534)" fill="#a8a8a8"/>
    <path id="Pfad_304" data-name="Pfad 304" d="M488.03,172.173c3.031-4.395,1.895-11.761-3.756-14.379-5.381-2.494-12.2-.523-14.54,4.383l1.733-.789c-1.433,3.495.715,5.159,2.985,7.629,3.226.59,5.412,3.047,8.859,2.63l.386,1.053c.77.057,1.54.117,2.311.175.4-.356,1.889-1.3,2.022-.7" transform="translate(0 -7.516)" fill="#a8a8a8"/>
    <path id="Pfad_305" data-name="Pfad 305" d="M513.837,171.11q-.1,1.14-.193,2.279.1-1.138.193-2.279" transform="translate(0 -8.207)"/>
    <path id="Pfad_306" data-name="Pfad 306" d="M627.66,171.8c3.028-4.387,1.9-11.768-3.756-14.379-5.465-2.526-12.3-.441-14.733,4.559l1.733-.789a7.39,7.39,0,0,0,.193,4.383h.77A6.3,6.3,0,0,0,614.66,169l3.852.877c1.121,1.622,3.906,1.2,4.044,2.63,2.381.038,3.583-.842,5.393-2.1-.1.467-.193.934-.289,1.4" transform="translate(0 -7.499)" fill="#a8a8a8"/>
    <path id="Pfad_307" data-name="Pfad 307" d="M1049.245,170.523c2.71-4.34,1.749-11.308-3.563-14.028-5.421-2.776-12.646-.848-14.926,4.384l1.733-.964a6.648,6.648,0,0,0,0,4.383l2.986,3.245,4.237,1.052c1.317.94,1.974,2.139,3.851,2.1.064.233.13.468.193.7,2.588-.414,4.511-1.038,5.97-2.981-.159.7-.321,1.4-.481,2.1" transform="translate(0 -7.445)" fill="#a8a8a8"/>
    <path id="Pfad_308" data-name="Pfad 308" d="M1192.149,170.154c2.689-4.64,1.568-11.566-3.948-14.2-5.347-2.555-12.357-.583-14.541,4.384l1.541-.789c-1.477,3.472,1.126,5.83,3.755,7.978,2.97.088,4.827,2.392,7.7,2.455l.578,1.052a6.451,6.451,0,0,0,5.007-2.1c.27.213-1.121,1.355-.1,1.227" transform="translate(0 -7.426)" fill="#a8a8a8"/>
    <path id="Pfad_309" data-name="Pfad 309" d="M373.437,168.347q-.1,1.315-.193,2.63.1-1.315.193-2.63" transform="translate(0 -8.074)"/>
    <path id="Pfad_310" data-name="Pfad 310" d="M233.037,165.032q-.1,1.755-.193,3.507.1-1.755.193-3.507" transform="translate(0 -7.915)"/>
    <path id="Pfad_311" data-name="Pfad 311" d="M92.637,166.1v-4.384q-.1,2.192-.193,4.384Z" transform="translate(0 -7.756)"/>
    <path id="Pfad_312" data-name="Pfad 312" d="M1217.379,138.14q-.1,11.66-.193,23.322.1-11.66.193-23.322" transform="translate(0 -6.625)" fill="#585858"/>
    <path id="Pfad_313" data-name="Pfad 313" d="M724.534,158.4c-.064.584-.129,1.17-.193,1.754.064-.584.129-1.17.193-1.754" transform="translate(0 -7.597)"/>
    <path id="Pfad_314" data-name="Pfad 314" d="M584.134,155.638q-.1,1.14-.193,2.279.1-1.138.193-2.279" transform="translate(0 -7.465)"/>
    <path id="Pfad_315" data-name="Pfad 315" d="M443.734,153.059c-.064.819-.129,1.636-.193,2.455.064-.82.129-1.637.193-2.455" transform="translate(0 -7.341)"/>
    <path id="Pfad_316" data-name="Pfad 316" d="M92.83,132.8h-.193q.1,10.172.193,20.341Z" transform="translate(0 -6.369)" fill="#585858"/>
    <path id="Pfad_317" data-name="Pfad 317" d="M303.334,149.56q-.1,1.755-.193,3.507.1-1.755.193-3.507" transform="translate(0 -7.173)"/>
    <path id="Pfad_318" data-name="Pfad 318" d="M162.934,146.8q-.1,1.928-.193,3.858.1-1.928.193-3.858" transform="translate(0 -7.041)"/>
    <path id="Pfad_319" data-name="Pfad 319" d="M654.43,140.535c-.064.584-.129,1.17-.193,1.754.064-.584.129-1.17.193-1.754" transform="translate(0 -6.74)"/>
    <path id="Pfad_320" data-name="Pfad 320" d="M514.03,137.588q-.1,1.14-.193,2.279.1-1.138.193-2.279" transform="translate(0 -6.599)"/>
    <path id="Pfad_321" data-name="Pfad 321" d="M373.63,135.193q-.1,1.14-.193,2.279.1-1.138.193-2.279" transform="translate(0 -6.484)"/>
    <path id="Pfad_322" data-name="Pfad 322" d="M233.23,131.878q-.1,1.578-.193,3.156.1-1.578.193-3.156" transform="translate(0 -6.325)"/>
    <path id="Pfad_323" data-name="Pfad 323" d="M92.83,132.622v-3.507q-.1,1.755-.193,3.507Z" transform="translate(0 -6.193)"/>
    <path id="Pfad_324" data-name="Pfad 324" d="M1217.571,107.013q-.1,11.573-.193,23.147.1-11.574.193-23.147" transform="translate(0 -5.133)" fill="#585858"/>
    <path id="Pfad_325" data-name="Pfad 325" d="M93.6,29.1q-.1.526-.193,1.052c-.063.7-.129,1.4-.192,2.1V60.665q-.1,1.754-.193,3.506V92.579q-.095,1.754-.192,3.507v28.582q.384-47.784.77-95.567" transform="translate(0 -1.396)" fill="#585858"/>
    <path id="Pfad_326" data-name="Pfad 326" d="M724.726,124.879c-.064.584-.129,1.17-.193,1.754.064-.584.129-1.17.193-1.754" transform="translate(0 -5.989)"/>
    <path id="Pfad_327" data-name="Pfad 327" d="M584.326,122.484c-.064.644-.129,1.285-.193,1.929.064-.644.129-1.285.193-1.929" transform="translate(0 -5.875)"/>
    <path id="Pfad_328" data-name="Pfad 328" d="M443.926,119.721q-.1,1.141-.193,2.279.1-1.138.193-2.279" transform="translate(0 -5.742)"/>
    <path id="Pfad_329" data-name="Pfad 329" d="M303.526,116.038q-.1,1.755-.193,3.507.1-1.755.193-3.507" transform="translate(0 -5.565)"/>
    <path id="Pfad_330" data-name="Pfad 330" d="M163.126,113.643q-.1,1.755-.193,3.507.1-1.755.193-3.507" transform="translate(0 -5.451)"/>
    <path id="Pfad_331" data-name="Pfad 331" d="M654.623,107.013c-.064.584-.129,1.17-.193,1.754.064-.584.129-1.17.193-1.754" transform="translate(0 -5.133)"/>
    <path id="Pfad_332" data-name="Pfad 332" d="M828.534,107.547c-.033-.117-.064-.233-.1-.35l-7.608.35a13.394,13.394,0,0,0,7.7,0" transform="translate(0 -5.141)" fill="#f3f3f3"/>
    <path id="Pfad_333" data-name="Pfad 333" d="M820.83,107.477l7.607-.35c.033.117.064.233.1.35l2.7-1.578q-2.551.44-5.1.877a22.665,22.665,0,0,1-7.7-1.052c-.1.117-.193.233-.289.351l2.7,1.4" transform="translate(0 -5.071)" fill="#e0e0e0"/>
    <path id="Pfad_334" data-name="Pfad 334" d="M831.23,105.249l2.311-2.455q.24-.964.482-1.929a8.967,8.967,0,0,1-6.163,2.63c.063-.233.129-.467.192-.7-3.054-.387-4.936-2.646-8.089-3.156-1.668-1.089-1.841-3.048-3.177-3.595a6.53,6.53,0,0,1,0-3.858l-1.734.789c-1.623,4.109-1.167,9.882,3.082,12.45l.289-.35a22.665,22.665,0,0,0,7.7,1.052q2.552-.44,5.1-.877" transform="translate(0 -4.421)" fill="#cacaca"/>
    <path id="Pfad_335" data-name="Pfad 335" d="M514.223,104.434q-.1.964-.193,1.929.1-.964.193-1.929" transform="translate(0 -5.009)"/>
    <path id="Pfad_336" data-name="Pfad 336" d="M1217.571,106.239v-.7c-.562-.253-.562.954,0,.7" transform="translate(0 -5.06)" fill="#585858"/>
    <path id="Pfad_337" data-name="Pfad 337" d="M373.823,101.855q-.1,1.14-.193,2.279.1-1.14.193-2.279" transform="translate(0 -4.885)"/>
    <path id="Pfad_338" data-name="Pfad 338" d="M833.541,102.555c2.743-4.1,2.045-10.933-2.985-13.853-5.375-3.12-12.935-1.229-15.5,4.033l1.733-.788a6.538,6.538,0,0,0,0,3.858c1.337.546,1.51,2.506,3.178,3.595,3.153.509,5.035,2.769,8.089,3.156-.063.234-.129.467-.192.7a8.976,8.976,0,0,0,6.163-2.63q-.24.964-.482,1.929" transform="translate(0 -4.182)" fill="#a8a8a8"/>
    <path id="Pfad_339" data-name="Pfad 339" d="M233.422,97.987q-.1,1.841-.193,3.682.1-1.841.193-3.682" transform="translate(0 -4.7)"/>
    <path id="Pfad_340" data-name="Pfad 340" d="M93.022,95.777q-.1,1.754-.193,3.507.1-1.754.193-3.507" transform="translate(0 -4.594)"/>
    <path id="Pfad_341" data-name="Pfad 341" d="M1217.764,74.6q-.094,11.836-.193,23.672.1-11.836.193-23.672" transform="translate(0 -3.578)" fill="#585858"/>
    <path id="Pfad_342" data-name="Pfad 342" d="M584.519,88.962q-.1.964-.193,1.929.1-.964.193-1.929" transform="translate(0 -4.267)"/>
    <path id="Pfad_343" data-name="Pfad 343" d="M444.119,86.2q-.1,1.14-.193,2.279.1-1.14.193-2.279" transform="translate(0 -4.134)"/>
    <path id="Pfad_344" data-name="Pfad 344" d="M303.719,82.884q-.1,1.578-.193,3.156.1-1.578.193-3.156" transform="translate(0 -3.975)"/>
    <path id="Pfad_345" data-name="Pfad 345" d="M163.319,80.305q-.1,1.665-.193,3.332.1-1.667.193-3.332" transform="translate(0 -3.852)"/>
    <path id="Pfad_346" data-name="Pfad 346" d="M654.815,73.675q-.1.79-.193,1.578.1-.79.193-1.578" transform="translate(0 -3.534)"/>
    <path id="Pfad_347" data-name="Pfad 347" d="M1217.764,73.278v-.526c-.555-.2-.555.731,0,.526" transform="translate(0 -3.488)" fill="#585858"/>
    <path id="Pfad_348" data-name="Pfad 348" d="M514.415,70.912q-.1,1.052-.193,2.1.1-1.052.193-2.1" transform="translate(0 -3.401)"/>
    <path id="Pfad_349" data-name="Pfad 349" d="M374.015,68.333q-.1,1.14-.193,2.279.1-1.14.193-2.279" transform="translate(0 -3.277)"/>
    <path id="Pfad_350" data-name="Pfad 350" d="M233.615,64.65q-.1,1.754-.193,3.506.1-1.754.193-3.506" transform="translate(0 -3.101)"/>
    <path id="Pfad_351" data-name="Pfad 351" d="M1217.956,42.179q-.1,12.363-.193,24.724.1-12.361.193-24.724" transform="translate(0 -2.023)" fill="#585858"/>
    <path id="Pfad_352" data-name="Pfad 352" d="M93.215,62.255q-.1,1.754-.193,3.507.1-1.754.193-3.507" transform="translate(0 -2.986)"/>
    <path id="Pfad_353" data-name="Pfad 353" d="M584.711,55.809q-.1.79-.193,1.578.1-.788.193-1.578" transform="translate(0 -2.677)"/>
    <path id="Pfad_354" data-name="Pfad 354" d="M444.311,52.862q-.1,1.052-.193,2.1.1-1.052.193-2.1" transform="translate(0 -2.535)"/>
    <path id="Pfad_355" data-name="Pfad 355" d="M303.911,49.73q-.1,1.4-.193,2.806.1-1.4.193-2.806" transform="translate(0 -2.385)"/>
    <path id="Pfad_356" data-name="Pfad 356" d="M163.511,46.6q-.1,1.754-.193,3.507.1-1.754.193-3.507" transform="translate(0 -2.235)"/>
    <path id="Pfad_357" data-name="Pfad 357" d="M655.008,40.153q-.1.79-.193,1.578.1-.79.193-1.578" transform="translate(0 -1.926)"/>
    <path id="Pfad_358" data-name="Pfad 358" d="M514.608,37.574q-.1.964-.193,1.929.1-.964.193-1.929" transform="translate(0 -1.802)"/>
    <path id="Pfad_359" data-name="Pfad 359" d="M374.208,35q-.1,1.052-.193,2.1.1-1.051.193-2.1" transform="translate(0 -1.678)"/>
    <path id="Pfad_360" data-name="Pfad 360" d="M1217.956,32.785v0Z" transform="translate(0 -1.572)" fill="#585858"/>
    <path id="Pfad_361" data-name="Pfad 361" d="M233.808,31.68q-.1,1.491-.193,2.981.1-1.491.193-2.981" transform="translate(0 -1.519)"/>
    <path id="Pfad_362" data-name="Pfad 362" d="M93.408,30.207q-.1,1.052-.193,2.1.1-1.051.193-2.1" transform="translate(0 -1.449)"/>
    <path id="Pfad_363" data-name="Pfad 363" d="M93.793,26.339c-.064.174-.129.35-.193.526.064-.176.129-.352.193-.526" transform="translate(0 -1.263)" fill="#585858"/>
    <path id="Pfad_364" data-name="Pfad 364" d="M585.482,24.128v0Z" transform="translate(0 -1.157)" fill="#585858"/>
    <path id="Pfad_365" data-name="Pfad 365" d="M866.667,23.207l-.193.35.193-.35" transform="translate(0 -1.113)" fill="#979797"/>
    <path id="Pfad_366" data-name="Pfad 366" d="M936.964,23.023l-.193.35.193-.35" transform="translate(0 -1.104)" fill="#979797"/>
    <path id="Pfad_367" data-name="Pfad 367" d="M1007.26,22.839l-.193.35.193-.35" transform="translate(0 -1.095)" fill="#979797"/>
    <path id="Pfad_368" data-name="Pfad 368" d="M940.43,13.243c-.322-.117-.641-.234-.963-.35l-.578.175q-.384,2.368-.77,4.734.288,1.4.578,2.806c1.879,2.454,2.367-1.939,2.792-3.156l62.978.175a3.037,3.037,0,0,0,2.408-2.543c.65-2.337-4.243-.452-5.489-1.315l-60.474.175c-.16-.234-.322-.467-.482-.7" transform="translate(0 -0.618)" fill="#7b7e7f"/>
    <path id="Pfad_369" data-name="Pfad 369" d="M1010.534,13.077h-1.348l-.193.175q-.384,2.543-.77,5.086.384,1.315.77,2.63c2.138,1.7,2.024-2.394,2.793-3.331h62.978c1.658-.252,1.981-1.108,2.407-2.543.693-2.337-4.453-.452-5.681-1.315l-60.474.175c-.16-.292-.322-.585-.482-.877" transform="translate(0 -0.627)" fill="#7b7e7f"/>
    <path id="Pfad_370" data-name="Pfad 370" d="M1080.638,13.077h-.578l-.77.175q-.384,2.543-.771,5.086.289,1.227.578,2.454c2.022,2.2,2.175-2.068,2.793-3.156h63.363c1.623-.438,1.843-1.3,2.215-2.718.539-2.054-4.734-.308-5.874-1.14l-60.475.175c-.159-.292-.321-.585-.481-.877" transform="translate(0 -0.627)" fill="#7b7e7f"/>
    <path id="Pfad_371" data-name="Pfad 371" d="M1150.934,13.252l-.77-.175-.578.175h-.193q-.384,2.718-.77,5.436.288.964.578,1.929c1.956,2.616,2.342-1.768,2.792-2.981l60.378-.264-2.215-3.419-56.237.175c-.747-.6-2.868.479-2.985-.877" transform="translate(0 -0.627)" fill="#7b7e7f"/>
    <path id="Pfad_372" data-name="Pfad 372" d="M659.823,13.068l-.77-.175H657.9q-.289,1.928-.578,3.858.29,1.841.578,3.682c2.022,2.394,2.278-1.819,2.985-2.981h63.363a5.523,5.523,0,0,0,1.637-3.245c-.032-.146-.063-.292-.1-.438l-5.2-.175-59.7.35-1.059-.877" transform="translate(0 -0.618)" fill="#7b7e7f"/>
    <path id="Pfad_373" data-name="Pfad 373" d="M729.927,13.059c-.323-.117-.641-.234-.963-.35l-.77.35q-.385,2.1-.772,4.208.386,1.667.772,3.332c1.883,2.13,2.319-2.106,2.792-3.156h63.556a5.308,5.308,0,0,0,1.637-3.42l-5.682-.438-59.511.35-1.059-.877" transform="translate(0 -0.61)" fill="#7b7e7f"/>
    <path id="Pfad_374" data-name="Pfad 374" d="M800.03,13.068l-.77-.175-.771.175q-.384,2.1-.77,4.208.288,1.667.578,3.332c2.116,2.26,2.2-2.143,2.985-3.156l59.9.175c2.558-.346,4.47.306,5.1-2.368-.033-.5-.064-.993-.1-1.49l-65.674.175c-.16-.292-.322-.585-.482-.877" transform="translate(0 -0.618)" fill="#7b7e7f"/>
    <path id="Pfad_375" data-name="Pfad 375" d="M870.134,12.893h-1.348l-.193.175q-.384,2.455-.77,4.91.384,1.4.77,2.806c1.984,1.9,2.2-2.283,2.793-3.331l62.4.175c1.674-.147,2.28-1,2.792-2.367-.032-.5-.063-.994-.1-1.491l-65.674.175-.674-1.052" transform="translate(0 -0.618)" fill="#7b7e7f"/>
    <path id="Pfad_376" data-name="Pfad 376" d="M308.919,12.875l-.77-.35c-.23.7-.751.109-1.156,0H306.8q-.289,1.665-.578,3.331.384,2.192.77,4.384c1.913,2.432,2.278-1.861,2.985-2.981l61.823.175c1.56-.1,2.185-1.319,2.6-2.543-.033-.438-.064-.877-.1-1.315l-64.9.175c-.16-.292-.322-.585-.482-.877" transform="translate(0 -0.601)" fill="#7b7e7f"/>
    <path id="Pfad_377" data-name="Pfad 377" d="M379.215,13.059l-.963-.35H377.1q-.288,1.665-.577,3.331.384,2.281.77,4.559c1.986,1.645,2.311-2.29,2.793-3.332l62.592.176a3.911,3.911,0,0,0,2.023-2.718c.479-2-3.286-.348-4.334-1.14l-60.859.175c-.1-.234-.193-.467-.289-.7" transform="translate(0 -0.61)" fill="#7b7e7f"/>
    <path id="Pfad_378" data-name="Pfad 378" d="M449.319,13.059c-.322-.117-.641-.234-.963-.35h-.963q-.384,1.754-.77,3.506.384,2.1.77,4.209c2.053,2.228,2.13-2.006,2.985-2.981l3.852-.176,58.933.176a4.1,4.1,0,0,0,1.83-2.893c.362-1.709-3.771-.208-4.718-.964l-60.475.175c-.159-.234-.321-.467-.481-.7" transform="translate(0 -0.61)" fill="#7b7e7f"/>
    <path id="Pfad_379" data-name="Pfad 379" d="M519.23,12.884l-.77-.175-.963.175q-.289,1.754-.578,3.507.289,1.928.578,3.858c1.97,2.578,2.324-1.664,2.985-2.806h63.17a5.062,5.062,0,0,0,1.637-2.893c.322-1.737-3.917-.188-4.911-.964l-60.474.175-.674-.877" transform="translate(0 -0.61)" fill="#7b7e7f"/>
    <path id="Pfad_380" data-name="Pfad 380" d="M589.526,12.884l-.578-.175-1.155.175q-.386,1.929-.771,3.858.384,1.929.771,3.858c1.991,1.814,2.295-2.032,2.792-3.156h63.363a5.032,5.032,0,0,0,1.637-3.068c-.368-1.59-3.948.26-5.1-.789l-58.741.35c-.8-.51-2.171.366-2.215-1.052" transform="translate(0 -0.61)" fill="#7b7e7f"/>
    <path id="Pfad_381" data-name="Pfad 381" d="M98.222,12.691l-.77-.175L96.3,12.341q-.29,1.489-.578,2.981.483,2.63.963,5.26c2,1.173,2-2.456,2.793-3.331h62.592l1.445-2.192c.738-2.994-2.731-.364-4.141-1.666l-60.089.35-1.059-1.052" transform="translate(0 -0.592)" fill="#7b7e7f"/>
    <path id="Pfad_382" data-name="Pfad 382" d="M168.519,12.682l-.77-.175c-.154.488-1.1.029-1.156-.351-.063.059-.129.117-.193.176q-.288,1.665-.577,3.331.481,2.455.963,4.91c2.035,1.309,2.157-2.363,2.792-3.331h62.785l1.445-2.192c.8-2.912-2.912-.364-4.333-1.666l-60.282.35-.674-1.052" transform="translate(0 -0.583)" fill="#7b7e7f"/>
    <path id="Pfad_383" data-name="Pfad 383" d="M238.622,12.7l-.77-.175c-.472.664-.586-.012-1.156,0q-.289,1.578-.578,3.156.384,2.368.771,4.734c1.866,1.837,2.367-2.061,2.792-3.156l60.86.175c2.307.014,2.925-.827,3.563-2.543-.033-.438-.064-.877-.1-1.315l-64.711.175-.674-1.052" transform="translate(0 -0.601)" fill="#7b7e7f"/>
    <path id="Pfad_384" data-name="Pfad 384" d="M31.778,12.8l-.578-.35L29.852,11.4l-.578-.351L27.926,12.1q-.288,2.543-.578,5.086c.825.55-.069,2.753,1.445,2.806a5.672,5.672,0,0,0,2.7-2.806H91.963q.627-1.008,1.252-2.016c.755-3.226-2.585-.665-3.948-1.841l-54.889.35c-.729-.606-2.631.489-2.6-.877" transform="translate(0 -0.53)" fill="#7b7e7f"/>
    <path id="Pfad_385" data-name="Pfad 385" d="M1218.149,13.741l-4.622-1.929-7.029-.877-896.52-.35c-1.467.25-2.209.135-3.274.877.42-1.121.32-.358-.77-.877H239.489c-.743.541-1.893-.331-2.311.7-.448-.234-.9-.467-1.348-.7H167.46l-.963.7-1.156-.7H98.7l-2.5.7-.963-.7-62.785.175L30.623,9.8c.539-1.292,3.809.773,4.814-.438l-3.851-.526L31.2,8.656h-.963c-1.346.01-.98,1.212-.963,2.279l.578.351L31.2,12.338l.578.35,61.534-.35,1.348.35,1.637-.7c-.2-.814,1.123.049,1.155.35l.771.175,66.733.175,1.444-.526.193-.175,1.156.35.77.175,67.119.175,1.059-.526c-.131-.87,1.042.019,1.155.175l.771.175,68.178-.175h.192c-.142-1.2.7,0,1.156,0l.77.35,68.178-.35c-.075-.917.99-.251,1.156.175l.962.351,68.178-.351c-.215-.954.811-.473.963,0l.963.351,68.178-.351c.241-.766.609-.59.963,0l.77.175,68.563-.175c-.142-1.2.7,0,1.156,0l.578.175H658.09c-.278-.947.824-.359.963,0l.77.176,68.37-.176c-.115-.631.617-.528.771-.175l.963.351,68.563-.176c-.17-.963.593-.407.77,0l.771.176h68.563c.063-.059.129-.117.192-.176-.142-.609.538-.331.578,0h.77l68.756.176c-.166-.674.385-.688.578-.176l.963.351,66.155-.351,2.408.351c.063-.059.129-.117.192-.175-.213-.674.736-.184.771,0h69.333a.388.388,0,0,1,.77,0h.578l68.756.175h.192l.578-.175.771.175,58.451-.351,8.763,1.052M377,11.462c-.528-.746,1.04-.128,0,0m70.3,0c-.528-.746,1.038-.128,0,0" transform="translate(0 -0.415)" fill="#243845"/>
    <path id="Pfad_386" data-name="Pfad 386" d="M1009.956,13.06c-.035-.184-.984-.673-.77,0Z" transform="translate(0 -0.61)" fill="#7b8085"/>
    <path id="Pfad_387" data-name="Pfad 387" d="M1080.06,13.06a.388.388,0,0,0-.77,0v.175l.77-.175" transform="translate(0 -0.61)" fill="#7b8085"/>
    <path id="Pfad_388" data-name="Pfad 388" d="M1150.164,13.077l-.578.175.578-.175" transform="translate(0 -0.627)" fill="#7b8085"/>
    <path id="Pfad_389" data-name="Pfad 389" d="M588.948,12.682c-.453,0-1.3-1.2-1.156,0v.175l1.156-.175" transform="translate(0 -0.583)" fill="#7b8085"/>
    <path id="Pfad_390" data-name="Pfad 390" d="M659.052,12.867c-.139-.359-1.24-.948-.963,0Z" transform="translate(0 -0.593)" fill="#7b8085"/>
    <path id="Pfad_391" data-name="Pfad 391" d="M728.964,12.695c-.154-.353-.886-.456-.771.175v.175l.771-.35" transform="translate(0 -0.595)" fill="#7b8085"/>
    <path id="Pfad_392" data-name="Pfad 392" d="M799.26,12.866c-.177-.407-.94-.963-.77,0v.175l.77-.175" transform="translate(0 -0.591)" fill="#7b8085"/>
    <path id="Pfad_393" data-name="Pfad 393" d="M869.364,12.875c-.04-.332-.72-.609-.578,0Z" transform="translate(0 -0.6)" fill="#7b8085"/>
    <path id="Pfad_394" data-name="Pfad 394" d="M939.467,12.875c-.193-.513-.743-.5-.578.175l.578-.175" transform="translate(0 -0.6)" fill="#7b8085"/>
    <path id="Pfad_395" data-name="Pfad 395" d="M237.852,12.5c-.114-.156-1.287-1.045-1.156-.175V12.5c.571-.012.684.663,1.156,0" transform="translate(0 -0.573)" fill="#7b8085"/>
    <path id="Pfad_396" data-name="Pfad 396" d="M308.148,12.5c-.453,0-1.3-1.2-1.156,0,.4.109.927.7,1.156,0" transform="translate(0 -0.574)" fill="#7b8085"/>
    <path id="Pfad_397" data-name="Pfad 397" d="M378.252,12.677c-.166-.427-1.231-1.092-1.156-.175v.175Z" transform="translate(0 -0.578)" fill="#7b8085"/>
    <path id="Pfad_398" data-name="Pfad 398" d="M448.356,12.681c-.152-.473-1.179-.955-.963,0Z" transform="translate(0 -0.582)" fill="#7b8085"/>
    <path id="Pfad_399" data-name="Pfad 399" d="M518.46,12.683c-.354-.59-.722-.766-.963,0v.175l.963-.175" transform="translate(0 -0.584)" fill="#7b8085"/>
    <path id="Pfad_400" data-name="Pfad 400" d="M519.23,12.884l-.77-.175.77.175" transform="translate(0 -0.61)" fill="#7b8085"/>
    <path id="Pfad_401" data-name="Pfad 401" d="M97.452,12.49c-.033-.3-1.354-1.164-1.156-.351v.176l1.156.175" transform="translate(0 -0.566)" fill="#7b8085"/>
    <path id="Pfad_402" data-name="Pfad 402" d="M167.748,12.507l-1.156-.351c.056.38,1,.84,1.156.351" transform="translate(0 -0.583)" fill="#7b8085"/>
    <path id="Pfad_403" data-name="Pfad 403" d="M31.2,12.472l-1.348-1.053L31.2,12.472" transform="translate(0 -0.548)" fill="#7b8085"/>
    <path id="Pfad_404" data-name="Pfad 404" d="M29.274,10.927c-.018-1.067-.383-2.269.963-2.279-1.969-1.04-2.1,2.484-2.311,3.331l1.348-1.052" transform="translate(0 -0.406)" fill="#232f34"/>
    <path id="Pfad_405" data-name="Pfad 405" d="M1213.527,11.848l-10.882-1.754L39.482,9.744l-2.7-.175L36.4,9.393h-.963c-1.006,1.211-4.276-.854-4.815.439l1.83.964,62.785-.175c.322.233.642.467.963.7l2.5-.7h66.637l1.156.7.962-.7H235.83l1.348.7c.418-1.032,1.568-.161,2.311-.7h66.445c1.09.519,1.19-.244.77.877,1.065-.742,1.807-.626,3.274-.877l896.519.35,7.03.877" transform="translate(0 -0.45)" fill="#253f52"/>
    <path id="Pfad_406" data-name="Pfad 406" d="M36.785,9.568,36.4,9.393l.385.175" transform="translate(0 -0.451)" fill="#232f34"/>
    <path id="Pfad_407" data-name="Pfad 407" d="M31.585,8.832,31.2,8.657l.385.175" transform="translate(0 -0.415)" fill="#232f34"/>
    <path id="Pfad_408" data-name="Pfad 408" d="M24.844.184H23.688c-.347.522,1.5.522,1.156,0" transform="translate(0 -0.009)" fill="#fefefe"/>
  </g>
</svg>
