<svg id="fretboard_4" xmlns="http://www.w3.org/2000/svg" xmlns:xlink="http://www.w3.org/1999/xlink" width="1226.923" height="386.027" viewBox="0 0 1226.923 386.027">
  <defs>
    <clipPath id="clip-path">
      <rect id="Rechteck_27" data-name="Rechteck 27" width="1226.923" height="386.027" fill="none"/>
    </clipPath>
  </defs>
  <rect id="Rechteck_25" data-name="Rechteck 25" width="1201.986" height="359.765" transform="translate(24.447 2.84)" fill="#1d262a"/>
  <path id="Pfad_141" data-name="Pfad 141" d="M24.443,362.6l-3.06,15.978H1220.772l5.661-15.978Z" fill="#0e1416"/>
  <rect id="Rechteck_26" data-name="Rechteck 26" width="20.014" height="362.605" transform="translate(4.432)" fill="#d9dada"/>
  <path id="Pfad_142" data-name="Pfad 142" d="M4.432,362.605,0,386.027H19.951l4.495-23.422Z" fill="#8e8e8e"/>
  <path id="Pfad_143" data-name="Pfad 143" d="M95.593,2.835V362.667l-3.3,15.911h-1.02l3.31-15.977.01-.055V2.835Z" fill="#7a7a7a"/>
  <path id="Pfad_144" data-name="Pfad 144" d="M519.163,2.835V362.656l-3.05,15.922h-1.03l3.07-15.977.01-.055V2.835Z" fill="#7a7a7a"/>
  <path id="Pfad_145" data-name="Pfad 145" d="M1084.323,2.835V362.7l-5.23,15.878h-1.06l5.26-15.977.03-.1V2.835Z" fill="#7a7a7a"/>
  <path id="Pfad_146" data-name="Pfad 146" d="M1154.973,2.835V362.689l-4.95,15.889h-1.05l4.97-15.977.03-.088V2.835Z" fill="#7a7a7a"/>
  <path id="Pfad_147" data-name="Pfad 147" d="M378.173,2.835V362.667l-3.27,15.911h-1.03l3.29-15.977.01-.055V2.835Z" fill="#7a7a7a"/>
  <path id="Pfad_148" data-name="Pfad 148" d="M448.823,2.835V362.667l-3.43,15.911h-1.03l3.45-15.977.01-.066V2.835Z" fill="#7a7a7a"/>
  <path id="Pfad_149" data-name="Pfad 149" d="M589.8,2.835V362.667l-3.44,15.911h-1.03l3.46-15.977.01-.066V2.835Z" fill="#7a7a7a"/>
  <path id="Pfad_150" data-name="Pfad 150" d="M660.763,2.835V362.667l-3.22,15.911h-1.02l3.23-15.977.01-.055V2.835Z" fill="#7a7a7a"/>
  <path id="Pfad_151" data-name="Pfad 151" d="M731.4,2.835V362.656l-3.15,15.922h-1.02l3.16-15.977.01-.055V2.835Z" fill="#7a7a7a"/>
  <path id="Pfad_152" data-name="Pfad 152" d="M801.743,2.835V362.667l-3.72,15.911h-1.04l3.74-15.977.02-.066V2.835Z" fill="#7a7a7a"/>
  <path id="Pfad_153" data-name="Pfad 153" d="M872.393,2.835V362.678l-3.9,15.9h-1.03l3.91-15.977.02-.077V2.835Z" fill="#7a7a7a"/>
  <path id="Pfad_154" data-name="Pfad 154" d="M943.343,2.835V362.678l-4.1,15.9h-1.05l4.13-15.977.02-.077V2.835Z" fill="#7a7a7a"/>
  <path id="Pfad_155" data-name="Pfad 155" d="M1013.993,2.835V362.689l-4.65,15.889h-1.05l4.67-15.977.03-.088V2.835Z" fill="#7a7a7a"/>
  <path id="Pfad_156" data-name="Pfad 156" d="M1225.922,2.835V362.491l-.04.11-5.609,15.978h1.07l5.58-15.879V2.835Z" fill="#7a7a7a"/>
  <path id="Pfad_157" data-name="Pfad 157" d="M166.243,2.835v359.81l-2.01,15.933h-1.01l2.02-15.977V2.835Z" fill="#7a7a7a"/>
  <path id="Pfad_158" data-name="Pfad 158" d="M236.583,2.835v359.81l-2.31,15.933h-1.01l2.31-15.977.01-.044V2.835Z" fill="#7a7a7a"/>
  <path id="Pfad_159" data-name="Pfad 159" d="M307.223,2.835V362.667l-3.12,15.911h-1.03l3.14-15.977.01-.055V2.835Z" fill="#7a7a7a"/>
  <g id="Gruppe_38" data-name="Gruppe 38">
    <g id="Gruppe_37" data-name="Gruppe 37" clip-path="url(#clip-path)">
      <path id="Pfad_160" data-name="Pfad 160" d="M211.32,182.723c0,6.037-4.445,10.931-9.928,10.931s-9.927-4.894-9.927-10.931,4.445-10.931,9.927-10.931,9.928,4.894,9.928,10.931" fill="#d9dada"/>
      <path id="Pfad_161" data-name="Pfad 161" d="M350.383,182.723c0,6.037-4.445,10.931-9.928,10.931s-9.927-4.894-9.927-10.931,4.445-10.931,9.927-10.931,9.928,4.894,9.928,10.931" fill="#d9dada"/>
      <path id="Pfad_162" data-name="Pfad 162" d="M491.215,182.723c0,6.037-4.445,10.931-9.928,10.931s-9.927-4.894-9.927-10.931,4.445-10.931,9.927-10.931,9.928,4.894,9.928,10.931" fill="#d9dada"/>
      <path id="Pfad_163" data-name="Pfad 163" d="M633.834,182.723c0,6.037-4.445,10.931-9.928,10.931s-9.927-4.894-9.927-10.931,4.445-10.931,9.927-10.931,9.928,4.894,9.928,10.931" fill="#d9dada"/>
      <path id="Pfad_164" data-name="Pfad 164" d="M844.522,272.664c0,6.037-4.445,10.931-9.928,10.931s-9.927-4.894-9.927-10.931,4.445-10.931,9.927-10.931,9.928,4.894,9.928,10.931" fill="#d9dada"/>
      <path id="Pfad_165" data-name="Pfad 165" d="M1055.123,182.723c0,6.037-4.445,10.931-9.927,10.931s-9.928-4.894-9.928-10.931,4.445-10.931,9.928-10.931,9.927,4.894,9.927,10.931" fill="#d9dada"/>
      <path id="Pfad_166" data-name="Pfad 166" d="M1197.067,182.723c0,6.037-4.445,10.931-9.928,10.931s-9.927-4.894-9.927-10.931,4.445-10.931,9.927-10.931,9.928,4.894,9.928,10.931" fill="#d9dada"/>
      <path id="Pfad_167" data-name="Pfad 167" d="M844.3,92.781c0,6.037-4.445,10.931-9.928,10.931s-9.927-4.894-9.927-10.931,4.445-10.931,9.927-10.931,9.928,4.9,9.928,10.931" fill="#d9dada"/>
    </g>
  </g>
</svg>
