<svg id="fretboard_1000" xmlns="http://www.w3.org/2000/svg" xmlns:xlink="http://www.w3.org/1999/xlink" width="1226.923" height="350.58" viewBox="0 0 1226.923 350.58">
  <defs>
    <clipPath id="clip-path">
      <rect id="Rechteck_18" data-name="Rechteck 18" width="1226.923" height="350.58" fill="none"/>
    </clipPath>
  </defs>
  <rect id="Rechteck_16" data-name="Rechteck 16" width="1201.986" height="326.73" transform="translate(24.447 2.579)" fill="#1d262a"/>
  <path id="path_60" data-name="Pfad 60" d="M24.443,329.3l-3.06,14.511H1220.772l5.661-14.511Z" fill="#0e1416"/>
  <rect id="Rechteck_17" data-name="Rechteck 17" width="20.014" height="329.309" transform="translate(4.432)" fill="#d9dada"/>
  <path id="path_61" data-name="Pfad 61" d="M4.432,329.309,0,350.58H19.951l4.495-21.271Z" fill="#8e8e8e"/>
  <path id="path_62" data-name="Pfad 62" d="M95.593,2.575v326.79l-3.3,14.45h-1.02l3.31-14.51.01-.05V2.575Z" fill="#7a7a7a"/>
  <path id="path_63" data-name="Pfad 63" d="M519.163,2.575v326.78l-3.05,14.46h-1.03l3.07-14.51.01-.05V2.575Z" fill="#7a7a7a"/>
  <path id="path_64" data-name="Pfad 64" d="M1084.323,2.575V329.4l-5.23,14.42h-1.06l5.26-14.51.03-.09V2.575Z" fill="#7a7a7a"/>
  <path id="path_65" data-name="Pfad 65" d="M1154.973,2.575v326.81l-4.95,14.43h-1.05l4.97-14.51.03-.08V2.575Z" fill="#7a7a7a"/>
  <path id="path_66" data-name="Pfad 66" d="M378.173,2.575v326.79l-3.27,14.45h-1.03l3.29-14.51.01-.05V2.575Z" fill="#7a7a7a"/>
  <path id="path_67" data-name="Pfad 67" d="M448.823,2.575v326.79l-3.43,14.45h-1.03l3.45-14.51.01-.06V2.575Z" fill="#7a7a7a"/>
  <path id="path_68" data-name="Pfad 68" d="M589.8,2.575v326.79l-3.44,14.45h-1.03l3.46-14.51.01-.06V2.575Z" fill="#7a7a7a"/>
  <path id="path_69" data-name="Pfad 69" d="M660.763,2.575v326.79l-3.22,14.45h-1.02l3.23-14.51.01-.05V2.575Z" fill="#7a7a7a"/>
  <path id="path_70" data-name="Pfad 70" d="M731.4,2.575v326.78l-3.15,14.46h-1.02l3.16-14.51.01-.05V2.575Z" fill="#7a7a7a"/>
  <path id="path_71" data-name="Pfad 71" d="M801.743,2.575v326.79l-3.72,14.45h-1.04l3.74-14.51.02-.06V2.575Z" fill="#7a7a7a"/>
  <path id="path_72" data-name="Pfad 72" d="M872.393,2.575v326.8l-3.9,14.44h-1.03l3.91-14.51.02-.07V2.575Z" fill="#7a7a7a"/>
  <path id="path_73" data-name="Pfad 73" d="M943.343,2.575v326.8l-4.1,14.44h-1.05l4.13-14.51.02-.07V2.575Z" fill="#7a7a7a"/>
  <path id="path_74" data-name="Pfad 74" d="M1013.993,2.575v326.81l-4.65,14.43h-1.05l4.67-14.51.03-.08V2.575Z" fill="#7a7a7a"/>
  <path id="path_75" data-name="Pfad 75" d="M1225.922,2.575v326.63l-.04.1-5.609,14.51h1.07l5.58-14.42V2.575Z" fill="#7a7a7a"/>
  <path id="path_76" data-name="Pfad 76" d="M166.243,2.575v326.77l-2.01,14.47h-1.01l2.02-14.51V2.575Z" fill="#7a7a7a"/>
  <path id="path_77" data-name="Pfad 77" d="M236.583,2.575v326.77l-2.31,14.47h-1.01l2.31-14.51.01-.04V2.575Z" fill="#7a7a7a"/>
  <path id="path_78" data-name="Pfad 78" d="M307.223,2.575v326.79l-3.12,14.45h-1.03l3.14-14.51.01-.05V2.575Z" fill="#7a7a7a"/>
  <g id="group_32" data-name="Gruppe 32">
    <g id="group_31" data-name="Gruppe 31" clip-path="url(#clip-path)">
      <path id="path_79" data-name="Pfad 79" d="M211.32,165.944a9.928,9.928,0,1,1-9.928-9.928,9.928,9.928,0,0,1,9.928,9.928" fill="#d9dada"/>
      <path id="path_80" data-name="Pfad 80" d="M350.383,165.944a9.927,9.927,0,1,1-9.928-9.928,9.928,9.928,0,0,1,9.928,9.928" fill="#d9dada"/>
      <path id="path_81" data-name="Pfad 81" d="M491.215,165.944a9.928,9.928,0,1,1-9.928-9.928,9.928,9.928,0,0,1,9.928,9.928" fill="#d9dada"/>
      <path id="path_82" data-name="Pfad 82" d="M633.834,165.944a9.927,9.927,0,1,1-9.928-9.928,9.928,9.928,0,0,1,9.928,9.928" fill="#d9dada"/>
      <path id="path_83" data-name="Pfad 83" d="M844.522,247.627a9.927,9.927,0,1,1-9.928-9.928,9.928,9.928,0,0,1,9.928,9.928" fill="#d9dada"/>
      <path id="path_84" data-name="Pfad 84" d="M1055.123,165.944a9.928,9.928,0,1,1-9.927-9.928,9.928,9.928,0,0,1,9.927,9.928" fill="#d9dada"/>
      <path id="path_85" data-name="Pfad 85" d="M1197.067,165.944a9.927,9.927,0,1,1-9.928-9.928,9.928,9.928,0,0,1,9.928,9.928" fill="#d9dada"/>
      <path id="path_86" data-name="Pfad 86" d="M844.3,84.262a9.928,9.928,0,1,1-9.928-9.928,9.928,9.928,0,0,1,9.928,9.928" fill="#d9dada"/>
    </g>
  </g>
</svg>
