<svg id="Gruppe_6" data-name="Gruppe 6" xmlns="http://www.w3.org/2000/svg" xmlns:xlink="http://www.w3.org/1999/xlink" width="26.56" height="26.466" viewBox="0 0 26.56 26.466">
  <defs>
    <clipPath id="clip-path">
      <rect id="Rechteck_6" data-name="Rechteck 6" width="26.56" height="26.466" fill="none"/>
    </clipPath>
  </defs>
  <g id="Gruppe_5" data-name="Gruppe 5" clip-path="url(#clip-path)">
    <path id="Pfad_28" data-name="Pfad 28" d="M26.559,13.258A13.2,13.2,0,0,1,13.071,26.466,13.134,13.134,0,0,1,0,13.169,13.269,13.269,0,0,1,13.293,0,13.437,13.437,0,0,1,26.559,13.258" transform="translate(0 0)"/>
    <path id="Pfad_29" data-name="Pfad 29" d="M79.406,42.462a1.485,1.485,0,0,1-1.046-.408,1.221,1.221,0,0,1-.439-.91,1.2,1.2,0,0,1,.439-.931,1.53,1.53,0,0,1,1.046-.387,1.492,1.492,0,0,1,1.036.387,1.212,1.212,0,0,1,.429.931,1.234,1.234,0,0,1-.429.91,1.449,1.449,0,0,1-1.036.408m0,12.158a1.6,1.6,0,0,1-.963-.272.748.748,0,0,1-.377-.586V45.517a.69.69,0,0,1,.377-.607,1.821,1.821,0,0,1,.963-.23,1.892,1.892,0,0,1,.963.23.687.687,0,0,1,.4.607v8.245a.744.744,0,0,1-.4.586,1.664,1.664,0,0,1-.963.272" transform="translate(-66.513 -33.995)" fill="#fff"/>
  </g>
</svg>
