<svg xmlns="http://www.w3.org/2000/svg" width="47.509" height="47.342" viewBox="0 0 47.509 47.342">
  <g id="group_30" data-name="Gruppe 30" transform="translate(-171.139 -280.439)">
    <path id="path_56" data-name="Pfad 56" d="M525.362,23.716c-.042,13.3-10.616,23.656-24.128,23.627a23.493,23.493,0,0,1-23.381-23.787A23.736,23.736,0,0,1,501.632,0c12.914.048,23.77,10.9,23.73,23.715" transform="translate(-306.714 280.438)" fill="#1d262a"/>
    <path id="path_57" data-name="Pfad 57" d="M558.431,44.542a2.656,2.656,0,0,1-1.872-.73,2.185,2.185,0,0,1-.786-1.628,2.146,2.146,0,0,1,.786-1.666,2.736,2.736,0,0,1,1.872-.692,2.669,2.669,0,0,1,1.853.692,2.168,2.168,0,0,1,.767,1.666,2.207,2.207,0,0,1-.767,1.628,2.592,2.592,0,0,1-1.853.73m0,21.747a2.867,2.867,0,0,1-1.722-.487,1.337,1.337,0,0,1-.674-1.048V50.007a1.235,1.235,0,0,1,.674-1.085,3.257,3.257,0,0,1,1.722-.412,3.385,3.385,0,0,1,1.722.412,1.229,1.229,0,0,1,.711,1.085V64.755a1.331,1.331,0,0,1-.711,1.048,2.976,2.976,0,0,1-1.722.487" transform="translate(-364.229 251.042)" fill="#fff"/>
  </g>
</svg>
