<svg id="Gruppe_2" data-name="Gruppe 2" xmlns="http://www.w3.org/2000/svg" xmlns:xlink="http://www.w3.org/1999/xlink" width="26.56" height="26.466" viewBox="0 0 26.56 26.466">
  <defs>
    <clipPath id="clip-path">
      <rect id="Rechteck_1" data-name="Rechteck 1" width="26.56" height="26.466" fill="none"/>
    </clipPath>
  </defs>
  <g id="Gruppe_1" data-name="Gruppe 1" clip-path="url(#clip-path)">
    <path id="Pfad_1" data-name="Pfad 1" d="M26.559,13.257A13.2,13.2,0,0,1,13.071,26.465,13.133,13.133,0,0,1,0,13.168,13.269,13.269,0,0,1,13.293,0,13.437,13.437,0,0,1,26.559,13.257" transform="translate(0 0.001)"/>
    <path id="Pfad_2" data-name="Pfad 2" d="M90.937,93.986a.76.76,0,0,1-.264-.56.746.746,0,0,1,.264-.573.918.918,0,0,1,.637-.238.941.941,0,0,1,.644.238.738.738,0,0,1,.27.573.752.752,0,0,1-.27.56.914.914,0,0,1-.644.251.892.892,0,0,1-.637-.251" transform="translate(-77.399 -79.056)" fill="#fff"/>
    <path id="Pfad_3" data-name="Pfad 3" d="M36,94.493a.76.76,0,0,1-.264-.56A.746.746,0,0,1,36,93.36a.918.918,0,0,1,.637-.238.941.941,0,0,1,.644.238.738.738,0,0,1,.27.573.751.751,0,0,1-.27.56.914.914,0,0,1-.644.251A.892.892,0,0,1,36,94.493" transform="translate(-30.509 -79.489)" fill="#fff"/>
    <path id="Pfad_4" data-name="Pfad 4" d="M118.441,93.986a.76.76,0,0,1-.264-.56.746.746,0,0,1,.264-.573.918.918,0,0,1,.638-.238.941.941,0,0,1,.644.238.738.738,0,0,1,.27.573.751.751,0,0,1-.27.56.914.914,0,0,1-.644.251.892.892,0,0,1-.638-.251" transform="translate(-100.876 -79.056)" fill="#fff"/>
    <path id="Pfad_5" data-name="Pfad 5" d="M62.331,111.157a.76.76,0,0,1-.264-.56.746.746,0,0,1,.264-.573.918.918,0,0,1,.637-.238.941.941,0,0,1,.644.238.738.738,0,0,1,.27.573.751.751,0,0,1-.27.56.914.914,0,0,1-.644.251.892.892,0,0,1-.637-.251" transform="translate(-52.98 -93.713)" fill="#fff"/>
    <path id="Pfad_6" data-name="Pfad 6" d="M62.331,127.313a.76.76,0,0,1-.264-.56.746.746,0,0,1,.264-.573.918.918,0,0,1,.637-.238.941.941,0,0,1,.644.238.738.738,0,0,1,.27.573.752.752,0,0,1-.27.56.914.914,0,0,1-.644.251.892.892,0,0,1-.637-.251" transform="translate(-52.98 -107.504)" fill="#fff"/>
    <path id="Pfad_7" data-name="Pfad 7" d="M36,111.157a.76.76,0,0,1-.264-.56.746.746,0,0,1,.264-.573.918.918,0,0,1,.637-.238.941.941,0,0,1,.644.238.738.738,0,0,1,.27.573.751.751,0,0,1-.27.56.914.914,0,0,1-.644.251.892.892,0,0,1-.637-.251" transform="translate(-30.509 -93.713)" fill="#fff"/>
    <path id="Pfad_8" data-name="Pfad 8" d="M36,127.313a.76.76,0,0,1-.264-.56A.746.746,0,0,1,36,126.18a.918.918,0,0,1,.637-.238.941.941,0,0,1,.644.238.738.738,0,0,1,.27.573.752.752,0,0,1-.27.56.914.914,0,0,1-.644.251.892.892,0,0,1-.637-.251" transform="translate(-30.509 -107.504)" fill="#fff"/>
    <path id="Pfad_9" data-name="Pfad 9" d="M118.441,110.649a.76.76,0,0,1-.264-.56.747.747,0,0,1,.264-.573.918.918,0,0,1,.638-.238.941.941,0,0,1,.644.238.738.738,0,0,1,.27.573.751.751,0,0,1-.27.56.914.914,0,0,1-.644.251.892.892,0,0,1-.638-.251" transform="translate(-100.876 -93.28)" fill="#fff"/>
    <path id="Pfad_10" data-name="Pfad 10" d="M118.441,126.805a.76.76,0,0,1-.264-.56.747.747,0,0,1,.264-.573.918.918,0,0,1,.638-.238.941.941,0,0,1,.644.238.738.738,0,0,1,.27.573.751.751,0,0,1-.27.56.914.914,0,0,1-.644.251.892.892,0,0,1-.638-.251" transform="translate(-100.876 -107.071)" fill="#fff"/>
    <path id="Pfad_11" data-name="Pfad 11" d="M62.638,44.5a.76.76,0,0,1-.264-.56.746.746,0,0,1,.264-.573.918.918,0,0,1,.637-.238.941.941,0,0,1,.644.238.738.738,0,0,1,.27.573.752.752,0,0,1-.27.56.914.914,0,0,1-.644.251.892.892,0,0,1-.637-.251" transform="translate(-53.243 -36.818)" fill="#fff"/>
    <path id="Pfad_12" data-name="Pfad 12" d="M139.858,60.513a.76.76,0,0,1-.264-.56.746.746,0,0,1,.264-.573.918.918,0,0,1,.637-.238.941.941,0,0,1,.644.238.738.738,0,0,1,.27.573.752.752,0,0,1-.27.56.914.914,0,0,1-.644.251.892.892,0,0,1-.637-.251" transform="translate(-119.158 -50.484)" fill="#fff"/>
    <path id="Pfad_13" data-name="Pfad 13" d="M118.478,44a.76.76,0,0,1-.264-.56.746.746,0,0,1,.264-.573.918.918,0,0,1,.637-.238.941.941,0,0,1,.644.238.738.738,0,0,1,.27.573.752.752,0,0,1-.27.56.914.914,0,0,1-.644.251.892.892,0,0,1-.637-.251" transform="translate(-100.908 -36.384)" fill="#fff"/>
    <path id="Pfad_14" data-name="Pfad 14" d="M90.973,77.422a.76.76,0,0,1-.264-.56.746.746,0,0,1,.264-.573.918.918,0,0,1,.638-.238.941.941,0,0,1,.644.238.738.738,0,0,1,.27.573.751.751,0,0,1-.27.56.914.914,0,0,1-.644.251.892.892,0,0,1-.638-.251" transform="translate(-77.429 -64.917)" fill="#fff"/>
    <path id="Pfad_15" data-name="Pfad 15" d="M62.368,61.166a.76.76,0,0,1-.264-.56.746.746,0,0,1,.264-.573.918.918,0,0,1,.637-.238.941.941,0,0,1,.644.238.738.738,0,0,1,.27.573.751.751,0,0,1-.27.56.914.914,0,0,1-.644.251.892.892,0,0,1-.637-.251" transform="translate(-53.012 -51.041)" fill="#fff"/>
    <path id="Pfad_16" data-name="Pfad 16" d="M36.042,77.322a.76.76,0,0,1-.264-.56.746.746,0,0,1,.264-.573.918.918,0,0,1,.637-.238.941.941,0,0,1,.644.238.738.738,0,0,1,.27.573.751.751,0,0,1-.27.56.914.914,0,0,1-.644.251.892.892,0,0,1-.637-.251" transform="translate(-30.54 -64.832)" fill="#fff"/>
    <path id="Pfad_17" data-name="Pfad 17" d="M118.478,60.659a.76.76,0,0,1-.264-.56.746.746,0,0,1,.264-.573.918.918,0,0,1,.637-.238.941.941,0,0,1,.644.238.738.738,0,0,1,.27.573.752.752,0,0,1-.27.56.914.914,0,0,1-.644.251.892.892,0,0,1-.637-.251" transform="translate(-100.908 -50.608)" fill="#fff"/>
    <path id="Pfad_18" data-name="Pfad 18" d="M118.478,77.422a.76.76,0,0,1-.264-.56.746.746,0,0,1,.264-.573.918.918,0,0,1,.637-.238.941.941,0,0,1,.644.238.738.738,0,0,1,.27.573.752.752,0,0,1-.27.56.914.914,0,0,1-.644.251.892.892,0,0,1-.637-.251" transform="translate(-100.908 -64.917)" fill="#fff"/>
  </g>
</svg>
