<svg xmlns="http://www.w3.org/2000/svg" width="47.51" height="47.342" viewBox="0 0 47.51 47.342">
  <g id="Gruppe_29" data-name="Gruppe 29" transform="translate(-46 -280.438)">
    <path id="Pfad_31" data-name="Pfad 31" d="M47.509,23.714c-.042,13.3-10.616,23.656-24.128,23.627A23.493,23.493,0,0,1,0,23.555,23.736,23.736,0,0,1,23.779,0C36.694.047,47.55,10.9,47.509,23.714" transform="translate(46 280.439)" fill="#1d262a"/>
    <path id="Pfad_32" data-name="Pfad 32" d="M91.145,95.068a1.359,1.359,0,0,1-.472-1,1.334,1.334,0,0,1,.472-1.025,1.642,1.642,0,0,1,1.14-.426,1.683,1.683,0,0,1,1.151.426,1.32,1.32,0,0,1,.484,1.025,1.344,1.344,0,0,1-.484,1,1.634,1.634,0,0,1-1.151.449,1.6,1.6,0,0,1-1.14-.449" transform="translate(-20.928 212.077)" fill="#fff"/>
    <path id="Pfad_33" data-name="Pfad 33" d="M36.213,95.575a1.359,1.359,0,0,1-.472-1,1.334,1.334,0,0,1,.472-1.025,1.642,1.642,0,0,1,1.14-.426,1.683,1.683,0,0,1,1.151.426,1.32,1.32,0,0,1,.484,1.025,1.344,1.344,0,0,1-.484,1,1.634,1.634,0,0,1-1.151.449,1.6,1.6,0,0,1-1.14-.449" transform="translate(19.619 211.703)" fill="#fff"/>
    <path id="Pfad_34" data-name="Pfad 34" d="M118.649,95.068a1.36,1.36,0,0,1-.472-1,1.335,1.335,0,0,1,.472-1.025,1.643,1.643,0,0,1,1.14-.426,1.684,1.684,0,0,1,1.151.426,1.32,1.32,0,0,1,.483,1.025,1.344,1.344,0,0,1-.483,1,1.635,1.635,0,0,1-1.151.449,1.6,1.6,0,0,1-1.14-.449" transform="translate(-41.229 212.077)" fill="#fff"/>
    <path id="Pfad_35" data-name="Pfad 35" d="M62.539,112.239a1.359,1.359,0,0,1-.472-1,1.334,1.334,0,0,1,.472-1.025,1.642,1.642,0,0,1,1.14-.426,1.683,1.683,0,0,1,1.151.426,1.32,1.32,0,0,1,.484,1.025,1.344,1.344,0,0,1-.484,1,1.634,1.634,0,0,1-1.151.449,1.6,1.6,0,0,1-1.14-.449" transform="translate(0.187 199.403)" fill="#fff"/>
    <path id="Pfad_36" data-name="Pfad 36" d="M62.539,128.4a1.359,1.359,0,0,1-.472-1,1.334,1.334,0,0,1,.472-1.025,1.642,1.642,0,0,1,1.14-.426,1.683,1.683,0,0,1,1.151.426,1.32,1.32,0,0,1,.484,1.025,1.344,1.344,0,0,1-.484,1,1.634,1.634,0,0,1-1.151.449,1.6,1.6,0,0,1-1.14-.449" transform="translate(0.187 187.478)" fill="#fff"/>
    <path id="Pfad_37" data-name="Pfad 37" d="M36.213,112.239a1.359,1.359,0,0,1-.472-1,1.334,1.334,0,0,1,.472-1.025,1.642,1.642,0,0,1,1.14-.426,1.683,1.683,0,0,1,1.151.426,1.32,1.32,0,0,1,.484,1.025,1.344,1.344,0,0,1-.484,1,1.634,1.634,0,0,1-1.151.449,1.6,1.6,0,0,1-1.14-.449" transform="translate(19.619 199.403)" fill="#fff"/>
    <path id="Pfad_38" data-name="Pfad 38" d="M36.213,128.4a1.359,1.359,0,0,1-.472-1,1.334,1.334,0,0,1,.472-1.025,1.642,1.642,0,0,1,1.14-.426,1.683,1.683,0,0,1,1.151.426,1.32,1.32,0,0,1,.484,1.025,1.344,1.344,0,0,1-.484,1,1.634,1.634,0,0,1-1.151.449,1.6,1.6,0,0,1-1.14-.449" transform="translate(19.619 187.478)" fill="#fff"/>
    <path id="Pfad_39" data-name="Pfad 39" d="M118.649,111.731a1.36,1.36,0,0,1-.472-1,1.335,1.335,0,0,1,.472-1.025,1.643,1.643,0,0,1,1.14-.426,1.684,1.684,0,0,1,1.151.426,1.32,1.32,0,0,1,.483,1.025,1.344,1.344,0,0,1-.483,1,1.635,1.635,0,0,1-1.151.449,1.6,1.6,0,0,1-1.14-.449" transform="translate(-41.229 199.778)" fill="#fff"/>
    <path id="Pfad_40" data-name="Pfad 40" d="M118.649,127.887a1.36,1.36,0,0,1-.472-1,1.335,1.335,0,0,1,.472-1.025,1.643,1.643,0,0,1,1.14-.426,1.684,1.684,0,0,1,1.151.426,1.32,1.32,0,0,1,.483,1.025,1.344,1.344,0,0,1-.483,1,1.635,1.635,0,0,1-1.151.449,1.6,1.6,0,0,1-1.14-.449" transform="translate(-41.229 187.853)" fill="#fff"/>
    <path id="Pfad_41" data-name="Pfad 41" d="M62.846,45.585a1.359,1.359,0,0,1-.472-1,1.334,1.334,0,0,1,.472-1.025,1.642,1.642,0,0,1,1.14-.426,1.683,1.683,0,0,1,1.151.426,1.32,1.32,0,0,1,.484,1.025,1.344,1.344,0,0,1-.484,1,1.634,1.634,0,0,1-1.151.449,1.6,1.6,0,0,1-1.14-.449" transform="translate(-0.04 248.602)" fill="#fff"/>
    <path id="Pfad_42" data-name="Pfad 42" d="M140.066,61.6a1.359,1.359,0,0,1-.472-1,1.334,1.334,0,0,1,.472-1.025,1.642,1.642,0,0,1,1.14-.426,1.683,1.683,0,0,1,1.151.426,1.32,1.32,0,0,1,.484,1.025,1.344,1.344,0,0,1-.484,1,1.634,1.634,0,0,1-1.151.449,1.6,1.6,0,0,1-1.14-.449" transform="translate(-57.038 236.785)" fill="#fff"/>
    <path id="Pfad_43" data-name="Pfad 43" d="M118.686,45.077a1.359,1.359,0,0,1-.472-1,1.335,1.335,0,0,1,.472-1.025,1.642,1.642,0,0,1,1.14-.426,1.683,1.683,0,0,1,1.151.426,1.32,1.32,0,0,1,.484,1.025,1.344,1.344,0,0,1-.484,1,1.634,1.634,0,0,1-1.151.449,1.6,1.6,0,0,1-1.14-.449" transform="translate(-41.257 248.977)" fill="#fff"/>
    <path id="Pfad_44" data-name="Pfad 44" d="M91.181,78.5a1.36,1.36,0,0,1-.472-1,1.335,1.335,0,0,1,.472-1.025,1.643,1.643,0,0,1,1.14-.426,1.683,1.683,0,0,1,1.151.426,1.32,1.32,0,0,1,.484,1.025,1.344,1.344,0,0,1-.484,1,1.634,1.634,0,0,1-1.151.449,1.6,1.6,0,0,1-1.14-.449" transform="translate(-20.954 224.304)" fill="#fff"/>
    <path id="Pfad_45" data-name="Pfad 45" d="M62.576,62.248a1.359,1.359,0,0,1-.472-1,1.335,1.335,0,0,1,.472-1.025,1.642,1.642,0,0,1,1.14-.426,1.683,1.683,0,0,1,1.151.426,1.32,1.32,0,0,1,.484,1.025,1.344,1.344,0,0,1-.484,1,1.634,1.634,0,0,1-1.151.449,1.6,1.6,0,0,1-1.14-.449" transform="translate(0.16 236.303)" fill="#fff"/>
    <path id="Pfad_46" data-name="Pfad 46" d="M36.25,78.4a1.359,1.359,0,0,1-.472-1,1.335,1.335,0,0,1,.472-1.025,1.642,1.642,0,0,1,1.14-.426,1.683,1.683,0,0,1,1.151.426,1.32,1.32,0,0,1,.484,1.025,1.344,1.344,0,0,1-.484,1,1.634,1.634,0,0,1-1.151.449,1.6,1.6,0,0,1-1.14-.449" transform="translate(19.592 224.377)" fill="#fff"/>
    <path id="Pfad_47" data-name="Pfad 47" d="M118.686,61.741a1.359,1.359,0,0,1-.472-1,1.335,1.335,0,0,1,.472-1.025,1.642,1.642,0,0,1,1.14-.426,1.683,1.683,0,0,1,1.151.426,1.32,1.32,0,0,1,.484,1.025,1.344,1.344,0,0,1-.484,1,1.634,1.634,0,0,1-1.151.449,1.6,1.6,0,0,1-1.14-.449" transform="translate(-41.257 236.677)" fill="#fff"/>
    <path id="Pfad_48" data-name="Pfad 48" d="M118.686,78.5a1.359,1.359,0,0,1-.472-1,1.335,1.335,0,0,1,.472-1.025,1.642,1.642,0,0,1,1.14-.426,1.683,1.683,0,0,1,1.151.426,1.32,1.32,0,0,1,.484,1.025,1.344,1.344,0,0,1-.484,1,1.634,1.634,0,0,1-1.151.449,1.6,1.6,0,0,1-1.14-.449" transform="translate(-41.257 224.304)" fill="#fff"/>
  </g>
</svg>
