<?xml version="1.0" encoding="UTF-8"?>
<svg id="Ebene_2" data-name="Ebene 2" xmlns="http://www.w3.org/2000/svg" viewBox="0 0 47.33 47.27">
  <path d="M22.58.02c17.06-.76,29.25,16.03,23.15,32.05s-25.62,20.28-37.93,9.09C-7.78,26.99,1.42.97,22.58.02ZM19.46,9.39c-4.21.31-7.91,3.28-9.25,7.24-2.52,7.42,3.15,14.81,10.95,14.36,2.03-.12,3.96-.91,5.64-2,.08.01.93.96,1.07,1.11,1.91,2.07,3.7,4.28,5.65,6.31.51.53,1.04,1.17,1.83,1.24,1.81.15,2.85-1.72,1.76-3.18l-8.03-7.76c.82-1.24,1.51-2.51,1.85-3.97,1.69-7.3-4.02-13.9-11.47-13.36Z" fill="#e6d14e"/>
  <path d="M19.46,12.46c7.86-.7,11.84,8.72,5.93,13.77-4.81,4.11-12.34.72-12.75-5.51-.26-3.95,2.81-7.9,6.82-8.26Z" fill="#d8cb52"/>
</svg>