<svg xmlns="http://www.w3.org/2000/svg" width="47.435" height="47.268" viewBox="0 0 47.435 47.268">
  <g id="group_24" data-name="group 24" transform="translate(-106.789 -439.476)">
    <path id="path_49" data-name="path 49" d="M279.563,23.82c-.042,13.28-10.6,23.619-24.09,23.59a23.456,23.456,0,0,1-23.344-23.75A23.7,23.7,0,0,1,255.87.143C268.764.19,279.6,11.022,279.563,23.82" transform="translate(-125.339 439.334)" fill="#1d262a"/>
    <path id="path_50" data-name="path 50" d="M315.384,124.4v-4.343h13.558a2.459,2.459,0,0,1,1.706.637,2,2,0,0,1,.707,1.534,2.034,2.034,0,0,1-.707,1.5,2.388,2.388,0,0,1-1.706.672" transform="translate(-186.792 350.821)" fill="#fff"/>
    <path id="path_51" data-name="path 51" d="M268.809,124.4a1.055,1.055,0,0,1-.89-.672,3.071,3.071,0,0,1-.368-1.5,3.021,3.021,0,0,1,.368-1.534,1.052,1.052,0,0,1,.89-.637h7.071V124.4" transform="translate(-151.486 350.822)" fill="#fff"/>
    <path id="path_52" data-name="path 52" d="M315.384,86.442V82.1h13.558a2.459,2.459,0,0,1,1.706.637,2,2,0,0,1,.707,1.534,2.034,2.034,0,0,1-.707,1.5,2.388,2.388,0,0,1-1.706.672" transform="translate(-186.792 378.839)" fill="#fff"/>
    <path id="path_53" data-name="path 53" d="M268.809,86.442a1.055,1.055,0,0,1-.89-.672,3.071,3.071,0,0,1-.368-1.5,3.021,3.021,0,0,1,.368-1.534,1.052,1.052,0,0,1,.89-.637h7.071v4.343" transform="translate(-151.486 378.839)" fill="#fff"/>
    <path id="path_54" data-name="path 54" d="M315.384,48.483V44.14h13.558a2.459,2.459,0,0,1,1.706.637,2,2,0,0,1,.707,1.534,2.034,2.034,0,0,1-.707,1.5,2.388,2.388,0,0,1-1.706.672" transform="translate(-186.792 406.858)" fill="#fff"/>
    <path id="path_55" data-name="path 55" d="M268.809,48.483a1.055,1.055,0,0,1-.89-.672,3.071,3.071,0,0,1-.368-1.5,3.021,3.021,0,0,1,.368-1.534,1.052,1.052,0,0,1,.89-.637h7.071v4.343" transform="translate(-151.486 406.858)" fill="#fff"/>
  </g>
</svg>
