<?xml version="1.0" encoding="UTF-8"?>
<svg id="Ebene_2" data-name="Ebene 2" xmlns="http://www.w3.org/2000/svg" xmlns:xlink="http://www.w3.org/1999/xlink" viewBox="0 0 48.54 48.58" width="48" height="48">
  <defs>
    <style>
      .cls-1 {
        fill: none;
      }

      .cls-2 {
        fill: #e6d14e;
      }

      .cls-3 {
        fill: #d8cb52;
      }

      .cls-4 {
        fill: #efd760;
      }

      .cls-5 {
        fill: #f9e178;
      }

      .cls-6 {
        clip-path: url(#clippath);
      }
    </style>
    <clipPath id="clippath">
      <rect class="cls-1" y="0" width="48.54" height="48.54"/>
    </clipPath>
  </defs>
  <g id="Design_Idea" data-name="Design Idea">
    <g id="group_66" data-name="group 66">
      <g class="cls-6">
        <g id="group_65" data-name="group 65">
          <path id="path_919" data-name="path 919" class="cls-3" d="M46.06,34.99c-2.86,2.63-6.79,2.7-10.74,2.34-5.37-.49-9.53-1.97-14.47-4.15-5.44-2.4-9.82-4.77-14.1-8.9-2.71-2.61-5.04-5.48-4.93-9.12-5.05,12.41.92,26.56,13.33,31.61,11.8,4.8,25.31-.35,30.93-11.79"/>
          <path id="path_920" data-name="path 920" class="cls-2" d="M46.06,34.99c5.04-10.28,2.21-22.69-6.78-29.78-9.49-.22-20.47-.23-30,0-3.34,2.58-5.92,6.02-7.46,9.95-.11,3.64,2.23,6.51,4.94,9.12,4.28,4.13,8.66,6.5,14.1,8.9,4.94,2.18,9.1,3.65,14.47,4.15,3.95.36,7.88.29,10.74-2.34"/>
          <path id="path_921" data-name="path 921" class="cls-4" d="M39.27,5.22c-1.85-1.52-3.94-2.72-6.18-3.54H15.53c-2.28.81-4.39,2.01-6.26,3.54,9.53-.23,20.51-.22,30,0"/>
          <path id="path_922" data-name="path 922" class="cls-5" d="M33.09,1.67C27.45-.56,21.17-.56,15.52,1.67h17.57Z"/>
        </g>
      </g>
    </g>
  </g>
</svg>