<svg xmlns="http://www.w3.org/2000/svg" xmlns:xlink="http://www.w3.org/1999/xlink" width="49.713" height="49.722" viewBox="0 0 49.713 49.722">
  <defs>
    <clipPath id="clip-path">
      <rect id="Rechteck_31" data-name="Rechteck 31" width="49.713" height="49.722" fill="none"/>
    </clipPath>
  </defs>
  <g id="Gruppe_45" data-name="Gruppe 45" transform="translate(0 0)">
    <g id="Gruppe_44" data-name="Gruppe 44" transform="translate(0 0)" clip-path="url(#clip-path)">
      <path id="Pfad_413" data-name="Pfad 413" d="M47.173,43.716c-2.859,2.848-7.074,2.856-11.159,2.472-5.624-.529-9.909-2.084-15.06-4.4-5.315-2.391-9.588-4.723-13.823-8.726-2.879-2.722-5.4-5.774-5.291-9.5A24.82,24.82,0,0,0,47.173,43.716" transform="translate(0 -7.97)" fill="#f31f00"/>
      <path id="Pfad_414" data-name="Pfad 414" d="M48.112,38.4A24.851,24.851,0,0,0,41.161,7.969c-9.548-.176-21.056-.183-30.659,0A23.473,23.473,0,0,0,2.779,18.241c-.112,3.726,2.411,6.777,5.291,9.5,4.235,4,8.508,6.335,13.823,8.726,5.151,2.318,9.436,3.873,15.06,4.4,4.086.384,8.3.377,11.159-2.472" transform="translate(-0.939 -2.651)" fill="#ff6f5a"/>
      <path id="Pfad_415" data-name="Pfad 415" d="M45.111,6.182a22.949,22.949,0,0,0-6.41-3.63H20.861a20.5,20.5,0,0,0-6.409,3.63c9.6-.182,21.11-.176,30.659,0" transform="translate(-4.889 -0.864)" fill="#ff8777"/>
      <path id="Pfad_416" data-name="Pfad 416" d="M41.978,1.689a24.4,24.4,0,0,0-17.839,0Z" transform="translate(-8.166 0)" fill="#ff9b8d"/>
    </g>
  </g>
</svg>
