<?xml version="1.0" encoding="UTF-8"?>
<svg id="Ebene_2" data-name="Ebene 2" xmlns="http://www.w3.org/2000/svg" xmlns:xlink="http://www.w3.org/1999/xlink" viewBox="0 0 48.53 48.54" width="48" height="48">
  <defs>
    <style>
      .cls-1 {
        fill: none;
      }

      .cls-2 {
        fill: #ef6262;
      }

      .cls-3 {
        fill: #ed5656;
      }

      .cls-4 {
        fill: #eb4841;
      }

      .cls-5 {
        fill: #ce3b38;
      }

      .cls-6 {
        clip-path: url(#clippath);
      }
    </style>
    <clipPath id="clippath">
      <rect class="cls-1" width="48.53" height="48.54"/>
    </clipPath>
  </defs>
  <g id="Design_Idea" data-name="Design Idea">
    <g id="group_64" data-name="group 64">
      <g class="cls-6">
        <g id="group_63" data-name="group 63">
          <path id="path_915" data-name="path 915" class="cls-5" d="M46.05,34.9c-2.79,2.78-6.91,2.79-10.89,2.41-5.49-.52-9.67-2.03-14.7-4.3-5.19-2.33-9.36-4.61-13.49-8.52-2.81-2.66-5.28-5.63-5.16-9.27-5,12.41,1.01,26.53,13.42,31.53,11.79,4.75,25.26-.42,30.83-11.85"/>
          <path id="path_916" data-name="path 916" class="cls-4" d="M46.05,34.9c5.01-10.26,2.19-22.63-6.78-29.7-9.32-.17-20.56-.18-29.93,0-3.4,2.57-6.01,6.05-7.54,10.02-.11,3.64,2.35,6.62,5.17,9.27,4.13,3.91,8.31,6.18,13.49,8.52,5.03,2.26,9.21,3.78,14.7,4.3,3.99.38,8.1.37,10.89-2.41"/>
          <path id="path_917" data-name="path 917" class="cls-3" d="M39.27,5.2c-1.88-1.51-3.99-2.71-6.26-3.54H15.59c-2.28.79-4.4,1.99-6.26,3.54,9.38-.18,20.61-.17,29.93,0"/>
          <path id="path_918" data-name="path 918" class="cls-2" d="M33.01,1.65C27.41-.55,21.19-.55,15.59,1.65h17.42Z"/>
        </g>
      </g>
    </g>
  </g>
</svg>