<svg xmlns="http://www.w3.org/2000/svg" width="48" height="48" viewBox="0 0 48 48">
  <g id="path_211" data-name="Pfad 211" fill="#fdb22e">
    <path d="M 24 46.5 C 20.96186065673828 46.5 18.01539039611816 45.90531158447266 15.24244976043701 44.73244857788086 C 12.56334018707275 43.59928894042969 10.15694046020508 41.97674942016602 8.090100288391113 39.9099006652832 C 6.023250102996826 37.84305953979492 4.400710105895996 35.43666076660156 3.267549991607666 32.75754928588867 C 2.094690084457397 29.98460960388184 1.5 27.03813934326172 1.5 24 C 1.5 20.96186065673828 2.094690084457397 18.01539039611816 3.267549991607666 15.24244976043701 C 4.400710105895996 12.56334018707275 6.023250102996826 10.15694046020508 8.090100288391113 8.090100288391113 C 10.15694046020508 6.023250102996826 12.56334018707275 4.400710105895996 15.24244976043701 3.267549991607666 C 18.01539039611816 2.094690084457397 20.96186065673828 1.5 24 1.5 C 27.03813934326172 1.5 29.98460960388184 2.094690084457397 32.75754928588867 3.267549991607666 C 35.43666076660156 4.400710105895996 37.84305953979492 6.023250102996826 39.9099006652832 8.090100288391113 C 41.97674942016602 10.15694046020508 43.59928894042969 12.56334018707275 44.73244857788086 15.24244976043701 C 45.90531158447266 18.01539039611816 46.5 20.96186065673828 46.5 24 C 46.5 27.03813934326172 45.90531158447266 29.98460960388184 44.73244857788086 32.75754928588867 C 43.59928894042969 35.43666076660156 41.97674942016602 37.84305953979492 39.9099006652832 39.9099006652832 C 37.84305953979492 41.97674942016602 35.43666076660156 43.59928894042969 32.75754928588867 44.73244857788086 C 29.98460960388184 45.90531158447266 27.03813934326172 46.5 24 46.5 Z" stroke="none"/>
    <path d="M 24 3 C 21.16370010375977 3 18.4138298034668 3.554821014404297 15.82677841186523 4.649051666259766 C 13.32646942138672 5.706588745117188 11.08032989501953 7.22119140625 9.150760650634766 9.150760650634766 C 7.22119140625 11.08032989501953 5.706588745117188 13.32646942138672 4.649051666259766 15.82677841186523 C 3.554821014404297 18.4138298034668 3 21.16370010375977 3 24 C 3 26.83629989624023 3.554821014404297 29.5861701965332 4.649051666259766 32.1732177734375 C 5.706588745117188 34.67353057861328 7.22119140625 36.91967010498047 9.150760650634766 38.84923934936523 C 11.08032989501953 40.77880859375 13.32646942138672 42.29341125488281 15.82677841186523 43.35094833374023 C 18.4138298034668 44.4451789855957 21.16370010375977 45 24 45 C 26.83629989624023 45 29.5861701965332 44.4451789855957 32.1732177734375 43.35094833374023 C 34.67353057861328 42.29341125488281 36.91967010498047 40.77880859375 38.84923934936523 38.84923934936523 C 40.77880859375 36.91967010498047 42.29341125488281 34.67353057861328 43.35094833374023 32.1732177734375 C 44.4451789855957 29.5861701965332 45 26.83629989624023 45 24 C 45 21.16370010375977 44.4451789855957 18.4138298034668 43.35094833374023 15.82677841186523 C 42.29341125488281 13.32646942138672 40.77880859375 11.08032989501953 38.84923934936523 9.150760650634766 C 36.91967010498047 7.22119140625 34.67353057861328 5.706588745117188 32.1732177734375 4.649051666259766 C 29.5861701965332 3.554821014404297 26.83629989624023 3 24 3 M 24 0 C 37.25482940673828 0 48 10.74517059326172 48 24 C 48 37.25482940673828 37.25482940673828 48 24 48 C 10.74517059326172 48 0 37.25482940673828 0 24 C 0 10.74517059326172 10.74517059326172 0 24 0 Z" stroke="none" fill="#fdb22e"/>
  </g>
</svg>
