<svg xmlns="http://www.w3.org/2000/svg" xmlns:xlink="http://www.w3.org/1999/xlink" width="51.902" height="51.906" viewBox="0 0 51.902 51.906">
  <defs>
    <clipPath id="clip-path">
      <rect id="Rechteck_38" data-name="Rechteck 38" width="51.902" height="51.906" fill="none"/>
    </clipPath>
  </defs>
  <g id="Gruppe_58" data-name="Gruppe 58" transform="translate(0 0)">
    <g id="Gruppe_57" data-name="Gruppe 57" transform="translate(0 0.001)" clip-path="url(#clip-path)">
      <path id="Pfad_903" data-name="Pfad 903" d="M49.252,44.682c-3.062,2.813-7.264,2.887-11.488,2.5-5.747-.529-10.2-2.105-15.478-4.434-5.814-2.563-10.5-5.1-15.075-9.512-2.9-2.8-5.4-5.862-5.281-9.755a25.943,25.943,0,0,0,47.321,21.2" transform="translate(0 -7.262)" fill="#ffc14b"/>
      <path id="Pfad_904" data-name="Pfad 904" d="M50.114,39.837A25.987,25.987,0,0,0,42.859,7.995c-10.146-.235-21.89-.245-32.085,0A25.024,25.024,0,0,0,2.793,18.635c-.115,3.892,2.383,6.959,5.281,9.755,4.572,4.412,9.261,6.949,15.075,9.512,5.281,2.329,9.731,3.9,15.478,4.434,4.224.388,8.426.314,11.488-2.5" transform="translate(-0.863 -2.417)" fill="#ffd88e"/>
      <path id="Pfad_905" data-name="Pfad 905" d="M46.435,6.379a22.822,22.822,0,0,0-6.61-3.789H21.041A22.072,22.072,0,0,0,14.35,6.379c10.195-.245,21.937-.235,32.085,0" transform="translate(-4.438 -0.801)" fill="#ffe6b9"/>
      <path id="Pfad_906" data-name="Pfad 906" d="M42.82,1.789a25.545,25.545,0,0,0-18.784,0Z" transform="translate(-7.433 0)" fill="#fff2db"/>
    </g>
  </g>
</svg>
